<svg xmlns="http://www.w3.org/2000/svg" viewBox="0 0 191 103"><style>.h{fill-rule:evenodd}.i{fill:#fff}</style><path d="M69.8 97.4h1.6c.4 0 .8 0 1.2-.1.3-.1.6-.2.9-.5a1.62 1.62 0 00.5-.9c.1-.4.2-.9.2-1.4 0-.4-.1-.8-.2-1.2s-.3-.7-.5-.9c-.2-.3-.5-.5-.9-.6a4.44 4.44 0 00-1.3-.2h-1.6v5.8zM68 90h3.3c.8 0 1.5.1 2.1.3s1.1.5 1.5.9.7.9.8 1.4a5.23 5.23 0 01.3 1.8c0 1.5-.4 2.6-1.1 3.4s-1.8 1.1-3.2 1.1H68V90zm13.5 1.7c-.5 0-.9.1-1.2.3s-.6.4-.8.8c-.2.3-.4.7-.5 1.1s-.2.8-.2 1.2.1.8.2 1.2.3.8.5 1.1.5.6.8.8.7.3 1.2.3.9-.1 1.2-.3.6-.4.8-.8c.2-.3.4-.7.5-1.1s.2-.8.2-1.2-.1-.8-.2-1.2-.3-.8-.5-1.1-.5-.6-.8-.8-.7-.3-1.2-.3m0-1.7c.7 0 1.3.1 1.9.4s1 .6 1.4 1.1.7 1 .9 1.6.3 1.2.3 1.9-.1 1.3-.3 1.9-.5 1.1-.9 1.6-.9.8-1.4 1.1c-.6.3-1.2.4-1.9.4s-1.3-.1-1.9-.4-1-.6-1.4-1.1-.7-1-.9-1.6-.3-1.2-.3-1.9.1-1.3.3-1.9.5-1.1.9-1.6.9-.8 1.4-1.1c.6-.3 1.2-.4 1.9-.4m6.5 0h1.6v7.4H93V99h-5zm6 0h6.7v1.6h-4.9v2h4.5v1.5h-4.5v2.3h5.2V99h-7z" class="h i"/><defs><filter id="A" filterUnits="userSpaceOnUse" x="105" y="95" width="4" height="2"><feColorMatrix values="1 0 0 0 0 0 1 0 0 0 0 0 1 0 0 0 0 0 1 0"/></filter></defs><mask maskUnits="userSpaceOnUse" x="105" y="95" width="4" height="2" id="B"><g filter="url(#A)"><path d="M0 103h191V0H0z" class="h i"/></g></mask><path d="M105 97h4v-2h-4z" mask="url(#B)" class="h i"/><defs><filter id="C" filterUnits="userSpaceOnUse" x="113" y="90" width="8" height="10"><feColorMatrix values="1 0 0 0 0 0 1 0 0 0 0 0 1 0 0 0 0 0 1 0"/></filter></defs><mask maskUnits="userSpaceOnUse" x="113" y="90" width="8" height="10" id="D"><g filter="url(#C)"><path d="M0 103h191V0H0z" class="h i"/></g></mask><path d="M119.3 93.4c0-.3-.1-.5-.2-.7s-.3-.4-.4-.6c-.2-.2-.4-.3-.6-.4s-.5-.1-.7-.1c-.4 0-.8.1-1.1.3s-.6.4-.8.8c-.2.3-.4.7-.5 1.1s-.1.8-.1 1.2 0 .8.1 1.2.2.8.5 1.1c.2.3.5.6.8.8s.7.3 1.1.3c.3 0 .6 0 .8-.1s.4-.2.6-.4.3-.4.5-.6c.1-.2.2-.5.3-.8l1.5.7c-.4 1-.8 1.7-1.4 2.1-.6.5-1.4.7-2.3.7-.7 0-1.4-.1-1.9-.4s-1-.6-1.3-1.1c-.4-.5-.6-1-.8-1.6s-.3-1.2-.3-1.9.1-1.3.3-1.9.5-1.1.9-1.6.8-.8 1.3-1.1 1.1-.4 1.8-.4c.9 0 1.7.3 2.3.7a3.73 3.73 0 011.3 2.2l-1.7.5z" mask="url(#D)" class="h i"/><defs><filter id="E" filterUnits="userSpaceOnUse" x="123" y="90" width="7" height="9"><feColorMatrix values="1 0 0 0 0 0 1 0 0 0 0 0 1 0 0 0 0 0 1 0"/></filter></defs><mask maskUnits="userSpaceOnUse" x="123" y="90" width="7" height="9" id="F"><g filter="url(#E)"><path d="M0 103h191V0H0z" class="h i"/></g></mask><path d="M123 90h1.6v3.4h3.8V90h1.6v9h-1.6v-4.1h-3.8V99H123z" mask="url(#F)" class="h i"/><defs><filter id="G" filterUnits="userSpaceOnUse" x="132" y="90" width="9" height="10"><feColorMatrix values="1 0 0 0 0 0 1 0 0 0 0 0 1 0 0 0 0 0 1 0"/></filter></defs><mask maskUnits="userSpaceOnUse" x="132" y="90" width="9" height="10" id="H"><g filter="url(#G)"><path d="M0 103h191V0H0z" class="h i"/></g></mask><path d="M136.5 91.7c-.5 0-.9.1-1.2.3s-.6.4-.8.8c-.2.3-.4.7-.5 1.1s-.2.8-.2 1.2.1.8.2 1.2.3.8.5 1.1.5.6.8.8.7.3 1.2.3.9-.1 1.2-.3.6-.4.8-.8c.2-.3.4-.7.5-1.1s.2-.8.2-1.2-.1-.8-.2-1.2-.3-.8-.5-1.1-.5-.6-.8-.8-.7-.3-1.2-.3m0-1.7c.7 0 1.3.1 1.9.4s1 .6 1.4 1.1.7 1 .9 1.6.3 1.2.3 1.9-.1 1.3-.3 1.9-.5 1.1-.9 1.6-.9.8-1.4 1.1c-.6.3-1.2.4-1.9.4s-1.3-.1-1.9-.4-1-.6-1.4-1.1-.7-1-.9-1.6-.3-1.2-.3-1.9.1-1.3.3-1.9.5-1.1.9-1.6.9-.8 1.4-1.1c.6-.3 1.2-.4 1.9-.4" mask="url(#H)" class="h i"/><defs><filter id="I" filterUnits="userSpaceOnUse" x="142" y="90" width="2" height="9"><feColorMatrix values="1 0 0 0 0 0 1 0 0 0 0 0 1 0 0 0 0 0 1 0"/></filter></defs><mask maskUnits="userSpaceOnUse" x="142" y="90" width="2" height="9" id="J"><g filter="url(#I)"><path d="M0 103h191V0H0z" class="h i"/></g></mask><path d="M142 99h2v-9h-2z" mask="url(#J)" class="h i"/><defs><filter id="K" filterUnits="userSpaceOnUse" x="145" y="90" width="8" height="10"><feColorMatrix values="1 0 0 0 0 0 1 0 0 0 0 0 1 0 0 0 0 0 1 0"/></filter></defs><mask maskUnits="userSpaceOnUse" x="145" y="90" width="8" height="10" id="L"><g filter="url(#K)"><path d="M0 103h191V0H0z" class="h i"/></g></mask><path d="M146.5 96.9c.3.5.7.9 1.2 1.1s1 .3 1.6.3c.2 0 .4 0 .7-.1.2 0 .4-.1.6-.2s.3-.2.5-.4c.1-.2.2-.3.2-.6 0-.2 0-.3-.1-.5-.1-.1-.2-.2-.4-.3s-.4-.2-.6-.2c-.2-.1-.5-.1-.8-.2l-1-.2-1.1-.3c-.3-.1-.6-.3-.9-.5s-.5-.4-.6-.7-.2-.7-.2-1.1c0-.5.1-.9.3-1.3a2.36 2.36 0 01.8-.9c.3-.2.7-.4 1.1-.5s.9-.2 1.3-.2a4.65 4.65 0 012.1.5c.6.3 1.2.8 1.7 1.5l-1.4 1.1c-.2-.4-.5-.8-.9-1s-.9-.4-1.5-.4c-.5 0-.9.1-1.2.3s-.5.4-.5.8c0 .2.1.4.1.5a1.38 1.38 0 00.4.3c.2.1.4.2.6.2.2.1.5.1.7.2l1.1.3 1 .3c.3.1.6.3.8.5s.4.5.6.8c.1.3.2.7.2 1.1 0 .6-.1 1.1-.4 1.5-.2.4-.6.7-.9 1-.4.2-.8.4-1.3.5s-1 .2-1.4.2-.8 0-1.1-.1c-.4-.1-.7-.2-1.1-.4l-1-.6a2.36 2.36 0 01-.8-.9l1.6-1.4z" mask="url(#L)" class="h i"/><defs><filter id="M" filterUnits="userSpaceOnUse" x="155" y="90" width="7" height="9"><feColorMatrix values="1 0 0 0 0 0 1 0 0 0 0 0 1 0 0 0 0 0 1 0"/></filter></defs><mask maskUnits="userSpaceOnUse" x="155" y="90" width="7" height="9" id="N"><g filter="url(#M)"><path d="M0 103h191V0H0z" class="h i"/></g></mask><path d="M155 90h6.7v1.6h-4.9v2h4.5v1.5h-4.5v2.3h5.2V99h-7z" mask="url(#N)" class="h i"/><defs><filter id="O" filterUnits="userSpaceOnUse" x="162" y="90" width="8" height="9"><feColorMatrix values="1 0 0 0 0 0 1 0 0 0 0 0 1 0 0 0 0 0 1 0"/></filter></defs><mask maskUnits="userSpaceOnUse" x="162" y="90" width="8" height="9" id="P"><g filter="url(#O)"><path d="M0 103h191V0H0z" class="h i"/></g></mask><path d="M165.1 95.5L162 90h2l2 3.7 2-3.7h2l-3.1 5.5V99h-1.8z" mask="url(#P)" class="h i"/><defs><filter id="Q" filterUnits="userSpaceOnUse" x="45" y="83" width="17" height="20"><feColorMatrix values="1 0 0 0 0 0 1 0 0 0 0 0 1 0 0 0 0 0 1 0"/></filter></defs><mask maskUnits="userSpaceOnUse" x="45" y="83" width="17" height="20" id="R"><g filter="url(#Q)"><path d="M0 103h191V0H0z" class="h i"/></g></mask><path d="M53.5 83c-2.3 0-4.4.9-6 2.5-1.6 1.5-2.5 3.6-2.5 5.9s.9 4.3 2.5 5.9l5.6 5.5a.76.76 0 00.4.2c.2 0 .3-.1.4-.2l5.6-5.5c1.6-1.6 2.5-3.7 2.5-5.9s-.9-4.3-2.5-5.9-3.7-2.5-6-2.5z" mask="url(#R)" fill="#a29181" class="h"/><defs><filter id="S" filterUnits="userSpaceOnUse" x="48" y="86" width="11" height="5"><feColorMatrix values="1 0 0 0 0 0 1 0 0 0 0 0 1 0 0 0 0 0 1 0"/></filter></defs><mask maskUnits="userSpaceOnUse" x="48" y="86" width="11" height="5" id="T"><g filter="url(#S)"><path d="M0 103h191V0H0z" class="h i"/></g></mask><path d="M58.7 89.8l-.8-.6v-2h-1.5v.9L54 86.2a.76.76 0 00-.4-.2h-.2a.76.76 0 00-.4.2l-4.8 3.7c-.3.2-.3.7-.1.9.3.3.7.3 1 .1l4.3-3.3 4.3 3.3c.3.2.8.2 1-.1.4-.3.3-.7 0-1" mask="url(#T)" class="h i"/><defs><filter id="U" filterUnits="userSpaceOnUse" x="50" y="90" width="6" height="6"><feColorMatrix values="1 0 0 0 0 0 1 0 0 0 0 0 1 0 0 0 0 0 1 0"/></filter></defs><mask maskUnits="userSpaceOnUse" x="50" y="90" width="6" height="6" id="V"><g filter="url(#U)"><path d="M0 103h191V0H0z" class="h i"/></g></mask><path d="M53 90c1.7 0 3 1.3 3 3s-1.3 3-3 3-3-1.3-3-3 1.3-3 3-3" mask="url(#V)" class="h i"/><defs><filter id="W" filterUnits="userSpaceOnUse" x="25" y="36" width="166" height="44"><feColorMatrix values="1 0 0 0 0 0 1 0 0 0 0 0 1 0 0 0 0 0 1 0"/></filter></defs><mask maskUnits="userSpaceOnUse" x="25" y="36" width="166" height="44" id="X"><g filter="url(#W)"><path d="M0 103h191V0H0z" class="h i"/></g></mask><path d="M25 80h166V36H25z" mask="url(#X)" class="h i"/><defs><filter id="Y" filterUnits="userSpaceOnUse" x="1" y="1" width="186" height="76"><feColorMatrix values="1 0 0 0 0 0 1 0 0 0 0 0 1 0 0 0 0 0 1 0"/></filter></defs><mask maskUnits="userSpaceOnUse" x="1" y="1" width="186" height="76" id="Z"><g filter="url(#Y)"><path d="M0 103h191V0H0z" class="h i"/></g></mask><path d="M140.6 15.4L122.7 2.1s-1.2-1.1-3-1.1-3 1.1-3 1.1L98.8 15.4H1V77h186V15.4h-46.4z" mask="url(#Z)" fill="#00366a" class="h"/><defs><filter id="a" filterUnits="userSpaceOnUse" x="0" y="0" width="187" height="77"><feColorMatrix values="1 0 0 0 0 0 1 0 0 0 0 0 1 0 0 0 0 0 1 0"/></filter></defs><mask maskUnits="userSpaceOnUse" x="0" y="0" width="187" height="77" id="b"><g filter="url(#a)"><path d="M0 103h191V0H0z" class="h i"/></g></mask><path d="M1.8 75.3h183.5V16h-45.6L121.5 2.6s-1-.9-2.4-.9-2.4.9-2.4.9l-.1.1L98.5 16H1.8v59.3zM187 77H0V14.3h98l17.6-13c.3-.2 1.6-1.3 3.5-1.3s3.3 1.1 3.5 1.3l17.6 13H187V77z" mask="url(#b)" class="h i"/><defs><filter id="c" filterUnits="userSpaceOnUse" x="104" y="20" width="30" height="15"><feColorMatrix values="1 0 0 0 0 0 1 0 0 0 0 0 1 0 0 0 0 0 1 0"/></filter></defs><mask maskUnits="userSpaceOnUse" x="104" y="20" width="30" height="15" id="d"><g filter="url(#c)"><path d="M0 103h191V0H0z" class="h i"/></g></mask><path d="M133.3 31.5l-2.2-1.8v-6.2H127v2.7l-6.7-5.7c-.3-.3-.7-.5-1.1-.5h-.4c-.4 0-.8.2-1.1.5l-13 11c-.8.7-.9 2-.2 2.8s1.9.9 2.8.2l11.8-9.9 11.8 10c.8.7 2.1.6 2.8-.2.5-.9.4-2.2-.4-2.9" mask="url(#d)" class="h i"/><defs><filter id="e" filterUnits="userSpaceOnUse" x="11" y="43" width="23" height="26"><feColorMatrix values="1 0 0 0 0 0 1 0 0 0 0 0 1 0 0 0 0 0 1 0"/></filter></defs><mask maskUnits="userSpaceOnUse" x="11" y="43" width="23" height="26" id="f"><g filter="url(#e)"><path d="M0 103h191V0H0z" class="h i"/></g></mask><path d="M25.2 43h-5.5l-.2.2L11 68.6l.2.4h3.9l.2-.2 2.1-6.5h10l2.1 6.5.2.2h3.9l.2-.4-8.5-25.5-.1-.1zm1 15.3h-7.4l3.7-10.8 3.7 10.8z" mask="url(#f)" class="h i"/><defs><filter id="g" filterUnits="userSpaceOnUse" x="36" y="43" width="20" height="26"><feColorMatrix values="1 0 0 0 0 0 1 0 0 0 0 0 1 0 0 0 0 0 1 0"/></filter></defs><mask maskUnits="userSpaceOnUse" x="36" y="43" width="20" height="26" id="h"><g filter="url(#g)"><path d="M0 103h191V0H0z" class="h i"/></g></mask><path d="M54.4 63.9c-.2-.9-.5-1.8-.9-2.7s-.8-1.7-1.4-2.3c-.4-.5-.9-.9-1.5-1.1 1.1-.7 1.9-1.7 2.5-3a10.73 10.73 0 00.9-3.4c.1-2.6-.6-4.7-2-6.1-1.4-1.5-3.4-2.2-6-2.2h-9.7l-.3.2v25.5l.3.3h3.6l.3-.3v-8.9h6c.8 0 1.4.2 2 .8.6.5 1.1 1.2 1.4 2a10.64 10.64 0 01.9 2.5c.3.8.5 1.6.6 2.4.2.8.4 1.3.6 1.5l.2.1h4l.2-.4c-.3-.4-.5-1.1-.8-2l-.9-2.9zm-14.3-17h5.6c1.4 0 2.4.3 3.1 1 .8.8 1.2 2 1.2 3.5 0 1.6-.4 2.7-1.1 3.4-.7.6-1.8.9-3.3.9h-5.4v-8.8z" mask="url(#h)" class="h i"/><defs><filter id="i" filterUnits="userSpaceOnUse" x="56" y="43" width="20" height="26"><feColorMatrix values="1 0 0 0 0 0 1 0 0 0 0 0 1 0 0 0 0 0 1 0"/></filter></defs><mask maskUnits="userSpaceOnUse" x="56" y="43" width="20" height="26" id="j"><g filter="url(#i)"><path d="M0 103h191V0H0z" class="h i"/></g></mask><path d="M56.3 43l-.3.3v3.5l.3.3H64v21.6l.2.3h3.6l.2-.3V47.1h7.7l.3-.3v-3.5l-.3-.3z" mask="url(#j)" class="h i"/><defs><filter id="k" filterUnits="userSpaceOnUse" x="77" y="43" width="5" height="26"><feColorMatrix values="1 0 0 0 0 0 1 0 0 0 0 0 1 0 0 0 0 0 1 0"/></filter></defs><mask maskUnits="userSpaceOnUse" x="77" y="43" width="5" height="26" id="l"><g filter="url(#k)"><path d="M0 103h191V0H0z" class="h i"/></g></mask><path d="M77.3 43l-.3.3v25.4l.3.3h4.4l.3-.3V43.3l-.3-.3z" mask="url(#l)" class="h i"/><defs><filter id="m" filterUnits="userSpaceOnUse" x="84" y="43" width="18" height="26"><feColorMatrix values="1 0 0 0 0 0 1 0 0 0 0 0 1 0 0 0 0 0 1 0"/></filter></defs><mask maskUnits="userSpaceOnUse" x="84" y="43" width="18" height="26" id="n"><g filter="url(#m)"><path d="M0 103h191V0H0z" class="h i"/></g></mask><path d="M93.7 43h-9.5l-.2.3v25.5l.3.3h3.6l.3-.3v-8.4h5.6c2.7 0 4.7-.7 6.1-2.1s2.2-3.7 2.2-6.7-.7-5.2-2.2-6.6c-1.4-1.3-3.5-2-6.2-2zm-5.6 3.9h5.4c.6 0 1.2.1 1.9.3.6.2 1.1.5 1.4.8.8.8 1.2 2 1.2 3.7 0 1.6-.4 2.9-1.2 3.7-.7.7-1.8 1.1-3.3 1.1h-5.4v-9.6z" mask="url(#n)" class="h i"/><defs><filter id="o" filterUnits="userSpaceOnUse" x="104" y="38" width="30" height="32"><feColorMatrix values="1 0 0 0 0 0 1 0 0 0 0 0 1 0 0 0 0 0 1 0"/></filter></defs><mask maskUnits="userSpaceOnUse" x="104" y="38" width="30" height="32" id="p"><g filter="url(#o)"><path d="M0 103h191V0H0z" class="h i"/></g></mask><path d="M118.9 38c-5.1.1-8.9 1.2-11.5 3.5-2.3 2.4-3.4 6.6-3.4 12.6 0 5.9 1.1 10.1 3.4 12.5 2.2 2.3 6 3.4 11.6 3.4 5.3 0 9.1-1.1 11.6-3.4 2.2-2.4 3.4-6.6 3.4-12.5 0-6-1.1-10.2-3.4-12.6-2.2-2.3-6.1-3.5-11.7-3.5m10.2 16.1c0 4-.6 6.9-1.8 8.7-1.3 2-4.1 3-8.3 3-1.9 0-3.5-.2-5-.7-1.4-.5-2.5-1.2-3.3-2.2-1.2-1.8-1.8-4.7-1.8-8.7s.7-7 1.8-8.8c1.4-2.1 4.1-3.1 8.3-3.1 3.9-.1 6.6.9 8.3 3 1.3 1.6 1.9 4.6 1.8 8.8" mask="url(#p)" class="h i"/><defs><filter id="q" filterUnits="userSpaceOnUse" x="136" y="43" width="17" height="26"><feColorMatrix values="1 0 0 0 0 0 1 0 0 0 0 0 1 0 0 0 0 0 1 0"/></filter></defs><mask maskUnits="userSpaceOnUse" x="136" y="43" width="17" height="26" id="r"><g filter="url(#q)"><path d="M0 103h191V0H0z" class="h i"/></g></mask><path d="M140.2 65V43.3l-.3-.3h-3.6l-.3.3v25.4l.3.3h16.4l.3-.3v-3.5l-.3-.2z" mask="url(#r)" class="h i"/><defs><filter id="s" filterUnits="userSpaceOnUse" x="155" y="43" width="18" height="26"><feColorMatrix values="1 0 0 0 0 0 1 0 0 0 0 0 1 0 0 0 0 0 1 0"/></filter></defs><mask maskUnits="userSpaceOnUse" x="155" y="43" width="18" height="26" id="t"><g filter="url(#s)"><path d="M0 103h191V0H0z" class="h i"/></g></mask><path d="M172.7 47.1l.3-.2v-3.6l-.3-.3h-17.4l-.3.3v25.4l.3.3h17.4l.3-.3v-3.6l-.3-.2h-13.5v-7.2h11.2l.2-.2v-3.6l-.2-.3h-11.2v-6.5z" mask="url(#t)" class="h i"/><defs><filter id="u" filterUnits="userSpaceOnUse" x="19" y="21" width="12" height="20"><feColorMatrix values="1 0 0 0 0 0 1 0 0 0 0 0 1 0 0 0 0 0 1 0"/></filter></defs><mask maskUnits="userSpaceOnUse" x="19" y="21" width="12" height="20" id="v"><g filter="url(#u)"><path d="M0 103h191V0H0z" class="h i"/></g></mask><path d="M29 33.6c-.1 0-.3.1-.6.1-.1.2-.1.5-.2.7s0 .3 0 .5c-.1.1-.1 0-.1.1-.1.8 0 1.8-.1 2.7-.2 1 .2 1.4-.3 2.5-.1.2-.1.4-.1.6-.1 0-.1.1-.2.1s-.2.1-.2.2c-.1-.1-.5-.2-.7-.3-.6-.9-.3-1.7-.3-2.7-.1-.3 0-.6 0-.9v-3.1h-.9c-.3 0-2.4.6-2.5.7-.4.7-.6 1.5-1.1 2.3a1.38 1.38 0 00-.3.4c-.2.4-.3.8-.4 1.2-.1 0 0-.1-.1-.2-.1.1-.1.2-.1.4-.1 0-.1.1-.2 0l-.1.1c-.1-.1-.3-.1-.5-.3-.2-.1-.3-.4-.3-.6s.2-1 .5-1.7c.1-.4.3-.8.6-1.3-.4-.3-.9-.5-1.2-.7-.1-.2-.6-.9-.6-1s.2-.3.3-.4c.1.1.2.1.3.1.2 0 .8-.2 1.1-.3.5 0 .8 0 1.2-.2l3.1-6.7c.2-.5.6-1.2 1.1-2.2.3-.4.8-.9 1.1-1.6.1-.2.1-.6.1-.8l.1-.1c.2 0 .2.1.4.1.1 0 .2.1.3 0 0 .1 0 .2.2.2h.1c.1 0 .5.4.6.7.2.5.2 1.6.2 1.8 0 .1-.1.5-.1.7-.1.3 0 .5 0 .8-.2 1.3-.3 2.7-.4 4l-.4 2.8h.3c.7.1 1.3.1 2 .1 0 .1 0 .2.1.2l-.1.1c0 .2.2.3.3.4-.4 0-1.2.3-1.9.5zm-1.9-8.1c-1 1.6-2.2 5.1-3 6.7.6 0 1.2.2 2.1 0l.9-6.7z" mask="url(#v)" class="h i"/><defs><filter id="w" filterUnits="userSpaceOnUse" x="32" y="29" width="7" height="10"><feColorMatrix values="1 0 0 0 0 0 1 0 0 0 0 0 1 0 0 0 0 0 1 0"/></filter></defs><mask maskUnits="userSpaceOnUse" x="32" y="29" width="7" height="10" id="x"><g filter="url(#w)"><path d="M0 103h191V0H0z" class="h i"/></g></mask><path d="M38.7 32.2c-.2 0-.5-.1-.9 0 0-.2 0-.4-.1-.7-.9.4-1.6 1.5-2.2 2.4 0-.1 0-.1-.1-.1-.1.1-.1.2 0 .3h-.1c0 .1-.1.1-.1.1 0 .1.1.1.1.2H35c-.1.1.1.1.1.2-.1.3-.3.6-.5.9 0 .1.1.1 0 .2-.1.2-.2.3-.4.5-.1.2-.1.4-.2.6-.3.6-.6 1.4-.4 2.1-.1.1-.2.1-.4.1-.1 0-.4-.2-.6-.3-.1-.1 0-.4-.2-.3-.2-.5-.4-.9-.4-1.2 0-.1.4-1.5.4-2.1.2-.9.4-1.8.4-2.7.1-.5.2-1.3.2-2 .1-.5.1-1 .2-1.4h.3c.2 0 .7.4.8.7.1.4.2.7.2 1s-.1.5-.1.8c.2-.6 1.4-1.6 2.2-1.6.6 0 1.6.4 2.1 1.1.1.1.1.3.2.5 0 .3-.3.5-.2.7" mask="url(#x)" class="h i"/><defs><filter id="y" filterUnits="userSpaceOnUse" x="40" y="21" width="9" height="18"><feColorMatrix values="1 0 0 0 0 0 1 0 0 0 0 0 1 0 0 0 0 0 1 0"/></filter></defs><mask maskUnits="userSpaceOnUse" x="40" y="21" width="9" height="18" id="z"><g filter="url(#y)"><path d="M0 103h191V0H0z" class="h i"/></g></mask><path d="M48.8 30.8c0 .1 0 .1.1.1-.1.2-.3.2 0 .4-.3.1-.6.3-.8.4 0 .1.1.1.2.2-.2.4-.7.5-1.2.6-.1.2-.4.5-.6.5-.1 0 0 0-.1-.1-.1 0-.1.1-.1.2-.5.1-1.1.3-1.7.5-.1 0 0 .1 0 .1h-.2c-.1 0-.7.2-1.1.4l-.2.3c-.2 0-.5.3-.7.4l-.4 2.4c0 .2.2 1.1.2 1.2 0 .2-.3.3-.3.5h-.4c-.2 0-.2-.3-.3-.4-.7-.7-.6-1.3-.7-1.9-.1-.4.1-1.3.1-2.5 0-.2-.7-1-.7-1.1s.1-.6.1-1c.1-.1.1-.1.1-.2.1 0 .2-.1.3-.1.2 0 0 .1.2.1.1 0 .3-.2.3-.4.3-.7.5-3 .8-4l.9-3.2a16.69 16.69 0 01.5-1.8c.2-.5.2-1.3.7-1.6a.76.76 0 01.4-.2c.2 0 .4.4.5.4h.3-.1v.1c0 .2.5.9.5 1.1 0 .1-.1.7-.3 1 0 .2.1.3.1.4l-1.5 4.7c-.1.6-.3 1.4-.5 2.1v.6c.2.1.3 0 .5 0 .1 0 .3-.1.5-.1s0 .1.2.1.4-.1.6-.1c1.1-.2 2.3-.3 3.8-.4.2.1.1.2 0 .3" mask="url(#z)" class="h i"/><defs><filter id="AA" filterUnits="userSpaceOnUse" x="50" y="25" width="5" height="14"><feColorMatrix values="1 0 0 0 0 0 1 0 0 0 0 0 1 0 0 0 0 0 1 0"/></filter></defs><mask maskUnits="userSpaceOnUse" x="50" y="25" width="5" height="14" id="AB"><g filter="url(#AA)"><path d="M0 103h191V0H0z" class="h i"/></g></mask><path d="M54.6 36.4c.1 0 .2 0 .2.1s-.2.3-.3.3c-.1.1-.1.2-.1.4-.4.2-.9.7-1.2 1.1 0 .1 0 .2-.1.3-.1.3-.6.4-.8.4-1.5.1-2.3-1.9-2.3-3 0-.3 0-1.1.2-1.6l.2-1c.2-1 .4-1.9.7-2.5v-.3c.1-.1.1-.3.3-.4.2 0 .3-.1.5-.1.3 0 .6.1.9.4s.5.6.5.9c0 .1-.1.3-.1.5 0 .1-.1.6-.2 1.1-.1.6-.2 1-.3 1.2s-.1.7-.2.9c-.3 1-.5 1.3-.3 1.9 1-.5 2.1-1.4 2.8-2.2-.3.3.1 1.1-.4 1.6m-1-8.6c-.3 0-.6-.2-.9-.3 0-.1 0-.1-.1-.2-.3-.2-.5-.8-.6-1.2-.1-.2 0-.6-.1-.8 1 .1 1.1-.2 1.7-.3.2.2.4.3.4.5.1.1 0 .5.2.7-.4.6.5 1.5-.6 1.6" mask="url(#AB)" class="h i"/><defs><filter id="AC" filterUnits="userSpaceOnUse" x="56" y="27" width="7" height="13"><feColorMatrix values="1 0 0 0 0 0 1 0 0 0 0 0 1 0 0 0 0 0 1 0"/></filter></defs><mask maskUnits="userSpaceOnUse" x="56" y="27" width="7" height="13" id="AD"><g filter="url(#AC)"><path d="M0 103h191V0H0z" class="h i"/></g></mask><path d="M62.9 29.5c.1.5 0 1.3-.2 1.8-.1.1-.3.2-.5.2-.1 0-.5-.2-.7-.4-.1.1-.2.1-.2.2-.2 1.8 0 3.7-.3 5.6-.1.9-.4 3.2-1.7 3.2-.2 0-.1-.1-.2-.1-.1-.1 0 0-.2 0-.4 0-1-.7-1.1-.7-.8-.5-1.8-2.4-1.8-3.4a3.32 3.32 0 01.5-1.5h.2c0 .1-.1.3-.1.5l.2.2c.1 0 0 .2 0 .4.1.1.2.1 0 .3.1.2.1.3.1.4.1.2.3.4.2.7l.1.1c.1-.1.2-.1.3-.1.3.5.3 1.1.7 1.4.3-.3.5-.7.6-1 .6-1.4.4-3.9.4-5 0-.4.2-.8.2-1.2 0-.1-.1-.3-.1-.4 0-.3.1-.6.1-1.1 0-.3.1-2.5.7-2.5.2 0 .2 0 .3.1.4-.1.8.1 1.2.4s.8.5 1 .8v.3c.2.1.4.5.4.7l-.1.1zm-5.5 7.2l-.1-.4h.1v.4z" mask="url(#AD)" class="h i"/><defs><filter id="AE" filterUnits="userSpaceOnUse" x="64" y="29" width="11" height="10"><feColorMatrix values="1 0 0 0 0 0 1 0 0 0 0 0 1 0 0 0 0 0 1 0"/></filter></defs><mask maskUnits="userSpaceOnUse" x="64" y="29" width="11" height="10" id="AF"><g filter="url(#AE)"><path d="M0 103h191V0H0z" class="h i"/></g></mask><path d="M74.6 36.7c-.1.1-.2.2-.1.3-.2.2-.6.5-.9.8 0 0 .1.2.2.2-.5.1-1.3.8-1.5.8h-1c-1 0-1.9-2-1.9-2.2 0-.3 0-.8-.1-1.2l-.8 1.3c-.3.4-1.5 2.2-2.2 2.2-.1 0-.4.1-.5.1-.8 0-1.1-.5-1.5-.9 0-.2-.2-.6-.2-.7 0-1.5 1.9-4.8 2.8-5.9.2-.2.6-.7 1-.9.2-.1.5-.4.7-.6.1-.1 0-.1 0-.2.2-.1.4 0 .5-.1l.3-.3h.2c.2.1.3.2.4.2h.4c.3-.3.1-.5.4-.5.2 0 0 .2.2.2s0-.1.1-.1c.3 0 .9.3 1.1.5.1.1.2.5.1.6 0 .1.1-.1.1.1s-.5 1.8-.7 2.7c-.3 1.3-.5 3.7-.5 3.9 0 .1.1.5.1.8.3.1.5 0 .7 0 .4 0 3-1.3 3.2-1.3-.3-.1-.6 0-.6.2m-5.1-5.1c-.1-.1 0-.2 0-.3-.8 1-2.6 1.9-3.4 5.1l1.2-.5c1.5-1.6 2.2-4.3 2.2-4.3" mask="url(#AF)" class="h i"/><defs><filter id="AG" filterUnits="userSpaceOnUse" x="75" y="28" width="10" height="12"><feColorMatrix values="1 0 0 0 0 0 1 0 0 0 0 0 1 0 0 0 0 0 1 0"/></filter></defs><mask maskUnits="userSpaceOnUse" x="75" y="28" width="10" height="12" id="AH"><g filter="url(#AG)"><path d="M0 103h191V0H0z" class="h i"/></g></mask><path d="M84.8 37c-.1.1 0 .2 0 .2l-.2.2s.1.1.2.1c0 .1-.1.1-.1.1-.1.1 0 .3-.2.4.1.1 0 .3.1.4-.1.1-.3.2-.3.4-.1.2-.5.4-.7.6-.2.1-.3.4-.4.5h-.9c-.2 0-1.3-.6-1.4-.9-.3-.7-.7-1.5-.7-2.3-.1-.5-.1-1.5-.1-2.2-.1 0 0-.1 0-.1l-2 2.8v.2c-.2.4-.4.9-.7 1.3-.2.3-.7.8-.8.9-.2 0-.3-.2-.4-.2-.2 0 0 .1-.1.1-.6.1-.7-1.2-.7-1.3-.3-.2-.4-.3-.4-.6 0-.1.2-.9.2-1.4.1-.2.2-.6.3-.8.1-.4.1-.8.2-1.2l1.7-5.1v-.5c.2-.2.5-.5.6-.5.1.2.2.3.4.5.1-.1.1-.3.1-.4.2.1.3.3.6.4 0 .1-.1.3 0 .4.1 0 0 0 .1-.1v.3c0 .2-.1.4-.2.6-.1.4-.1 1.1-.2 1.6 0 .2-.1.2-.1.3-.1.4-.2.7-.1 1.1.3-.4.9-1.4 1.3-1.6.2-.1.5 0 .7-.2.2.1.2.2.3.4.1-.1.2-.1.3-.2.1 0 .4.3.6.5v.1c0 .1.1.1.1.1.5 1.2.4.7.5 1.4.1.2-.1 2.2 0 3.2-.1.4 0 .9 0 1.4.1.1.2.1.3.1.4 0 1.2-.7 1.6-.9s-.1 0 0 .1v.1h.1c.2 0 .5-.4.8-.6-.3-.1-.3.1-.4.3zm-3.6-5.6v-.1H81v.1h.2z" mask="url(#AH)" class="h i"/><defs><filter id="AI" filterUnits="userSpaceOnUse" x="87" y="27" width="7" height="13"><feColorMatrix values="1 0 0 0 0 0 1 0 0 0 0 0 1 0 0 0 0 0 1 0"/></filter></defs><mask maskUnits="userSpaceOnUse" x="87" y="27" width="7" height="13" id="AJ"><g filter="url(#AI)"><path d="M0 103h191V0H0z" class="h i"/></g></mask><path d="M93.9 29.5c.1.5 0 1.3-.2 1.8-.1.1-.3.2-.5.2-.1 0-.5-.2-.7-.4-.1.1-.2.1-.2.2-.2 1.8 0 3.7-.3 5.6-.1.9-.4 3.2-1.7 3.2-.2 0-.1-.1-.2-.1-.1-.1 0 0-.2 0-.4 0-1-.7-1.1-.7-.8-.5-1.8-2.4-1.8-3.4a3.32 3.32 0 01.5-1.5h.2c0 .1-.1.3-.1.5l.2.2c.1 0 0 .2 0 .4.1.1.2.1 0 .3.1.2.1.3.1.4.1.2.3.4.2.7l.1.1c.1-.1.2-.1.3-.1.3.5.3 1.1.7 1.4.3-.3.5-.7.6-1 .6-1.4.4-3.9.4-5 0-.4.2-.8.2-1.2 0-.1-.1-.3-.1-.4 0-.3.1-.6.1-1.1 0-.3.1-2.5.7-2.5.2 0 .2 0 .3.1.4-.1.8.1 1.2.4s.8.5 1 .8v.3c.2.1.4.5.4.7l-.1.1zm-5.5 7.2l-.1-.4h.1v.4z" mask="url(#AJ)" class="h i"/></svg>