<svg version="1.1" id="Calque_1" xmlns="http://www.w3.org/2000/svg" x="0" y="0" viewBox="0 0 648 458" xml:space="preserve"><style>.st1,.st2{fill-rule:evenodd;clip-rule:evenodd;fill:#fff}.st2{fill:#a29181}.st3{enable-background:new}.st4{fill:#fff}</style><circle cx="375" cy="263" r="170" fill-rule="evenodd" clip-rule="evenodd" fill="#001121"/><path class="st1" d="M186.7 439.6c1.9 1.1 3.5-.1 6.1-2.1 2.3-1.8 4.8-3.9 8-3 2.1-2.9 3.6-8.7 2.9-11.8-.1-.2 0-.5.1-.7l4.4-9.1c.2-.4.7-.6 1.1-.5 3 .6 9.1 2.8 11.5 6.5 1-.4 2.3-1.5 3.4-2.4 2-1.7 3.8-3.2 5.4-2.4 1.1.5 1.6 2 1.5 4.8 2.2.7 3.7.9 4.4.6.5-.3.7-.9 1-1.9 1-3.2 2.5-5.9 10.4-5.1.4 0 .7.3.8.6 1.7 3.9.5 5.7-.3 6.9-.5.8-.5.9-.3 1.2.4.8 1.8 2 4.3 3.7.3.2.5.6.4 1-.1.6-.2 1.3-.4 1.8-1.3 6.3-1.5 7.7 5.2 9.2l9.1-23.5 1.7-4.2c-.9-4.5 1.2-11.3 4.4-14.5v-.9c-.1-3.3-.3-8.6 3.1-10.3l2-11.2c.1-.4.3-.7.7-.8 6.7-2.2 13.2-.2 18.9 5.7 1.9-1.7 5.1-3.8 8.7-5.1 4.7-1.7 8.4-1.3 10.8 1.1.2.2.3.4.3.7-.2 4.5 4.1 7.7 8 10 2.4-.6 3.9-.6 4.9.1 1.2.9 1.3 2.5 1.4 4.6 0 .7 0 1.4.1 2.2 1.7 1 7.7 4.3 8 4.4l.1.1c.3.2.5.7.4 1.1-.6 2.4 2 7.5 3.8 10.9.1.2.2.3.3.5.1-.5.2-.9.2-1.3.2-1.4.3-2.4 1.3-2.6 1.1-.2 1.7.7 3.6 4.3l3-.9c.4-.1.7 0 1 .3s.4.7.2 1l-2.5 7.7c1.7 2.1 4.1 2.8 7.1 2.2 6.6-1.3 13.5-8.3 14.6-13.1.1-.3.3-.5.5-.7.3-.1.6-.2.8 0 8.5 3.5 12.4 6 13.6 15.5 4.7-3.7 12.1-2.2 17.7-1.1l.5.1c2.9-1.8 7.3-5.7 6.6-9.3-.1-.4.1-.8.4-1s.7-.3 1.1-.1c.6.3 1.2.4 1.7.3 1.3-.5 2.3-2.8 3.1-4.7.8-1.8 1.4-3.3 2.4-4l5-3.5c.3-.2.5-.4.7-.5.3-.5.7-1.1 1.1-1.7 2.5-4.1 7.3-11.8 5.6-15.7-.1-.3-.1-.6.1-.9 1-1.6 2.2-3.2 3.4-4.7 4.1-5.4 7.7-10 1.8-15.4-.2-.2-.4-.5-.3-.8 0-.3.2-.6.5-.8 4.6-2.8 8.5-7.2 12.8-11.9 5.5-6 11.1-12.2 18.2-15v-2.8c0-.2 0-.4.1-.6.3-.5.9-.6 1.4-.3 1.7 1 5.1-2.6 7.6-5.1 1.5-1.6 2.9-3 4.1-3.8-2.4-5.3-1-14.7 1.1-19.5-1.5-2.9-2.8-8.2-2.2-11.1 0-.2.1-.3.2-.5l5.9-7 .3-.3c.5-.3 1-.1 1.3.3 1 1.7 7-1 10.5-2.5 2.9-1.3 4.8-2.1 6.2-2.3 3.3-6.2 6.7-9.6 10.3-10.4-1.2-1.9-2-3.8-1.4-5.6.5-1.7 2.1-3 5-4.1 1-3.3 4.3-5.2 7.4-6.9 4.1-2.3 7.6-4.2 6.5-8.8-.1-.3 0-.6.2-.9 2-2.3 4.2-4.1 6.2-5.7 5.9-4.8 9.4-7.7 3.4-16.6-.2-.3-.2-.8 0-1.1s.6-.5 1-.5c8.6 1.1 9-.7 9.4-2.5.4-2.1 1.2-3.9 5.8-3.5.5-1.4-.5-3.5-1.2-5.2-.2-.5-.4-1-.6-1.4l-19.4 3.1h-.4c-.4-.1-.7-.5-.7-1 0-.3 0-.6.3-.7.4-.6.9-1.4 1.4-2.2 2.3-3.5 6.6-9.9 5.7-12.9-.1-.5.1-1 .5-1.2 6.4-2.9 7-3.1 4.5-9.3-.1-.3-.1-.5 0-.8.1-.2.3-.4.6-.5 3.4-1.2 10.3-2.2 14.7-.2 3.3-2 5.6-3.8 5-7.3-5.1-2.6-5.3-5.7-4.7-7.7-.4-.3-.7-.6-1-1-1.9-1.8-3.8-3.5-5.5-3.3-1 .1-1.9.8-3 2.2-.2.3-.6.4-.9.4-.4 0-.7-.3-.8-.6-1.8-4.7-1-10.3 1.9-13.9-.2-1.6 0-4 .1-6.5s.3-5.4.1-6.9c-.7-.3-1.5-.7-2.4-1.1-7.4-3.6-20.8-10-23.5-16.3-1.3.5-2.4.6-3.5.2-2.1-.7-3.2-3.1-4.3-5.5v-.1l-17.9-10.1s-.1 0-.1-.1c-.3-.2-.5-.6-.4-1 .4-2.4-3-4.5-5.8-6.2-.9-.5-1.7-1-2.4-1.5l-5 8.5c-.2.4-.4.7-.8.9-3.6 1.9-6 2.5-7.7 1.9-1.9-.7-2.6-2.5-3.3-4.4-.9-2.3-1.8-4.7-4.9-5.7-.1 0-.2-.1-.3-.1-5-3.5-7.7-3.7-10.1-.8-.3.4-.8.5-1.2.3-3.8-1.8-10.2.9-13 3.6-.3.3-.7.4-1.1.2-8.1-3.8-8.8-6.4-9-10.3-.1-2.1-.2-4.2-2.6-7.2-7.7-1.1-13 7.4-16.2 12.5-.1.2-.2.3-.4.4l-1.4.7c-4.1 2-5.7 2.7-6.8 1.8s-.6-2.6.7-7.2l.1-.3c-3.5 1.3-6.5 10.3-7.5 13.4-.2.5-.3.9-.4 1.3-.1.3-.3.5-.6.6-4.9 1.9-7.3 3.8-6.1 8.8.1.4-.1.8-.3 1-.3.2-.7.3-1 .1-3.2-1.4-7.9-1.2-10.2 1.3.9 2 1 3.4.4 4.4-1 1.5-3.3 1.4-5.5 1.2-.4 0-.9-.1-1.4-.1-2.4 3.8-.9 6.4 2.5 9.7.3.3.4.8.2 1.2-2.8 5.5-2.6 8.3-2.4 10.1.3 3.9-.5 4.4-12.9 8.3-.5.2-1-.1-1.2-.6-1.5-3.7-2.2-5-2.6-5.5-.2.2-.4.6-.6.9-1.5 2.3-4.3 6.6-12.4 3.4-.3.5-.8.9-1.3 1.1-2.1 1.1-5.3.6-6.8.2-.3.9-.7 2.3-1 3.7-1.6 6.4-3.1 11.4-6.1 11.8-1.4.2-2.9-.7-4.3-2.9-.3.3-.6.5-1 .8-4.8 4-8 6.4-9.9 5.1-1.3-.9-1.2-3.1.3-7.3-3.4-2.3-9-6.2-10.2-10.9-4.6 5.3-8 3.9-14.3 1.5l-.8-.3c-.5-.2-.8-.7-.6-1.2.8-2.4-1.3-4.7-3.3-6.6-2 2.8-4.5 4.8-8.9 2.2-.3-.2-.4-.4-.5-.7 0-.3 0-.6.2-.8 2.5-2.7 1.5-7.5.5-10.3-4.7-1.9-6.6-3.3-6.6-4.9 0-1.8 2-2.7 4.6-3.9 2-.9 4.1-1.9 5.5-3.3l-3.5-3.5c-.8-.8-1.3-1.3-1-1.9.4-3.6-.3-3.9-1.3-4.4-1.8-.8-3.5-2-4-7.1-1.6-1.2-3-2.2-3.7-2s-1.6 1.9-2.1 3.1c-.2.4-.6.6-1 .6-1.7-.1-2.8-.7-3.4-1.7-.9-1.6.2-3.8 1.2-5.8.5-1.1 1.1-2.2 1.3-3-.1-2.3-2.2-2.6-5.5-2.9-1.2-.1-2.4-.2-3.3-.5-.3-.1-.6-.4-.7-.7-.1-.3 0-.7.3-.9 1.5-1.5 2.2-2.5 2.1-3.2 0-.8-.9-1.7-2.2-3-.5 0-1.1.1-1.7.2-3 .5-7.5 1.1-8.9-2.1l-16-2.5c-1.8 2.6-3.1 7.7-2.5 10.6.1.3 0 .6-.2.8s-.4.4-.7.4c-.6.1-1.5.2-2.6.3-7.1 1-14.2 1.8-16.8-.7l-13.1 1.6v6c-.1.5-.6.8-1.1.7-4.6-.5-8.4-3.1-10.7-7.4-1.1 3.7-1.5 4.3-2.4 4.5-.8.2-1.3-.4-1.7-.9s-.8-1-1.6-1c-1 0-3 .6-6.7 4.1-.2.2-.6.3-.9.3-.3-.1-.6-.3-.7-.6-.8-2-1.6-3.1-2.4-3.4-.9-.3-2.3.5-3.8 1.5-1 .7-2.2 1.4-3.5 2-.2.1-.3.1-.5.1-2-.3-5.1-.4-8.1-.5-2.8-.1-5.4-.2-7.3-.4-.3 0-.5-.2-.7-.4s-.2-.5-.2-.8c.6-3.7-.6-10.6-1.9-11-.2-.1-1.1.3-2.4 2.8-.2.3-.5.5-.8.5s-.7-.1-.9-.4l-.3-.3c-1.5-1.9-2.6-3.2-2.4-4.8.1-1 .8-2 2.1-3.1-2.6-4-7-11.3-9.2-15.5-.4-.4-.8-.8-1.3-1.2-3.1-2.8-7.6-6.9-6.5-11-.7-.6-1.5-1-2.1-.9-1.3.1-2.7 1.7-4 3.2-.9 1.1-1.8 2.2-2.8 2.9-.4.3-1 .2-1.4-.2-.6-.7-1.2-1.7-1.8-2.8-2.6-4.4-4.8-7.6-8-6-.4.2-1 .1-1.2-.3-.3-.4-.3-.9 0-1.3 6.2-7.2 6.1-16.8-.4-22.8l-.1-.1c-.9-1.1-1.8-2.3-2.7-3.4-4.8-6.2-8.9-11.5-17.9-9.1-.3.1-.7 0-.9-.2-.3-.2-.4-.5-.3-.9.1-.8.4-3.1-.1-3.6-.4-.4-1.7-.3-3.3-.2h-.3V7c0 .3-.1.6-.3.8-.3.3-.7.3-1.1.2-5.8-2.2-14.4-3-19.1-.3-.3.2-.7.2-1.1 0C47.3 4.4 39 6.5 33 8c-.6.1-1.1.3-1.7.4.1 2.7-1 6.8-3.1 9 4.5 8.3.6 17-11.4 25.4 8.3 4.5 10.8 9.9 13.4 15.6 2.1 4.6 4.2 9.3 9.6 14.2.3.3.4.7.3 1.1s-.5.6-.9.6h-.7c3.3 8.3-1.9 13-7 17.5-3.4 3.1-7 6.2-8.3 10.6 2.1.6 4 2.5 4.4 4.5.3 1.6-.4 2.9-1.9 3.7.6 4.1-.1 7.4-2.3 9.8-4.2 4.6-12.6 4.6-19.8 3.9-1 4.6-1.5 7.5-.8 9.3.7 1.7 2.7 2.8 8 4.5.3.1.5.3.6.5.1.3.1.6 0 .8-1.1 2.4 2.6 5.5 4.5 7.2.3.3.6.5.8.7.3.3.4.7.3 1-.1.4-.4.6-.8.7-1.3.2-1.5 1.6-1.7 4-.1 1.1-.2 2.1-.5 2.9.1.1.1.2.2.2 1.7 2.5 4.5 6.7 3.1 9.4-.2.3-.5.5-.8.5-.4 0-1 .1-1.7.1-3.2.3-9.3.8-12.2 1.7 1.5 2.4 2.9 4.4 4.1 6.2 8.2 12.2 9.4 14.8-1.3 31.8 14.8 12 15.7 18.5 17.4 30.1.6 4.3 1.3 9.2 2.8 15.4.1.2 0 .4-.1.7-2.3 5 1.4 9.9 5.7 14.5.3.3.4.8.1 1.2-1.8 3.1-1.7 8.3.3 11.6.2.4.2.9-.1 1.2-5.6 6.3-3.9 13.7-1.9 19.5 0 .1.1.3.1.4-.3 3.5-1.9 10-5.1 13.2 1.6 5.3 4.7 11.4 10.1 11.6.3 0 .6.2.7.4 5.1 6.5 7.9 9.3 9.6 9.5.8.1 1.6-.5 2.9-1.5 2-1.6 5-4.1 11.1-4.5.5 0 .9.3 1 .7.9 2.9 2.6 4.6 4.5 4.7 2.2.1 4.4-1.8 5.7-4.8.1-.4.5-.6.9-.6 3.4-.2 6.5 1.3 8.3 3.8 1.5 2.2 1.9 5 .9 7.8l1.8 1.8 6.9-6.9c.3-.4.9-.4 1.3-.1.6.4 1.6 1.1 2.1.6.8-.9.7-4.2-.5-5.6-.3-.3-.3-.8-.1-1.1.2-.4.6-.5 1-.5 2.1.4 3.6.2 4.2-.4.8-.7.5-2.4.4-3.7-.2-1.5-.4-2.9.7-3.5 1.1-.7 2.9 0 6.9 2.8.4.3.5.8.4 1.2-1.8 4.4 2.6 8.9 6.1 12.5.8.8 1.6 1.6 2.2 2.4.1.2.2.4.2.6.4 6 1.7 8 2.9 9.8 1.6 2.5 2.9 4.6 1.9 13.8l6.1 3.6c.3.2.5.3.7.4 2.3-1.3 4.9-1.4 6.9-.1s3 3.6 2.7 6.3l2.4 1.4 3.3-2.3c.3-.2.7-.2 1.1 0l11.5 6.8c.1.1.3.2.3.3.2.3.2.7.1 1-3.4 7.1-2.6 11.9-1.6 17.8.5 2.8 1 5.8 1.1 9.3 0 .3-.1.7-.4.8-.3.2-.6.2-.9.1-3.3-1.3-4.7.4-7.1 3.8-.2.2-.4.4-.6.4-2 .4-4 .9-4.4 1.6s.3 2.4 1.2 4.8l.2.5c.1.2.1.5 0 .7-1.2 3.2-2.4 6.5-1.8 7.5.5.7 2.5.9 5.4 1.2l2.6.3c.4 0 .7.3.9.7 1.4 4.7 3 6.9 5.3 6.9 2.6-2.8 10.1-5 13.5-4.7.4 0 .7.3.8.6 1.5 3.5 2.8 4.3 6.1 3.6.2-.2.3-.5.5-.7 1.3-1.8 2.8-3.9 4.8-4 1.1 0 2.2.5 3.2 1.5 2.6-.5 3.8-.6 4.6.2.6.9.3 2.1-.5 4.9m1.5 2.4c-1 0-2.1-.4-3.2-1.2-.3-.2-.5-.7-.3-1.1l.1-.5c.4-1.3.7-2.6.7-3.1-.5 0-1.8.2-3 .4h-.2c-.3.1-.7-.1-.9-.3-.7-.9-1.4-1.3-2-1.3-1.1 0-2.3 1.7-3.3 3.1l-.8 1.1c-.1.2-.3.3-.6.4-4.4 1-6.7-.1-8.5-4.1-3.2 0-9.8 2.1-11.5 4.3-.2.2-.4.4-.7.4-4.8.4-6.8-5-7.6-7.7-.7-.1-1.3-.1-1.9-.2-3.7-.3-5.9-.5-6.9-2.1s-.4-4 1.5-8.9l-.1-.2c-1.2-3.2-1.9-4.9-1-6.4.7-1.3 2.5-1.9 5.4-2.5 1.9-2.7 4-5.3 7.7-4.6-.2-2.8-.6-5.3-1-7.6-1-5.9-1.8-11 1.4-18.2-1.3-.7-4.1-2.4-10.1-5.9L138 378c-.3.2-.7.2-1.1 0l-3.5-2.1c-.4-.2-.6-.6-.5-1 .4-2.2-.3-4.1-1.7-5-1.5-.9-3.4-.8-5.2.4-.3.2-.7.2-1 .1h-.1c-.3-.2-7.9-4.7-7.9-4.7-.3-.2-.5-.6-.5-1 1.1-9-.1-10.8-1.5-13.1-1.2-2-2.7-4.2-3.1-10.4-.6-.6-1.2-1.3-1.9-2-3.6-3.6-8.4-8.6-6.8-13.9-2.5-1.7-3.5-2.1-4-2.2 0 .4.1 1 .1 1.4.2 1.7.6 4-.9 5.5-.9.8-2.2 1.2-4 1.1.8 2.2.8 5.1-.6 6.4-.6.6-1.9 1.4-4 .1l-7.1 7c-.4.4-1 .4-1.4 0l-2.9-2.9c-.3-.3-.4-.7-.2-1.1 1-2.3.9-4.6-.4-6.5s-3.5-2.9-5.9-3c-1.6 3.4-4.4 5.5-7.3 5.4-2.6-.1-4.8-2-6.1-5.3-4.9.5-7.4 2.5-9.2 4-1.4 1.1-2.6 2.1-4.3 1.9-2.4-.3-5.1-2.8-10.7-9.9-6.5-.6-9.9-7.7-11.6-13.6-.1-.4 0-.8.3-1.1 2.9-2.3 4.6-8.4 4.9-12-2.2-6.1-3.8-14 1.9-20.8-1.9-3.6-2-8.8-.3-12.3-3.1-3.3-8.4-9.3-5.7-15.8-1.5-6.1-2.2-11-2.8-15.2-1.7-11.7-2.5-17.5-17.3-29.4-.4-.3-.5-.9-.2-1.3 10.8-17.1 9.6-18.9 1.8-30.4L.5 168c-.5-.2-.5-.4-.5-.7.1-.3.2-.5.5-.6 2.4-1.3 8.5-1.9 14-2.3.4 0 .7-.1 1-.1.2-1.8-2.1-5.3-3.1-6.9-.2-.3-.3-.5-.5-.7-.2-.3-.2-.7 0-1.1.3-.5.4-1.5.5-2.6.1-1.7.3-3.9 1.8-5.1-2.2-1.9-5.5-5-5-8.2-4.6-1.6-7.2-2.9-8.3-5.3-1-2.5-.3-5.8.9-11.4.1-.5.6-.8 1.1-.8 6.3.6 15.2 1 19-3.2 1.8-2 2.4-5 1.6-8.8-.1-.5.2-1 .7-1.1 1.4-.5 1.4-1.2 1.3-1.8-.2-1.4-2-3-3.6-3h-.1c-.3 0-.6-.1-.8-.4-.2-.2-.3-.5-.2-.8 1.1-5.6 5.2-9.2 9.2-12.7 5.3-4.7 9.8-8.7 5.9-16.6-.2-.4-.1-.8.2-1.2.1-.1.2-.2.5-.2-4.5-4.6-6.5-9.1-8.3-13.1-2.7-5.9-5-11.1-13.9-15.4-.3-.2-.5-.5-.6-.8 0-.4.1-.7.4-.9C22.9 36.5 32 27.6 26 17.8c-.3-.4-.2-1 .3-1.3 1.9-1.4 3.3-6.1 2.9-8.5-.1-.5.2-1 .8-1.1l2.5-.6c6.2-1.6 14.6-3.8 20.3-.4 4.9-2.5 12.7-2 18.4.1V1.8c0-.5.4-1 1-1 .4 0 .8 0 1.2-.1 2.4-.1 3.9-.2 4.9.8.7.6.8 1.8.7 3.6C88.4 3.2 92.9 9 97.6 15.2c.8 1.1 1.7 2.2 2.6 3.3 6.6 6.2 7.3 15.6 2.2 23.3 3.5.3 6 4.4 7.7 7.4.4.6.7 1.2 1 1.7.5-.5 1.1-1.2 1.7-1.9 1.6-1.9 3.2-3.8 5.4-3.9 1.3-.1 2.7.6 4 2 .3.3.4.7.2 1.1-1.3 3 3.1 7 5.8 9.4.6.5 1.1 1 1.5 1.4.1.1.1.2.2.2 2.3 4.3 7.1 12.4 9.6 16.2.3.4.2 1-.2 1.3-1.3 1-2 1.8-2 2.4-.1.6.5 1.5 1.3 2.5.9-1.4 2.3-3.1 4.1-2.5 3 1 3.6 8.6 3.4 12.2l6.1.3c2.9.1 6 .2 8.1.5 1-.5 2-1.1 3-1.7 1.9-1.2 3.7-2.4 5.5-1.8 1.2.4 2.2 1.4 3 3.2 2.9-2.6 5.2-3.8 7.1-3.7 1.4.1 2.2.8 2.7 1.4.5-1.2 1.2-3.8 1.6-5.2.1-.4.5-.7.9-.7s.9.3 1 .7c1.7 4.6 4.9 7.6 9.1 8.4v-5.4c0-.5.4-.9.9-1l14.5-1.8c.4 0 .7.1.9.4 1.6 2.3 11.2 1 15.3.4.6-.1 1.2-.2 1.7-.2-.3-3.6 1.2-8.9 3.4-11.6.3-.5.5-.5 3.7 0l14.5 2.2c.4.1.7.3.8.7.6 2.1 3.4 1.8 6.8 1.3.9-.1 1.7-.3 2.3-.3.3 0 .5.1.7.3 2.1 1.9 3.2 3.2 3.2 4.7 0 1.1-.5 2.1-1.5 3.2.4 0 .8.1 1.2.1 3.1.2 7.3.6 7.4 4.9v.2c-.2 1.1-.8 2.4-1.5 3.7-.7 1.4-1.6 3.2-1.2 3.9.1.3.5.4 1.1.6.9-1.9 1.9-3.2 3.1-3.5 1.6-.4 3.3.8 5.7 2.6.2.2.4.4.4.7.4 4.8 1.6 5.3 2.8 5.9 1.7.8 2.9 1.7 2.5 6.2l4.7 4.7c.4.3.4.9.1 1.3-1.6 2.1-4.5 3.5-6.9 4.6-1.3.6-3.4 1.6-3.5 2.1 0 .1.2 1.1 5.8 3.3.3.1.5.3.6.6 1 2.9 2.3 8.1 0 11.7 2.4 1 3.8.1 5.9-3.1.2-.3.4-.4.7-.5.3 0 .6.1.8.3l.4.3c2.1 2 5.1 4.8 4.5 8.3 6.9 2.7 9 3.6 13.6-2.9.3-.4.8-.5 1.2-.3s.7.6.6 1.1c-.9 4.7 5.9 9.3 9.6 11.8l.6.4c.4.3.5.7.4 1.2-1.8 4.9-1.3 5.7-1.2 5.7 1.1.3 5.7-3.6 7.5-5 .7-.6 1.3-1.1 1.9-1.5.2-.2.5-.3.8-.2s.5.2.7.5c1.1 1.9 2.2 3 2.9 2.9 1.9-.3 3.5-6.8 4.4-10.3.6-2.2 1-3.9 1.5-4.8.2-.4.7-.7 1.2-.5 1.7.5 4.7 1 6.2.2.4-.2.7-.5.8-1 .1-.3.3-.5.5-.6.3-.1.6-.1.8 0 7.2 3.2 9.3 0 10.8-2.3.7-1 1.3-2 2.4-1.9 1.2.1 2.1 1.4 4 6 5.3-1.7 8.4-2.7 9.7-3.6 1-.6 1-.9.8-2.3-.2-1.9-.4-5 2.3-10.6-3.1-3.1-5.7-6.8-2-12.2.2-.3.5-.4.8-.4.7 0 1.3 0 2 .1 1.4.1 3.4.2 3.7-.3.1-.1.4-.8-.8-3-.2-.3-.1-.7.1-1 2.4-3.3 7.4-4 11.3-3-.5-5.6 3.3-7.7 7.2-9.3.1-.2.2-.5.3-.8 1.7-5.1 5.3-15.8 11-14.9.3 0 .5.2.7.5.2.2.2.5.1.8l-.5 1.7c-.6 2.1-1.2 4.1-1.2 5 .8-.2 2.6-1 4.5-1.9l1.2-.6c3.3-5.3 9.4-14.7 18.5-13.1.2 0 .5.2.6.4 3 3.7 3.1 6.5 3.2 8.7.2 2.9.3 5 7.3 8.4 3.2-2.8 9.5-5.4 14-3.8 4.3-4.6 9.7-.8 12.2.9 3.8 1.4 5 4.4 6 6.8.7 1.8 1.2 2.9 2.1 3.2 1.1.4 3.1-.2 6-1.7l5.7-9.7c.2-.3.4-.5.7-.5s.6.1.8.3c.5.6 1.7 1.3 2.9 2 3.1 1.9 6.9 4.1 6.8 7.6.5.3 1.2.7 2.3 1.3l15.4 8.7c.2.1.3.3.4.5l.2.4c.9 2.1 1.8 4 3.1 4.5.8.3 1.7.1 3-.6.3-.1.6-.2.9 0 .3.1.5.4.6.7 1.2 5.7 15.8 12.7 22.8 16.1 1.1.5 2.1 1 2.8 1.4.3.1.5.4.5.7.4 1.7.2 4.7.1 7.9-.1 2.6-.3 5.2-.1 6.5 0 .3 0 .6-.2.8-2.7 3-3.1 7.2-2.4 10.5 1-1 2-1.5 3.2-1.6 2.6-.2 4.8 1.8 7 3.8.5.5 1 .9 1.5 1.4.3.3.4.8.3 1.2-.4.9-1.5 3.5 3.9 6 .3.1.5.4.5.7 1.3 5.7-3.1 8.3-6.4 10.2-.3.2-.7.2-1 0-3-1.6-8.6-1.4-12.6-.2 2.4 6.5.8 7.8-5.2 10.5.4 3.9-3.5 9.8-6.1 13.8-.1.2-.2.3-.3.5.3 0 .6-.1 1-.2l17.1-2.7c.5-.1 1 .2 1.1.7s.5 1.2.8 2c1.1 2.4 2.4 5.3.8 7.7-.2.3-.6.5-1 .4-3.8-.4-4 .4-4.3 1.8-.6 2.7-1.7 4.9-9.5 4.3 5.3 9.1.5 13-4.9 17.4-1.9 1.6-3.8 3.2-5.6 5.1 1 5.7-3.6 8.3-7.6 10.5-3.1 1.7-6 3.3-6.6 6.1-.1.3-.3.6-.6.7-2.5.9-3.9 1.9-4.2 3s.3 2.7 2.1 5.2c.2.3.2.7.1 1-.2.3-.5.5-.9.5-3.5 0-7.1 3.4-10.6 10-.2.3-.5.6-.9.5-1 0-3.5 1.1-6 2.2-4.7 2.1-9.6 4.3-12.1 2.7-.1.1-.1.2-.2.3l-4.8 5.7c-.3 2.6.9 7.7 2.3 9.9.2.3.2.6 0 1-2.3 4.5-3.6 14.5-.9 19 .2.3.2.6.1.9s-.4.5-.7.6c-.9.3-2.7 2.1-4.3 3.8-2.7 2.8-5.6 6-8.3 6h-.2v2.2c0 .4-.3.8-.7.9-7 2.4-12.6 8.7-18 14.7-3.8 4.2-7.8 8.6-12.1 11.5 5.9 6.3 1.5 12.1-2.5 17.2l-3 4.1c1.6 4.9-3 12.5-5.9 17.1-.4.7-.8 1.3-1.1 1.8l-.3.3c-.1.1-5.9 4.1-5.9 4.1-.5.4-1.2 1.9-1.7 3.2-1 2.4-2.2 5-4.3 5.8-.5.2-1.1.2-1.7.2-.2 4-4.2 7.8-7.9 10-.2.1-.5.2-.7.1l-.8-.2c-5.7-1.2-13.5-2.7-17.3 1.9-.3.3-.7.4-1.1.3s-.7-.5-.7-.9c-.8-9.8-3.7-12.2-11.6-15.5-2 5.7-9.4 12.2-15.8 13.5-4 .8-7.3-.4-9.5-3.4-.1-.2-.2-.4-.2-.6 0-.1 0-.2 2.1-6.7l-2 .6c-.5.1-1-.1-1.2-.5-.5-1-1-2-1.6-2.9-.2 1.1-.4 2.6-1 4-.2.4-.5.6-.9.6s-.8-.2-.9-.6c-.4-.9-.9-1.8-1.4-2.7-2-3.8-4.4-8.4-4.1-11.5-.2-.1-.4-.2-.7-.4l-7.2-4c-.3-.2-.5-.4-.5-.8-.1-1-.1-2-.2-2.8-.1-1.5-.1-2.7-.6-3.1-.3-.2-1.2-.4-3.6.3-.3.1-.5 0-.8-.1-4.3-2.6-9.3-6.2-9.3-11.6-2.3-2-5.8-1.3-8.4-.4-3.5 1.3-6.9 3.6-8.7 5.4-.2.2-.4.3-.7.3-.3 0-.5-.1-.7-.3-3.6-4-9.4-8.2-16.9-6.1l-2 11.1c-.1.4-.3.7-.7.8-2.5.8-2.4 5.7-2.3 8.6v1.4c0 .3-.1.6-.3.8-2.9 2.6-5 9.1-4.1 13.1v.6c-.2.4-11.1 28.5-11.2 28.8-.2.5-.7.7-1.1.6-4.7-1-6.9-2.1-7.8-3.9-1-1.9-.5-4.2.2-7.8.1-.4.2-.8.2-1.2-5.1-3.6-5.5-5-4-7.3.6-1 1.3-2 .3-4.5-6.4-.5-7 1.6-7.7 3.8-.4 1.2-.8 2.5-2.1 3.1-1.4.7-3.4.5-6.7-.7-.4-.2-.7-.6-.7-1 .2-3.2-.4-3.6-.4-3.6-.5-.1-2.2 1.3-3.2 2.2-1.7 1.4-3.4 2.8-5 3.1-.4.1-.9-.2-1.1-.6-1.4-3-6.4-5.2-9.7-6-.1.2-.2.4-.3.7l-3.6 7.4c.7 4-1.1 10.7-3.8 13.7-.3.3-.7.4-1.1.3-2.4-.9-4.5.7-6.7 2.5-1.3.9-3.2 2.5-5.4 2.5"/><path id="B" class="st1" d="M428.2 229.7c0 2.8-2.3 5.1-5.1 5.1s-5.1-2.3-5.1-5.1 2.3-5.1 5.1-5.1 5.1 2.3 5.1 5.1"/><path id="B_00000141451125209409008100000000122723181324902030_" class="st1" d="M390.2 249.1c0 2.8-2.3 5.1-5.1 5.1s-5.1-2.3-5.1-5.1 2.3-5.1 5.1-5.1 5.1 2.3 5.1 5.1"/><path id="B_00000010988968686749393480000001503395194133655433_" class="st2" d="M465.2 174.1c0 2.8-2.3 5.1-5.1 5.1s-5.1-2.3-5.1-5.1 2.3-5.1 5.1-5.1 5.1 2.3 5.1 5.1"/><path id="B_00000182504483886026119480000006445859358682545838_" class="st1" d="M396.9 196.7c0 2.8-2.3 5.1-5.1 5.1s-5.1-2.3-5.1-5.1 2.3-5.1 5.1-5.1 5.1 2.3 5.1 5.1"/><path id="C" class="st1" d="M366.5 339c0 2.8-2.3 5.1-5.1 5.1s-5.1-2.3-5.1-5.1 2.3-5.1 5.1-5.1 5.1 2.2 5.1 5.1"/><path id="C_00000081626282747972502870000012803736098718349247_" class="st1" d="M299.5 216.4c0 2.8-2.3 5.1-5.1 5.1s-5.1-2.3-5.1-5.1 2.3-5.1 5.1-5.1 5.1 2.2 5.1 5.1"/><path id="B_00000163068180470326016320000002155407493008541085_" class="st1" d="M109.9 119c0 2.8-2.3 5.1-5.1 5.1s-5.1-2.3-5.1-5.1 2.3-5.1 5.1-5.1 5.1 2.3 5.1 5.1"/><path id="C_00000002355962336768774010000016694732447698114231_" class="st1" d="M273.4 316.8c0 2.8-2.3 5.1-5.1 5.1s-5.1-2.3-5.1-5.1 2.3-5.1 5.1-5.1 5.1 2.2 5.1 5.1"/><path id="B_00000156557026148610210360000011407852218168370336_" class="st1" d="M53 279.3c0 2.8-2.3 5.1-5.1 5.1s-5.1-2.3-5.1-5.1 2.3-5.1 5.1-5.1 5.1 2.3 5.1 5.1"/><g class="st3"><path class="st4" d="M78.6 142l3.4-9.6h1.6L87 142h-1.4l-.8-2.3h-4.1l-.8 2.3h-1.3zm2.5-3.4h3.3l-1.7-4.7-1.6 4.7z"/></g><g class="st3"><path class="st4" d="M90.3 142.1c-.7 0-1.2-.2-1.6-.6s-.6-1-.6-1.8v-4.6h1.2v4.5c0 .5.1.8.4 1 .2.2.6.4 1 .4s.7-.1 1-.3c.3-.2.4-.5.5-.8s.2-.7.2-1v-3.8h1.2v6.9h-1.2v-1h-.1c-.1.1-.2.2-.3.4s-.4.3-.6.5c-.3.2-.7.2-1.1.2z"/></g><g class="st3"><path class="st4" d="M95 142l2.2-3.4-2.3-3.5h1.3l1.8 2.7 1.8-2.7h1.3l-2.3 3.5 2.3 3.4h-1.3l-1.8-2.7-1.8 2.7H95z"/></g><g class="st3"><path class="st4" d="M105.2 142.1c-.6 0-1.1-.1-1.5-.3-.4-.2-.8-.5-1-.8s-.5-.7-.6-1.2-.2-.9-.2-1.3.1-.9.2-1.3.3-.8.6-1.2c.3-.3.6-.6 1-.8.4-.2.9-.3 1.4-.3.6 0 1.1.1 1.6.4s.8.7 1.1 1.2c.3.5.4 1.2.4 2v.4h-5c0 .4.1.7.3 1.1.2.3.4.6.7.8.3.2.6.3 1.1.3.4 0 .6-.1.9-.2.2-.1.4-.3.5-.4s.2-.4.3-.6h1.2c-.1.3-.2.6-.3.8-.1.2-.3.4-.5.7-.2.2-.5.4-.8.6-.4.1-.9.1-1.4.1zm-2-4.1h3.8c0-.5-.1-.8-.3-1.1-.2-.3-.4-.5-.7-.6-.3-.1-.6-.2-.9-.2-.5 0-1 .2-1.3.5s-.5.8-.6 1.4z"/></g><g class="st3"><path class="st4" d="M109.9 142v-6.9h1.2v.9h.1c.1-.3.4-.5.7-.7.3-.2.7-.3 1.2-.3h.6v1.2h-.6c-.6 0-1.1.2-1.4.5-.3.3-.5.9-.5 1.7v3.7h-1.3z"/></g><g class="st3"><path class="st4" d="M115 142v-6.9h1.2v.9h.1c.1-.3.4-.5.7-.7.3-.2.7-.3 1.2-.3h.6v1.2h-.6c-.6 0-1.1.2-1.4.5-.3.3-.5.9-.5 1.7v3.7H115z"/></g><g class="st3"><path class="st4" d="M122.6 142.1c-.6 0-1.1-.1-1.5-.3-.4-.2-.8-.5-1-.8-.3-.3-.5-.7-.6-1.2s-.2-.9-.2-1.3.1-.9.2-1.3.3-.8.6-1.2c.3-.3.6-.6 1-.8.4-.2.9-.3 1.4-.3.6 0 1.1.1 1.6.4.5.3.8.7 1.1 1.2.3.5.4 1.2.4 2v.4h-5c0 .4.1.7.3 1.1.2.3.4.6.7.8.3.2.6.3 1.1.3.4 0 .6-.1.9-.2s.4-.3.5-.4.2-.4.3-.6h1.2c-.1.3-.2.6-.3.8-.1.2-.3.4-.5.7-.2.2-.5.4-.8.6s-.9.1-1.4.1zm-2-4.1h3.8c0-.5-.1-.8-.3-1.1-.2-.3-.4-.5-.7-.6s-.6-.2-.9-.2c-.5 0-1 .2-1.3.5s-.5.8-.6 1.4z"/></g><g class="st3"><path class="st4" d="M43 301v-9.6h1.1l5 7.3v-7.3h1.3v9.6h-1.1l-5-7.3v7.3H43zm12.6.1c-.6 0-1.1-.1-1.5-.3-.4-.2-.8-.5-1-.8s-.5-.7-.6-1.2-.2-.9-.2-1.3.1-.9.2-1.3.3-.8.6-1.2c.3-.3.6-.6 1-.8.4-.2.9-.3 1.4-.3.6 0 1.1.1 1.6.4s.8.7 1.1 1.2c.3.5.4 1.2.4 2v.4h-5c0 .4.1.7.3 1.1.2.3.4.6.7.8.3.2.6.3 1.1.3.4 0 .6-.1.9-.2.2-.1.4-.3.5-.4s.2-.4.3-.6h1.2c-.1.3-.2.6-.3.8-.1.2-.3.4-.5.7-.2.2-.5.4-.8.6-.5.1-.9.1-1.4.1zm-2-4.1h3.8c0-.5-.1-.8-.3-1.1-.2-.3-.4-.5-.7-.6-.3-.1-.6-.2-.9-.2-.5 0-1 .2-1.3.5s-.6.8-.6 1.4z"/></g><g class="st3"><path class="st4" d="M62.1 301l-2.6-6.9h1.3l2 5.4 2-5.4h1.3l-2.6 6.9h-1.4z"/></g><g class="st3"><path class="st4" d="M70.2 301.1c-.6 0-1.1-.1-1.5-.3-.4-.2-.8-.5-1-.8s-.5-.7-.6-1.2-.2-.9-.2-1.3.1-.9.2-1.3.3-.8.6-1.2c.3-.3.6-.6 1-.8.4-.2.9-.3 1.4-.3.6 0 1.1.1 1.6.4s.8.7 1.1 1.2c.3.5.4 1.2.4 2v.4h-5c0 .4.1.7.3 1.1.2.3.4.6.7.8.3.2.6.3 1.1.3.4 0 .6-.1.9-.2.2-.1.4-.3.5-.4s.2-.4.3-.6h1.2c-.1.3-.2.6-.3.8-.1.2-.3.4-.5.7-.2.2-.5.4-.8.6-.5.1-.9.1-1.4.1zm-2-4.1H72c0-.5-.1-.8-.3-1.1-.2-.3-.4-.5-.7-.6-.3-.1-.6-.2-.9-.2-.5 0-1 .2-1.3.5s-.6.8-.6 1.4zm6.6 4v-6.9H76v.9h.1c.1-.3.4-.5.7-.7.3-.2.7-.3 1.2-.3h.6v1.2H78c-.6 0-1.1.2-1.4.5-.3.3-.5.9-.5 1.7v3.7h-1.3zm7.7.1c-.5 0-1-.1-1.3-.2s-.6-.3-.8-.6-.3-.4-.4-.7c-.1-.2-.2-.5-.2-.8H81c.1.2.1.4.2.6.1.2.3.3.5.4s.5.2.9.2.7-.1.9-.3c.2-.2.3-.4.3-.7 0-.3-.1-.5-.3-.6s-.4-.3-.8-.3l-.9-.2c-.3-.1-.7-.2-1-.4-.3-.1-.5-.3-.7-.6-.2-.3-.3-.6-.3-1 0-.6.2-1.1.7-1.4s1-.6 1.7-.6c.5 0 .9.1 1.2.2s.6.3.7.5c.2.2.3.4.4.6.1.2.2.4.2.7h-1.2c-.1-.2-.1-.4-.2-.5-.1-.1-.2-.2-.4-.3-.2-.1-.4-.1-.7-.1-.4 0-.7.1-.9.3-.2.2-.3.4-.3.6 0 .2.1.4.3.5.2.1.4.2.7.3l.9.2c.6.1 1.1.4 1.5.7s.6.8.6 1.4c0 .4-.1.7-.3 1.1-.2.3-.5.6-.9.8s-.8.2-1.3.2z"/></g><g class="st3"><path class="st4" d="M289 202v-9.6h3.1c.8 0 1.4.1 2 .4.6.3 1 .6 1.4 1.1s.7 1 .9 1.5c.2.6.3 1.2.3 1.8s-.1 1.2-.3 1.8c-.2.6-.5 1.1-.9 1.5s-.9.8-1.4 1.1c-.6.3-1.2.4-2 .4H289zm3.1-8.5h-1.8v7.4h1.8c.6 0 1.1-.1 1.5-.3s.8-.5 1.1-.8c.3-.4.5-.7.6-1.2s.2-.9.2-1.4-.1-.9-.2-1.4c-.1-.4-.3-.8-.6-1.2-.3-.4-.6-.6-1.1-.8s-.9-.3-1.5-.3zm7.1.3c-.2 0-.4-.1-.6-.2-.2-.2-.2-.3-.2-.6 0-.2.1-.4.2-.6.2-.2.3-.2.6-.2.2 0 .4.1.6.2.2.2.2.3.2.6 0 .2-.1.4-.2.6-.2.1-.4.2-.6.2zm-.6 8.2v-6.9h1.2v6.9h-1.2zm2.6 2.5c-.2 0-.5 0-.8-.1v-1.1c.2 0 .4.1.6.1.5 0 .8-.1 1-.3s.3-.5.3-1v-7h1.2v7c0 .3 0 .6-.1.8s-.2.5-.3.8c-.2.2-.4.4-.7.6-.4.1-.8.2-1.2.2zm1.5-10.7c-.2 0-.4-.1-.6-.2-.2-.2-.2-.3-.2-.6 0-.2.1-.4.2-.6.2-.2.3-.2.6-.2.2 0 .4.1.6.2.2.2.2.3.2.6 0 .2-.1.4-.2.6-.1.1-.3.2-.6.2zm5.7 8.3c-.7 0-1.4-.2-1.9-.5s-.9-.8-1.1-1.3c-.3-.5-.4-1.1-.4-1.7 0-.6.1-1.2.4-1.7s.6-1 1.1-1.3 1.1-.5 1.9-.5 1.4.2 1.9.5.9.8 1.1 1.3c.3.5.4 1.1.4 1.7 0 .6-.1 1.2-.4 1.7s-.6 1-1.1 1.3c-.6.4-1.2.5-1.9.5zm0-1c.5 0 .9-.1 1.2-.4.3-.2.6-.5.7-.9.2-.4.2-.8.2-1.2s-.1-.8-.2-1.2c-.2-.4-.4-.7-.7-.9-.3-.2-.7-.4-1.2-.4s-.8.1-1.2.4c-.3.2-.6.5-.7.9-.2.4-.2.8-.2 1.2s.1.8.2 1.2c.2.4.4.7.7.9s.7.4 1.2.4zm5.1.9v-6.9h1.2v1h.1c.1-.1.2-.2.3-.4.1-.2.3-.3.6-.5.3-.1.6-.2 1-.2.5 0 .9.1 1.3.3s.6.5.8.9c.2.4.3.8.3 1.3v4.4h-1.2v-4.4c0-.5-.1-.8-.4-1.1s-.6-.5-1.1-.5c-.4 0-.7.1-.9.3-.2.2-.4.5-.5.8s-.2.7-.2 1v3.9l-1.3.1z"/></g><g class="st3"><path class="st4" d="M212.3 337.1c-.8 0-1.4-.1-2-.4s-1-.7-1.4-1.1c-.4-.5-.7-1-.9-1.6s-.3-1.2-.3-1.8.1-1.2.3-1.8c.2-.6.5-1.1.9-1.6s.9-.8 1.4-1.1c.6-.3 1.2-.4 2-.4.6 0 1.2.1 1.6.2.4.2.8.4 1.1.6.3.3.5.5.7.8s.3.6.4.8c.1.3.2.5.2.9H215c-.1-.3-.2-.5-.3-.7s-.3-.4-.5-.6-.5-.4-.8-.5-.8-.2-1.3-.2-1 .1-1.4.3c-.4.2-.7.5-1 .9s-.5.8-.6 1.2-.2.9-.2 1.4.1.9.2 1.4.3.8.6 1.2.6.6 1 .9c.4.2.9.3 1.4.3s.9-.1 1.3-.2c.3-.1.6-.3.8-.5s.4-.4.5-.6.2-.5.3-.8h1.3c-.1.3-.1.6-.2.9-.1.3-.2.5-.4.8s-.4.5-.7.8-.7.5-1.1.6c-.5-.2-1-.1-1.6-.1zm5.8-.1v-9.9h1.2v4h.1c.1-.1.2-.2.3-.4.1-.2.3-.3.6-.5.3-.1.6-.2 1-.2.5 0 .9.1 1.3.3.4.2.6.5.8.9s.3.8.3 1.3v4.4h-1.2v-4.4c0-.5-.1-.8-.4-1.1-.3-.3-.6-.5-1.1-.5-.4 0-.7.1-.9.3-.2.2-.4.5-.5.8s-.2.7-.2 1v3.9h-1.3v.1zm10.5-7c.4 0 .8.1 1.1.2s.5.3.7.5.3.4.4.5h.1v-1.1h1.2v6.9h-1.2v-1.1h-.1c-.1.2-.2.3-.4.5s-.4.4-.7.5-.7.2-1.1.2c-.5 0-1-.1-1.4-.3-.4-.2-.7-.5-1-.8s-.5-.7-.6-1.2c-.1-.4-.2-.9-.2-1.3s.1-.9.2-1.3.3-.8.6-1.2c.3-.3.6-.6 1-.8.4-.1.8-.2 1.4-.2zm.2 1c-.5 0-.8.1-1.2.4s-.5.6-.7.9c-.2.4-.2.8-.2 1.2 0 .4.1.8.2 1.2.2.4.4.7.7.9.3.2.7.4 1.2.4s.8-.1 1.2-.4c.3-.2.5-.6.7-.9.2-.4.2-.8.2-1.2 0-.4-.1-.8-.2-1.2-.2-.4-.4-.7-.7-.9s-.8-.4-1.2-.4zm5.2 6v-9.9h1.2v9.9H234zm6.5.1c-.7 0-1.4-.2-1.9-.5s-.9-.8-1.1-1.3-.4-1.1-.4-1.7.1-1.2.4-1.7c.3-.5.6-1 1.1-1.3s1.1-.5 1.9-.5 1.4.2 1.9.5.9.8 1.1 1.3c.3.5.4 1.1.4 1.7s-.1 1.2-.4 1.7-.6 1-1.1 1.3c-.6.4-1.2.5-1.9.5zm0-1c.5 0 .9-.1 1.2-.4s.6-.5.7-.9c.2-.4.2-.8.2-1.2 0-.4-.1-.8-.2-1.2s-.4-.7-.7-.9c-.3-.2-.7-.4-1.2-.4s-.8.1-1.2.4c-.3.2-.6.5-.7.9s-.2.8-.2 1.2c0 .4.1.8.2 1.2.2.4.4.7.7.9s.7.4 1.2.4zm5.1.9v-6.9h1.2v1h.1c.1-.1.2-.2.3-.4.1-.2.3-.3.6-.5.3-.1.6-.2 1-.2.5 0 .9.1 1.3.3.4.2.6.5.8.9s.3.8.3 1.3v4.4H250v-4.4c0-.5-.1-.8-.4-1.1-.3-.3-.6-.5-1.1-.5-.4 0-.7.1-.9.3-.2.2-.4.5-.5.8s-.2.7-.2 1v3.9h-1.3v.1zm8-3.5v-1h4.8v1h-4.8zm9.8 3.6c-.5 0-1-.1-1.3-.2s-.6-.3-.8-.6c-.2-.2-.3-.4-.4-.7-.1-.2-.2-.5-.2-.8h1.2c.1.2.1.4.2.6s.3.3.5.4.5.2.9.2.7-.1.9-.3c.2-.2.3-.4.3-.7 0-.3-.1-.5-.3-.6s-.4-.3-.8-.3l-.9-.2c-.3-.1-.7-.2-1-.4-.3-.1-.5-.3-.7-.6-.2-.3-.3-.6-.3-1 0-.6.2-1.1.7-1.4s1-.6 1.7-.6c.5 0 .9.1 1.2.2.3.1.6.3.7.5.2.2.3.4.4.6s.2.4.2.7h-1.2c-.1-.2-.1-.4-.2-.5s-.2-.2-.4-.3c-.2-.1-.4-.1-.7-.1-.4 0-.7.1-.9.3s-.3.4-.3.6.1.4.3.5c.2.1.4.2.7.3l.9.2c.6.1 1.1.4 1.5.7.4.3.6.8.6 1.4 0 .4-.1.7-.3 1.1-.2.3-.5.6-.9.8s-.7.2-1.3.2zm6.4 0c-.7 0-1.2-.2-1.6-.6s-.6-1-.6-1.8v-4.6h1.2v4.5c0 .5.1.8.4 1 .2.2.6.4 1 .4s.7-.1 1-.3c.3-.2.4-.5.5-.8s.2-.7.2-1v-3.8h1.2v6.9h-1.2v-1h-.1c-.1.1-.2.2-.3.4s-.4.3-.6.5c-.3.2-.7.2-1.1.2z"/></g><g class="st3"><path class="st4" d="M275 337v-6.9h1.2v.9h.1c.1-.3.4-.5.7-.7.3-.2.7-.3 1.2-.3h.6v1.2h-.6c-.6 0-1.1.2-1.4.5s-.5.9-.5 1.7v3.7H275v-.1z"/></g><g class="st3"><path class="st4" d="M280.7 333.5v-1h4.8v1h-4.8z"/></g><g class="st3"><path class="st4" d="M291.3 337.1c-.6 0-1-.1-1.4-.2s-.7-.3-1-.6c-.3-.2-.5-.5-.6-.7-.2-.3-.3-.5-.4-.7s-.1-.5-.2-.8h1.3c.1.2.1.5.2.6.1.2.2.4.4.6.2.2.4.3.7.5s.6.2 1.1.2c.6 0 1.1-.2 1.5-.5s.6-.7.6-1.2c0-.4-.1-.8-.4-1s-.7-.4-1.2-.5l-1.3-.3c-.5-.1-.9-.3-1.3-.5s-.7-.5-.9-.8-.3-.8-.3-1.3c0-.6.1-1 .4-1.4s.7-.7 1.1-.9c.5-.2 1-.3 1.6-.3s1.1.1 1.5.3c.4.2.7.4.9.7.2.3.4.5.5.8l.3.9h-1.2c-.1-.3-.2-.6-.3-.8-.1-.2-.3-.4-.6-.5s-.6-.2-1.1-.2c-.6 0-1.1.1-1.4.4s-.5.6-.5 1c0 .3.1.6.4.8.3.2.6.4 1 .5l1.4.3c.5.1.9.3 1.3.5s.7.5.9.9c.2.4.4.8.4 1.3s-.1 1-.4 1.4-.6.8-1.1 1.1c-.5.3-1.1.4-1.9.4z"/></g><g class="st3"><path class="st4" d="M299.2 330c.4 0 .8.1 1.1.2.3.1.5.3.7.5s.3.4.4.5h.1v-1.1h1.2v6.9h-1.2v-1.1h-.1c-.1.2-.2.3-.4.5s-.4.4-.7.5c-.3.1-.7.2-1.1.2-.5 0-1-.1-1.4-.3-.4-.2-.7-.5-1-.8s-.5-.7-.6-1.2c-.1-.4-.2-.9-.2-1.3s.1-.9.2-1.3.3-.8.6-1.2c.3-.3.6-.6 1-.8.5-.1.9-.2 1.4-.2zm.3 1c-.5 0-.8.1-1.2.4s-.5.6-.7.9c-.2.4-.2.8-.2 1.2 0 .4.1.8.2 1.2.2.4.4.7.7.9.3.2.7.4 1.2.4s.8-.1 1.2-.4c.3-.2.5-.6.7-.9.2-.4.2-.8.2-1.2 0-.4-.1-.8-.2-1.2-.2-.4-.4-.7-.7-.9s-.8-.4-1.2-.4zm8.4 6.1c-.7 0-1.4-.2-1.9-.5s-.9-.8-1.1-1.3c-.3-.5-.4-1.1-.4-1.7s.1-1.2.4-1.7.6-1 1.1-1.3 1.1-.5 1.9-.5c.7 0 1.4.2 1.9.5s.9.8 1.1 1.3c.3.5.4 1.1.4 1.7s-.1 1.2-.4 1.7-.6 1-1.1 1.3c-.5.4-1.1.5-1.9.5zm0-1c.5 0 .9-.1 1.2-.4s.6-.5.7-.9c.2-.4.2-.8.2-1.2 0-.4-.1-.8-.2-1.2s-.4-.7-.7-.9c-.3-.2-.7-.4-1.2-.4s-.8.1-1.2.4c-.3.2-.6.5-.7.9-.2.4-.2.8-.2 1.2 0 .4.1.8.2 1.2.2.4.4.7.7.9s.8.4 1.2.4zm-2.1-7l1.6-2.2h1.1l1.6 2.2H309l-1-1.4-1 1.4h-1.2zm7.3 7.9v-6.9h1.2v1h.1c.1-.1.2-.2.3-.4.1-.2.3-.3.6-.5.3-.1.6-.2 1-.2.5 0 .9.1 1.3.3.4.2.6.5.8.9.2.4.3.8.3 1.3v4.4h-1.2v-4.4c0-.5-.1-.8-.4-1.1s-.6-.5-1.1-.5c-.4 0-.7.1-.9.3-.2.2-.4.5-.5.8s-.2.7-.2 1v3.9h-1.3v.1zm10.6.1c-.6 0-1.1-.1-1.5-.3-.4-.2-.8-.5-1-.8-.3-.3-.5-.7-.6-1.2-.1-.4-.2-.9-.2-1.3s.1-.9.2-1.3.3-.8.6-1.2.6-.6 1-.8c.4-.2.9-.3 1.4-.3.6 0 1.1.1 1.6.4s.8.7 1.1 1.2.4 1.2.4 2v.4h-5c0 .4.1.7.3 1.1.2.3.4.6.7.8.3.2.6.3 1.1.3.4 0 .6-.1.9-.2.2-.1.4-.3.5-.4s.2-.4.3-.6h1.2c-.1.3-.2.6-.3.8-.1.2-.3.4-.5.7-.2.2-.5.4-.8.6s-.9.1-1.4.1zm-2-4.1h3.8c0-.5-.1-.8-.3-1.1-.2-.3-.4-.5-.7-.6-.3-.1-.6-.2-.9-.2-.5 0-1 .2-1.3.5-.4.3-.6.8-.6 1.4z"/></g><g class="st3"><path class="st4" d="M343.1 294.2c-.9 0-1.7-.2-2.3-.5-.7-.3-1.2-.8-1.7-1.3-.4-.5-.8-1.2-1-1.8-.2-.7-.3-1.4-.3-2.1s.1-1.4.3-2.1c.2-.7.6-1.3 1-1.8s1-1 1.7-1.3 1.4-.5 2.3-.5c.7 0 1.4.1 1.9.3.5.2 1 .4 1.3.7.4.3.6.6.9.9.2.3.4.6.5.9s.2.6.3 1h-1.8c-.1-.3-.2-.6-.3-.8-.1-.2-.3-.5-.5-.7s-.5-.4-.9-.6-.8-.2-1.4-.2-1.1.1-1.6.3c-.4.2-.8.5-1.1.9-.3.4-.5.8-.7 1.3s-.2 1-.2 1.5.1 1 .2 1.5.4.9.7 1.3c.3.4.7.7 1.1.9.4.2 1 .3 1.6.3.5 0 1-.1 1.4-.2.4-.2.7-.3.9-.6.2-.2.4-.5.5-.7s.2-.5.3-.8h1.8c-.1.4-.2.7-.3 1-.1.3-.3.6-.5.9s-.5.7-.9.9c-.4.3-.8.5-1.3.7-.6.6-1.2.7-1.9.7zm6.7-.2v-11.1h1.8v4.7h5v-4.7h1.8V294h-1.8v-4.9h-5v4.9h-1.8zm15.8.2c-.9 0-1.7-.2-2.4-.5s-1.2-.8-1.7-1.3-.8-1.2-1-1.8c-.2-.7-.3-1.4-.3-2.1s.1-1.4.3-2.1c.2-.7.6-1.3 1-1.8.5-.5 1-1 1.7-1.3s1.5-.5 2.4-.5 1.7.2 2.4.5 1.2.8 1.7 1.3.8 1.1 1 1.8c.2.7.3 1.4.3 2.1s-.1 1.4-.3 2.1c-.2.7-.6 1.3-1 1.8-.5.5-1 1-1.7 1.3s-1.5.5-2.4.5zm0-1.7c.8 0 1.5-.2 2-.6s.9-.9 1.2-1.5c.3-.6.4-1.3.4-2 0-.5-.1-1-.2-1.5-.2-.5-.4-.9-.7-1.3-.3-.4-.7-.7-1.1-.9-.5-.2-1-.3-1.6-.3s-1.1.1-1.6.3c-.5.2-.8.5-1.1.9-.3.4-.5.8-.7 1.3s-.2 1-.2 1.5c0 .7.1 1.4.4 2s.7 1.1 1.2 1.5c.6.4 1.2.6 2 .6zm7.4 1.5v-11.1h1.8V294H373zm7.8.2c-.7 0-1.2-.1-1.7-.3-.5-.2-.9-.4-1.2-.7-.3-.3-.6-.5-.7-.8-.2-.3-.3-.6-.4-.8-.1-.3-.2-.6-.2-.9h1.8c.1.3.1.5.2.7s.2.4.4.6c.2.2.4.4.7.5.3.1.7.2 1.2.2.7 0 1.2-.2 1.6-.5s.6-.8.6-1.3c0-.4-.1-.8-.4-1s-.7-.4-1.3-.6l-1.5-.3c-.5-.1-1.1-.3-1.5-.5-.5-.2-.8-.6-1.1-1-.3-.4-.4-.9-.4-1.5 0-.7.2-1.2.5-1.7s.8-.8 1.4-1.1c.6-.3 1.2-.4 2-.4.7 0 1.3.1 1.8.3.5.2.8.5 1.1.8.3.3.5.6.6.9s.2.7.3 1.1h-1.7c-.1-.3-.2-.6-.3-.8-.1-.2-.4-.4-.7-.6-.3-.2-.7-.2-1.2-.2-.7 0-1.2.2-1.5.5s-.5.7-.5 1.1.1.7.4.9c.3.2.7.4 1.2.5l1.6.4c.6.1 1.1.3 1.6.6s.9.6 1.1 1c.3.4.4.9.4 1.6 0 .6-.2 1.2-.5 1.7s-.8.9-1.4 1.2c-.6.2-1.4.4-2.3.4zm5.9-.2v-11.1h7.2v1.5h-5.5v3.2h4.8v1.5h-4.8v3.4h5.6v1.5h-7.3zm12.5 0v-3.9l-3.9-7.2h1.9l2.8 5.4 2.8-5.4h1.9l-3.9 7.2v3.9h-1.6z"/></g><g class="st3"><path class="st4" d="M315 359v-9.6h1.3v8.5h5v1.1H315z"/></g><g class="st3"><path class="st4" d="M325.6 359.1c-.7 0-1.4-.2-1.9-.5s-.9-.8-1.1-1.3-.4-1.1-.4-1.7.1-1.2.4-1.7.6-1 1.1-1.3 1.1-.5 1.9-.5c.7 0 1.4.2 1.9.5s.9.8 1.1 1.3c.3.5.4 1.1.4 1.7s-.1 1.2-.4 1.7-.6 1-1.1 1.3c-.6.4-1.2.5-1.9.5zm0-1c.5 0 .9-.1 1.2-.4.3-.2.6-.5.7-.9.2-.4.2-.8.2-1.2 0-.4-.1-.8-.2-1.2-.2-.4-.4-.7-.7-.9-.3-.2-.7-.4-1.2-.4s-.8.1-1.2.4c-.3.2-.6.5-.7.9s-.2.8-.2 1.2c0 .4.1.8.2 1.2.2.4.4.7.7.9s.7.4 1.2.4zm5.1.9v-6.9h1.2v1h.1c.1-.1.2-.2.3-.4.1-.2.3-.3.6-.5.3-.1.6-.2 1-.2.5 0 .9.1 1.3.3.4.2.6.5.8.9s.3.8.3 1.3v4.4h-1.2v-4.4c0-.5-.1-.8-.4-1.1s-.6-.5-1.1-.5c-.4 0-.7.1-.9.3-.2.2-.4.5-.5.8s-.2.7-.2 1v3.9h-1.3v.1zm9.9.1c-.5 0-1-.1-1.3-.2s-.6-.3-.8-.6-.3-.4-.4-.7c-.1-.2-.2-.5-.2-.8h1.2c.1.2.1.4.2.6s.3.3.5.4.5.2.9.2.7-.1.9-.3c.2-.2.3-.4.3-.7 0-.3-.1-.5-.3-.6s-.4-.3-.8-.3l-.9-.2c-.3-.1-.7-.2-1-.4-.3-.1-.5-.3-.7-.6-.2-.3-.3-.6-.3-1 0-.6.2-1.1.7-1.4.4-.4 1-.6 1.7-.6.5 0 .9.1 1.2.2.3.1.6.3.7.5.2.2.3.4.4.6s.2.4.2.7h-1.2c-.1-.2-.1-.4-.2-.5s-.2-.2-.4-.3-.4-.1-.7-.1c-.4 0-.7.1-.9.3-.2.2-.3.4-.3.6s.1.4.3.5c.2.1.4.2.7.3l.9.2c.6.1 1.1.4 1.5.7s.6.8.6 1.4c0 .4-.1.7-.3 1.1-.2.3-.5.6-.9.8-.3.1-.7.2-1.3.2zm4.7-3.6v-1h4.8v1h-4.8zm7.5 3.5v-9.9h1.2v9.9h-1.2z"/></g><g class="st3"><path class="st4" d="M359.1 359.1c-.6 0-1.1-.1-1.5-.3-.4-.2-.8-.5-1-.8-.3-.3-.5-.7-.6-1.2s-.2-.9-.2-1.3.1-.9.2-1.3.3-.8.6-1.2c.3-.3.6-.6 1-.8.4-.2.9-.3 1.4-.3.6 0 1.1.1 1.6.4s.8.7 1.1 1.2c.3.5.4 1.2.4 2v.4h-5c0 .4.1.7.3 1.1.2.3.4.6.7.8.3.2.6.3 1.1.3.4 0 .6-.1.9-.2s.4-.3.5-.4.2-.4.3-.6h1.2c-.1.3-.2.6-.3.8-.1.2-.3.4-.5.7-.2.2-.5.4-.8.6s-.9.1-1.4.1zm-2-4.1h3.8c0-.5-.1-.8-.3-1.1-.2-.3-.4-.5-.7-.6s-.6-.2-.9-.2c-.5 0-1 .2-1.3.5s-.6.8-.6 1.4z"/></g><g class="st3"><path class="st4" d="M364.7 355.5v-1h4.8v1h-4.8z"/></g><g class="st3"><path class="st4" d="M375.3 359.1c-.6 0-1-.1-1.4-.2s-.7-.3-1-.6c-.3-.2-.5-.5-.6-.7-.2-.3-.3-.5-.4-.7s-.1-.5-.2-.8h1.3c.1.2.1.5.2.6.1.2.2.4.4.6.2.2.4.3.7.5s.6.2 1.1.2c.6 0 1.1-.2 1.5-.5s.6-.7.6-1.2c0-.4-.1-.8-.4-1s-.7-.4-1.2-.5l-1.3-.3c-.5-.1-.9-.3-1.3-.5s-.7-.5-.9-.8c-.2-.3-.3-.8-.3-1.3 0-.6.1-1 .4-1.4s.7-.7 1.1-.9c.5-.2 1-.3 1.6-.3s1.1.1 1.5.3c.4.2.7.4.9.7.2.3.4.5.5.8l.3.9h-1.2c-.1-.3-.2-.6-.3-.8-.1-.2-.3-.4-.6-.5s-.6-.2-1.1-.2c-.6 0-1.1.1-1.4.4s-.5.6-.5 1c0 .3.1.6.4.8.3.2.6.4 1 .5l1.4.3c.5.1.9.3 1.3.5s.7.5.9.9c.2.4.4.8.4 1.3s-.1 1-.4 1.4-.6.8-1.1 1.1-1.1.4-1.9.4z"/></g><g class="st3"><path class="st4" d="M383.3 352c.4 0 .8.1 1.1.2s.5.3.7.5.3.4.4.5h.1v-1.1h1.2v6.9h-1.2v-1.1h-.1c-.1.2-.2.3-.4.5s-.4.4-.7.5c-.3.1-.7.2-1.1.2-.5 0-1-.1-1.4-.3-.4-.2-.7-.5-1-.8s-.5-.7-.6-1.2c-.1-.4-.2-.9-.2-1.3s.1-.9.2-1.3.3-.8.6-1.2c.3-.3.6-.6 1-.8.4-.1.9-.2 1.4-.2zm.2 1c-.5 0-.8.1-1.2.4-.3.2-.5.6-.7.9-.2.4-.2.8-.2 1.2 0 .4.1.8.2 1.2s.4.7.7.9c.3.2.7.4 1.2.4s.8-.1 1.2-.4c.3-.2.5-.6.7-.9.2-.4.2-.8.2-1.2 0-.4-.1-.8-.2-1.2-.2-.4-.4-.7-.7-.9s-.8-.4-1.2-.4zm7.4 6.1c-.7 0-1.2-.2-1.6-.6s-.6-1-.6-1.8v-4.6h1.2v4.5c0 .5.1.8.4 1 .2.2.6.4 1 .4s.7-.1 1-.3c.3-.2.4-.5.5-.8s.2-.7.2-1v-3.8h1.2v6.9H393v-1h-.1c-.1.1-.2.2-.3.4s-.4.3-.6.5c-.3.2-.7.2-1.1.2zm5.1-.1v-6.9h1.2v1h.1c.1-.1.2-.2.3-.4.1-.2.3-.3.6-.5.3-.1.6-.2 1-.2.5 0 .9.1 1.3.3.4.2.6.5.8.9s.3.8.3 1.3v4.4h-1.2v-4.4c0-.5-.1-.8-.4-1.1s-.6-.5-1.1-.5c-.4 0-.7.1-.9.3-.2.2-.4.5-.5.8s-.2.7-.2 1v3.9H396v.1zm8.2-8.2c-.2 0-.4-.1-.6-.2-.2-.2-.2-.3-.2-.6 0-.2.1-.4.2-.6.2-.2.3-.2.6-.2.2 0 .4.1.6.2.2.2.2.3.2.6 0 .2-.1.4-.2.6-.1.1-.3.2-.6.2zm-.6 8.2v-6.9h1.2v6.9h-1.2zm6.4.1c-.6 0-1.1-.1-1.5-.3-.4-.2-.7-.5-1-.8s-.5-.7-.6-1.2c-.1-.4-.2-.9-.2-1.3s.1-.9.2-1.3.3-.8.6-1.2c.3-.3.6-.6 1-.8.4-.2.9-.3 1.4-.3.6 0 1.1.1 1.6.4s.8.7 1.1 1.2.4 1.2.4 2v.4h-5c0 .4.1.7.3 1.1.2.3.4.6.7.8.3.2.6.3 1.1.3.4 0 .6-.1.9-.2.2-.1.4-.3.5-.4l.3-.6h1.2c-.1.3-.2.6-.3.8-.1.2-.3.4-.5.7-.2.2-.5.4-.8.6s-.9.1-1.4.1zm-2-4.1h3.8c0-.5-.1-.8-.3-1.1-.2-.3-.4-.5-.7-.6s-.6-.2-.9-.2c-.5 0-1 .2-1.3.5-.3.3-.5.8-.6 1.4zm6.7 4v-6.9h1.2v.9h.1c.1-.3.4-.5.6-.7s.7-.3 1.2-.3h.6v1.2h-.6c-.6 0-1.1.2-1.4.5s-.5.9-.5 1.7v3.7h-1.2v-.1z"/></g><g class="st3"><path class="st4" d="M421 218v-9.6h3.7c.6 0 1.1.1 1.6.3.4.2.8.5 1 .9s.4.8.4 1.2c0 .5-.1.9-.3 1.2s-.4.5-.6.7-.4.3-.5.3v.1c.2.1.4.2.7.3.3.2.5.4.7.7s.3.7.3 1.2c0 .4-.1.9-.3 1.3-.2.4-.6.8-1 1-.5.3-1.1.4-1.9.4H421zm3.7-8.5h-2.4v3.1h2.4c.4 0 .8-.1 1-.2.3-.1.4-.3.6-.6s.2-.5.2-.7c0-.3-.1-.5-.2-.7s-.3-.4-.6-.6c-.3-.2-.6-.3-1-.3zm.1 4.1h-2.5v3.3h2.5c.5 0 .9-.1 1.1-.2.3-.2.5-.4.6-.6.1-.3.2-.5.2-.8s-.1-.5-.2-.8-.3-.5-.6-.6c-.2-.2-.6-.3-1.1-.3z"/></g><g class="st3"><path class="st4" d="M432.9 218.1c-.6 0-1.1-.1-1.5-.3s-.8-.5-1-.8c-.3-.3-.5-.7-.6-1.2s-.2-.9-.2-1.3.1-.9.2-1.3.3-.8.6-1.2c.3-.3.6-.6 1-.8s.9-.3 1.4-.3c.6 0 1.1.1 1.6.4.5.3.8.7 1.1 1.2.3.5.4 1.2.4 2v.4h-5c0 .4.1.7.3 1.1.2.3.4.6.7.8.3.2.6.3 1.1.3.4 0 .6-.1.9-.2s.4-.3.5-.4.2-.4.3-.6h1.2c-.1.3-.2.6-.3.8-.1.2-.3.4-.5.7-.2.2-.5.4-.8.6s-.9.1-1.4.1zm-2-4.1h3.8c0-.5-.1-.8-.3-1.1-.2-.3-.4-.5-.7-.6s-.6-.2-.9-.2c-.5 0-1 .2-1.3.5s-.6.8-.6 1.4zm9.1 4.1c-.5 0-1-.1-1.3-.2-.3-.1-.6-.3-.8-.6s-.3-.4-.4-.7c-.1-.2-.2-.5-.2-.8h1.2c.1.2.1.4.2.6.1.2.3.3.5.4.2.1.5.2.9.2s.7-.1.9-.3c.2-.2.3-.4.3-.7s-.1-.5-.3-.6-.4-.3-.8-.3l-.9-.2c-.3-.1-.7-.2-1-.4-.3-.1-.5-.3-.7-.6s-.3-.6-.3-1c0-.6.2-1.1.7-1.4.4-.4 1-.6 1.7-.6.5 0 .9.1 1.2.2.3.1.6.3.7.5.2.2.3.4.4.6s.2.4.2.7H441c-.1-.2-.1-.4-.2-.5s-.2-.2-.4-.3-.4-.1-.7-.1c-.4 0-.7.1-.9.3-.2.2-.3.4-.3.6 0 .2.1.4.3.5.2.1.4.2.7.3l.9.2c.6.1 1.1.4 1.5.7s.6.8.6 1.4c0 .4-.1.7-.3 1.1-.2.3-.5.6-.9.8-.3.1-.7.2-1.3.2zm7-7.1c.4 0 .8.1 1.1.2s.5.3.7.5.3.4.4.5h.1v-1.1h1.2v6.9h-1.2v-1.1h-.1c-.1.2-.2.3-.4.5s-.4.4-.7.5c-.3.1-.7.2-1.1.2-.5 0-1-.1-1.4-.3s-.7-.5-1-.8-.5-.7-.6-1.2c-.1-.4-.2-.9-.2-1.3s.1-.9.2-1.3.3-.8.6-1.2c.3-.3.6-.6 1-.8.4-.1.9-.2 1.4-.2zm.2 1c-.5 0-.8.1-1.2.4-.3.2-.5.6-.7.9-.2.4-.2.8-.2 1.2s.1.8.2 1.2.4.7.7.9c.3.2.7.4 1.2.4s.8-.1 1.2-.4c.3-.2.5-.6.7-.9.2-.4.2-.8.2-1.2s-.1-.8-.2-1.2c-.2-.4-.4-.7-.7-.9s-.8-.4-1.2-.4zm5.1 6v-6.9h1.2v1h.1c.1-.1.2-.2.3-.4.1-.2.3-.3.6-.5.3-.1.6-.2 1-.2.5 0 .9.1 1.3.3s.6.5.8.9c.2.4.3.8.3 1.3v4.4h-1.2v-4.4c0-.5-.1-.8-.4-1.1s-.6-.5-1.1-.5c-.4 0-.7.1-.9.3-.2.2-.4.5-.5.8s-.2.7-.2 1v3.9l-1.3.1z"/></g><g class="st3"><path class="st4" d="M462.9 221.4c-.2 0-.5 0-.9-.1v-.8c.4.1.7.1.9.1.4 0 .6-.1.8-.2.1-.1.2-.3.2-.4s-.1-.3-.2-.4c-.1-.1-.3-.2-.5-.2s-.5.1-.7.2l-.5-.5.7-1.1c-.7-.1-1.2-.3-1.6-.7s-.7-.8-1-1.3c-.2-.5-.3-1-.3-1.6 0-.4.1-.9.2-1.3s.3-.8.6-1.2c.3-.3.6-.6 1.1-.8.4-.2.9-.3 1.5-.3s1 .1 1.4.2c.4.2.7.4.9.6s.4.5.5.7.2.5.3.9h-1.2c-.1-.3-.2-.5-.3-.7-.1-.2-.3-.3-.5-.5-.2-.1-.6-.2-1-.2-.5 0-.9.1-1.2.4s-.6.5-.7.9c-.2.4-.2.8-.2 1.2s.1.8.2 1.2c.2.4.4.7.7.9.3.2.7.4 1.2.4.4 0 .7-.1 1-.2.2-.1.4-.3.5-.5s.2-.4.3-.7h1.2c-.1.3-.1.6-.2.8s-.2.5-.4.7c-.2.2-.4.4-.8.6-.3.2-.7.3-1.2.3l-.4.7c.1 0 .2-.1.4-.1.4 0 .7.1.9.4.2.3.3.5.3.9 0 .2-.1.4-.2.7-.1.2-.3.4-.6.5-.4.4-.7.5-1.2.5z"/></g><g class="st3"><path class="st4" d="M471.1 218.1c-.7 0-1.4-.2-1.9-.5s-.9-.8-1.1-1.3c-.3-.5-.4-1.1-.4-1.7 0-.6.1-1.2.4-1.7s.6-1 1.1-1.3 1.1-.5 1.9-.5c.7 0 1.4.2 1.9.5s.9.8 1.1 1.3c.3.5.4 1.1.4 1.7 0 .6-.1 1.2-.4 1.7s-.6 1-1.1 1.3c-.6.4-1.2.5-1.9.5zm0-1c.5 0 .9-.1 1.2-.4s.6-.5.7-.9c.2-.4.2-.8.2-1.2s-.1-.8-.2-1.2-.4-.7-.7-.9c-.3-.2-.7-.4-1.2-.4s-.8.1-1.2.4c-.3.2-.6.5-.7.9-.2.4-.2.8-.2 1.2s.1.8.2 1.2c.2.4.4.7.7.9.3.2.7.4 1.2.4zm5 .9v-6.9h1.2v1h.1c.1-.1.2-.2.3-.4.1-.2.3-.3.6-.5.3-.1.6-.2 1-.2.5 0 .9.1 1.3.3s.6.5.8.9c.2.4.3.8.3 1.3v4.4h-1.2v-4.4c0-.5-.1-.8-.4-1.1s-.6-.5-1.1-.5c-.4 0-.7.1-.9.3-.2.2-.4.5-.5.8s-.2.7-.2 1v3.9l-1.3.1z"/></g><g class="st3"><path class="st4" d="M386 269v-9.6h3.1c.8 0 1.4.1 2 .4s1 .6 1.4 1.1.7 1 .9 1.5c.2.6.3 1.2.3 1.8 0 .6-.1 1.2-.3 1.8-.2.6-.5 1.1-.9 1.5-.4.5-.9.8-1.4 1.1-.6.3-1.2.4-2 .4H386zm3.1-8.5h-1.8v7.4h1.8c.6 0 1.1-.1 1.5-.3.4-.2.8-.5 1.1-.8s.5-.7.6-1.2.2-.9.2-1.4-.1-.9-.2-1.4c-.1-.4-.3-.8-.6-1.2s-.6-.6-1.1-.8c-.4-.2-.9-.3-1.5-.3zm9.5 8.6c-.7 0-1.4-.2-1.9-.5s-.9-.8-1.1-1.3c-.3-.5-.4-1.1-.4-1.7s.1-1.2.4-1.7.6-1 1.1-1.3 1.1-.5 1.9-.5 1.4.2 1.9.5.9.8 1.1 1.3c.3.5.4 1.1.4 1.7s-.1 1.2-.4 1.7-.6 1-1.1 1.3c-.5.4-1.1.5-1.9.5zm0-1c.5 0 .9-.1 1.2-.4.3-.2.6-.5.7-.9.2-.4.2-.8.2-1.2 0-.4-.1-.8-.2-1.2-.2-.4-.4-.7-.7-.9-.3-.2-.7-.4-1.2-.4s-.8.1-1.2.4c-.3.2-.6.5-.7.9-.2.4-.2.8-.2 1.2 0 .4.1.8.2 1.2.2.4.4.7.7.9s.8.4 1.2.4zm5.2.9v-9.9h1.2v9.9h-1.2zm6.4.1c-.6 0-1.1-.1-1.5-.3-.4-.2-.8-.5-1-.8s-.5-.7-.6-1.2c-.1-.4-.2-.9-.2-1.3s.1-.9.2-1.3.3-.8.6-1.2.6-.6 1-.8c.4-.2.9-.3 1.4-.3.6 0 1.1.1 1.6.4s.8.7 1.1 1.2.4 1.2.4 2v.4h-5c0 .4.1.7.3 1.1.2.3.4.6.7.8.3.2.6.3 1.1.3.4 0 .6-.1.9-.2.2-.1.4-.3.5-.4l.3-.6h1.2c-.1.3-.2.6-.3.8-.1.2-.3.4-.5.7-.2.2-.5.4-.8.6s-.9.1-1.4.1zm-2-4.1h3.8c0-.5-.1-.8-.3-1.1-.2-.3-.4-.5-.7-.6s-.6-.2-.9-.2c-.5 0-1 .2-1.3.5-.4.3-.6.8-.6 1.4z"/></g><g class="st3"><path class="st4" d="M451 164v-9.6h3.7c.6 0 1.1.1 1.6.3.4.2.8.5 1 .9s.4.8.4 1.2c0 .5-.1.9-.3 1.2s-.4.5-.6.7-.4.3-.5.3v.1c.2.1.4.2.7.3.3.2.5.4.7.7s.3.7.3 1.2c0 .4-.1.9-.3 1.3-.2.4-.6.8-1 1-.5.3-1.1.4-1.9.4H451zm3.7-8.5h-2.4v3.1h2.4c.4 0 .8-.1 1-.2.3-.1.4-.3.6-.6s.2-.5.2-.7c0-.3-.1-.5-.2-.7s-.3-.4-.6-.6c-.3-.2-.6-.3-1-.3zm.1 4.1h-2.5v3.3h2.5c.5 0 .9-.1 1.1-.2.3-.2.5-.4.6-.6.1-.3.2-.5.2-.8s-.1-.5-.2-.8-.3-.5-.6-.6c-.2-.2-.6-.3-1.1-.3zm7.9-2.6c.4 0 .8.1 1.1.2s.5.3.7.5.3.4.4.5h.1v-1.1h1.2v6.9H465v-1.1h-.1c-.1.2-.2.3-.4.5s-.4.4-.7.5c-.3.1-.7.2-1.1.2-.5 0-1-.1-1.4-.3s-.7-.5-1-.8-.5-.7-.6-1.2c-.1-.4-.2-.9-.2-1.3s.1-.9.2-1.3.3-.8.6-1.2c.3-.3.6-.6 1-.8.4-.1.8-.2 1.4-.2zm.2 1c-.5 0-.8.1-1.2.4s-.5.6-.7.9c-.2.4-.2.8-.2 1.2s.1.8.2 1.2c.2.4.4.7.7.9.3.2.7.4 1.2.4s.8-.1 1.2-.4c.3-.2.5-.6.7-.9.2-.4.2-.8.2-1.2s-.1-.8-.2-1.2c-.2-.4-.4-.7-.7-.9-.4-.2-.8-.4-1.2-.4zm5.1 6v-6.9h1.2v.9h.1c.1-.3.4-.5.7-.7.3-.2.7-.3 1.2-.3h.6v1.2h-.6c-.6 0-1.1.2-1.4.5s-.5.9-.5 1.7v3.7l-1.3-.1zm8 .1c-.7 0-1.2-.2-1.6-.5s-.5-.9-.5-1.5v-3.9h-1.2v-1h1.2v-1.7h1.2v1.7h1.7v1h-1.7v3.9c0 .3.1.6.3.8s.5.2.8.2c.2 0 .5 0 .8-.1v1.1h-1z"/></g><g class="st3"><path class="st4" d="M388.8 184l-3.4-9.6h1.4l2.8 8.2 2.8-8.2h1.4l-3.4 9.6h-1.6z"/></g><g class="st3"><path class="st4" d="M397.2 184.1c-.6 0-1.1-.1-1.5-.3s-.8-.5-1-.8c-.3-.3-.5-.7-.6-1.2s-.2-.9-.2-1.3.1-.9.2-1.3.3-.8.6-1.2c.3-.3.6-.6 1-.8s.9-.3 1.4-.3c.6 0 1.1.1 1.6.4.5.3.8.7 1.1 1.2.3.5.4 1.2.4 2v.4h-5c0 .4.1.7.3 1.1.2.3.4.6.7.8.3.2.6.3 1.1.3.4 0 .6-.1.9-.2s.4-.3.5-.4.2-.4.3-.6h1.2c-.1.3-.2.6-.3.8-.1.2-.3.4-.5.7-.2.2-.5.4-.8.6s-.9.1-1.4.1zm-2-4.1h3.8c0-.5-.1-.8-.3-1.1-.2-.3-.4-.5-.7-.6s-.6-.2-.9-.2c-.5 0-1 .2-1.3.5s-.5.8-.6 1.4zm9.2 4.1c-.5 0-1-.1-1.3-.2-.3-.1-.6-.3-.8-.6s-.3-.4-.4-.7c-.1-.2-.2-.5-.2-.8h1.2c.1.2.1.4.2.6.1.2.3.3.5.4.2.1.5.2.9.2s.7-.1.9-.3c.2-.2.3-.4.3-.7s-.1-.5-.3-.6-.4-.3-.8-.3l-.9-.2c-.3-.1-.7-.2-1-.4-.3-.1-.5-.3-.7-.6s-.3-.6-.3-1c0-.6.2-1.1.7-1.4.4-.4 1-.6 1.7-.6.5 0 .9.1 1.2.2.3.1.6.3.7.5.2.2.3.4.4.6s.2.4.2.7h-1.2c-.1-.2-.1-.4-.2-.5s-.2-.2-.4-.3-.4-.1-.7-.1c-.4 0-.7.1-.9.3-.2.2-.3.4-.3.6 0 .2.1.4.3.5.2.1.4.2.7.3l.9.2c.6.1 1.1.4 1.5.7s.6.8.6 1.4c0 .4-.1.7-.3 1.1-.2.3-.5.6-.9.8-.3.1-.8.2-1.3.2zm7.2 0c-.7 0-1.4-.2-1.9-.5s-.9-.8-1.1-1.3c-.3-.5-.4-1.1-.4-1.7 0-.6.1-1.2.4-1.7s.6-1 1.1-1.3 1.1-.5 1.9-.5c.7 0 1.4.2 1.9.5s.9.8 1.1 1.3c.3.5.4 1.1.4 1.7 0 .6-.1 1.2-.4 1.7s-.6 1-1.1 1.3c-.5.4-1.2.5-1.9.5zm0-1c.5 0 .9-.1 1.2-.4s.6-.5.7-.9c.2-.4.2-.8.2-1.2s-.1-.8-.2-1.2-.4-.7-.7-.9c-.3-.2-.7-.4-1.2-.4s-.8.1-1.2.4c-.3.2-.6.5-.7.9-.2.4-.2.8-.2 1.2s.1.8.2 1.2c.2.4.4.7.7.9.3.2.7.4 1.2.4zm7.3 1c-.7 0-1.2-.2-1.6-.6s-.6-1-.6-1.8v-4.6h1.2v4.5c0 .5.1.8.4 1 .2.2.6.4 1 .4s.8-.1 1-.3.4-.5.5-.8.2-.7.2-1v-3.8h1.2v6.9H421v-1h-.1c-.1.1-.2.2-.3.4-.1.2-.4.3-.6.5-.3.2-.6.2-1.1.2zm5.3-.1v-9.9h1.2v9.9h-1.2z"/></g><a id="contact_link" target="_blank"><g id="location"><path class="st2" d="M24.3 4.3C21.6 1.6 18 .1 14.2.1S6.8 1.6 4.1 4.3C1.5 6.9 0 10.5 0 14.3s1.5 7.4 4.2 10.1l9.3 9.4c.2.2.4.3.7.3s.5-.1.7-.3l9.3-9.4c2.7-2.7 4.2-6.3 4.2-10.1s-1.4-7.4-4.1-10" transform="translate(351 243.909)"/><path class="st1" d="M22.7 12.5l-1.3-1.1V7.9H19v1.5l-3.9-3.3c-.2-.2-.4-.3-.7-.3h-.2c-.2 0-.5.1-.6.3L6 12.4c-.5.4-.6 1.1-.1 1.6.4.5 1.1.5 1.6.1l6.9-5.7 6.9 5.8c.5.4 1.2.3 1.6-.1.4-.5.3-1.2-.2-1.6m-8.4.9c3 0 5.4 2.5 5.4 5.5s-2.4 5.5-5.4 5.5-5.4-2.5-5.4-5.5 2.4-5.5 5.4-5.5" transform="translate(351 243)"/></g></a><g transform="translate(438 248)"><circle class="st1" cx="105" cy="105" r="105"/><path d="M2.6 49.3c-.3.6-.1.6 0 0m72.5-17.1c0-.2 0-.4.1-.6-.1.2-.1.4-.1.6M56.5 66.5c.2-.2-.5-1.8.2-2.8-.7 1 0 2.6-.2 2.8m-.2-.1c-.1-.1-.2-.3-.4-.4.4.3.7.6.4.4m90.5-31.6c-1.8.6-2.1-.6-3.6-.7-2.1-1.8-.6-2.3-3.1-.4-.7-.3-2-.5-2.8-.2-.3-.6-1.3-2.3-2.3-1.5-.5 4.2-3.3-3.3-4.1-4-4.3-.2-1.3-1.8-6.4-.4-1.1-.5-1.3-1.6-2.4-.9-1.2-.4-1-.4-1.7.4-.6-.7-1-.4-1.8-.4-.3-2.5-1.5-.4-1.8-2.9-2.4.3-2-.8-3.4-1.7-1.9.9-1.8-.6-1.3-1.8-.7-.5-1.1-1.2-.6-2.2 1.9-2.3-1-3-1.7-1-.3 2.2-1.8 3.1-4 2.6-1.9-.3-2.3-1.4-1.4-2.7-1.6-.4-.8-1.7-.2-2.4-.9-2-4.7-2-6.2-1.4.3-2.9-2.1-3.3-4.3-3.3-1.7-2.4-.2-7.8-5-3-.8-.5-1.3-2.1-3.2-1.9-.5-.4.4-3.7-.8-4.5-.6-.3-1.5.2-2 .5-3.7 2-6.7.5-8.2 2.8-2.8 6.5 1 12.6-4.8 15.3-2.7 1.6-10.2.8-12.3 4.7.6 1.2-1 2.4-1.2 2.9.7 1.3 5.3.6 5.1.7-.1.9-3.8 1.2-4.6 1.4-1.9.5-2 1.6-3.4 1.7-1.9-.8-4.1-1.3-6.6-1-1.9-.3-3.3-1.2-3.7-.7-.1 1.6-1.8.8-1-.5 0-1-1.6-1.3-1.7-2.4 1.2-2.1.9-3.2-1.9-2.5-2.4 3.5-7.3-3.4-4.2 1.8-1.5 1.7.5 1.6.4 3.7 1.4.5 1.9 1.3 2.3 3.1 1.5 3.8-1.8 7.4 2.9 9.2-.2 1.1-5.6 1.6-6 .4.3-1.3-.8-1.7-1.6-.6-.4.8.4 2 .3 2s-.6-1.5-1.3-1.6c-1.8 1.6-1.6.7-3.3-.4-5.9 4.6-2.7 2.4-7.9-2.5-4.1-2.4-6.8-1.8-6.7 2.3-2.4.3-4.3-1.6-8.7.5-4.6.9-4.8 1.4-4.6 5.1 1.1.8.9-.8 2.1 0 .2-.2 2.5-1.3 2.6-.9-.7.6-1.2 1.5.7 1.2 3.6.5-2.5 1.7-2.4-.1-.6 0-1.2.8-.3 1.3.3.6.3 1 .3 1.2.1-.1.2-.4.5-.8 1.1-.6 2.5.9 1.9 2-.4 1.5-6.9-.1-4.1 1.6 6.9 0 .5 4.6 5.9 3.4.8-1.5.5-.9 1.6-.3 1.1-1.9.3-1.7 2 .3 1.9 1.5 3.7-.6 4.4 1.7 2-.8 4.1 1.9 5.2 2.5.7-.4 3.1-2 3.8-.6.3 1.4-2 .7-2.2.6.1.9.8 1.1 2.1.9 3.1-.7 4.6 1.2 1.9 2-.3.8 2.2 3.1 3.3 2.6.5-.9 2.4-2.6 3.4-1.5 1.3 2.3-3.7-.6-2.8 3 .6.8 2.3.7 2.2 2.5-3.6 4.3 1.9 4 2.5 8 .5 1.3 2.7 1.6 3.7 2 .5 1 .5 1.2 1.6 1 1.6 1.5.8 1.4 2.4.2 1.3.8-.3 2.1-.5 2.8.4 1.3 2.3 1.9 1 4.2-1.1.7 0 2.4.2 2.7-.1-.1-.9-.7-1.3-.4-1.5 2.8 4.1 2.5 5.1 5.2.7 1.2.2 6.9 2.4 7.7-.1.1-.7.1-1.2-.2-1.4-.6-1.6-5.5-2-5.7-5.9-6.3-3.7 2.7-4.6 6.2-.2 2.8-.7 4.7-.6 5.9.5-2.2 2.5-3 2.4 0-2-.4-2.1.6-2.1 3.2-.7 3.8-1.2 13.3-2.5 15.3-.9 3.5-5.2 1.8-2.9 4 1.9-.5.1 1.4 1.8 1-.1-2.3 3.1-.3 2.3 1.3-1.2 1.3-1.8 2.4.4 2.3.5-.3.3-1.4.5-1.4.3 1.1 1.2 1.2 2.6 1.7 2.7 3.3 3.5-1.7 3.9 1.9 2.9 6.1 2.5-2.5 8.5 3.9 1.9-.3 2.1-1.9 3.3.2.6.3 1-.3 2.1-.5 1.6-.3 3.2 1 2.6-.4-1.1-3.5 1.5-2.4 3.1-1 1.4.1 2-.2 2.4 1.2 2.1.4 2.5-.5 3.4 1.9 1.5-2.4 4.4-.7 3.3 1.7.4-.2 1.5.4 2 .6 2.7-.3-1.4.7 1.6 2.1 3.3-4.8 4.5 2 7.6.3-.7-1.7 1.6-2.7 3.4-2.3 1 0 2-.1 2-.1-.4-1.8-2.5-10.2 1.3-12.9 6.6-.5 3.9-9.3 13.5-3.4 1.5-4.3 2.4-1 1.2 1.2.8 1.3 4.9 1.5 3.9-.9 2.4.1 1.7.4 1.8-2 .4-.3 1.8.2 2 1.1.3 2.2-4.6 1.9-.7 2.6 2.3-1.6 2.5 0 2.1 1.7.2.3.9-.3 1.7 0 .7.7 1.7.4 2.2.4.2.2 0 .4.2.7.3.3.9.1 1 .3-.3 1.3 1.3 2 1.6.3 1.7-1.2 3.1 2.7 2.8.1.4-1.2 2.1.1 2.4 0-.2-2.6 4.1.2 4.1-2.3-2.5-1.8-.4.1.4-3 3.6-.4.3-1.8 4-2.5.1-2.9 3.9-2.3 5-3.9-1.1-2.6 1.6-3.8 2.1-4.8-3-1.3 2.3-2.4-4.5-.8-2.3 0-5.1-2.8-5-4.2 1-1.2-.2-1.8-.5-2.6 2.7-1.4 0-2.3 2.6-2.3-.4-1.1-.4-3.5-2.2-3.2-1.6-.1-1.6-1.5-1.4-2.7-2.2-.2-2.3-2.6.1-2.5 2.5 1.7.9-.4 3.2-.7 1.7-.5.3-2.1 1.2-3.8-1.3-1.5-2.1-.9-1.7-3.3-1.2-.4-3.4-2-2.4-3.5.5-.6 1.6.1 2.3-.6 1.2-1.5.1-2.9-1.3-3.3.3-1.3-.3-1-1.2-1.5.1-1.3 1.1-2.1-.3-3.5.9-.1.8-.7 0-1.4-.2-.9-5.9.5-6.2 1.4 2.4 4.2-4 5.6-3 2.7 3.9-1 .1-5 2.4-7 4.1-2.5 2.9-1.2 3.6-5.5 3.8-1.7 1.1-1.7 3.6-3.2 1.9-1.1 1.6-.7 2-2.2 1.7-2.6.8-1.4-.9-1.5 4.1-5.5 2.5.4 5.6-.9.7-.3.5-.8 1.6-1.7 1.4-1 1.3-1.2.4-2.5-1.1-2.1 2.4-5.1.2-6.6 0-2.2 2.7-6 3.3-9.3 2.1-4.2 2.2-.3 4.2-5.9-1.4.1-2.8-1.1-4-1.3" transform="translate(25 31)" fill-rule="evenodd" clip-rule="evenodd" fill="#00376a"/><path class="st1" d="M150.1 96.5c0 3-2.5 5.5-5.5 5.5s-5.5-2.5-5.5-5.5 2.5-5.5 5.5-5.5 5.5 2.4 5.5 5.5"/><path d="M153 96.5c0 4.7-3.8 8.5-8.5 8.5s-8.5-3.8-8.5-8.5 3.8-8.5 8.5-8.5 8.5 3.8 8.5 8.5" fill="none" stroke="#fff"/></g></svg>