<svg version="1.1" id="Calque_1" xmlns="http://www.w3.org/2000/svg" xmlns:xlink="http://www.w3.org/1999/xlink" x="0px" y="0px"
	 viewBox="0 0 50 50" style="enable-background:new 0 0 50 50;" xml:space="preserve">
<style type="text/css">
	.st0{fill-rule:evenodd;clip-rule:evenodd;}
</style>
<g id="Group-3_00000024723584133958358950000011459574164920289413_" transform="translate(0.000000, 0.368200)">
	<g id="Clip-2_00000058565762757304771240000011007788611745383047_">
	</g>
	<path id="Fill-1_00000154405208001158257870000015188376397569476272_" class="st0" d="M35.3,37.8v4.3c0,0.1,0,0.1-0.1,0.1H15
		c-0.1,0-0.1,0-0.1-0.1v-4.3H35.3z M14.8,35.1h20.6V15.6H14.8V35.1z M14.8,12.8V7.6c0-0.1,0-0.1,0.1-0.1h20.2c0.1,0,0.1,0,0.1,0.1
		v5.2C35.2,12.8,14.8,12.8,14.8,12.8z M35.2,4.6H15c-1.6,0-2.9,1.3-2.9,2.9V42c0,1.6,1.3,2.9,2.9,2.9h20.2c1.6,0,2.9-1.3,2.9-2.9
		V7.6C38.1,6.1,36.8,4.6,35.2,4.6L35.2,4.6z"/>
</g>
<path id="Fill-4" class="st0" d="M28.1,9h-5.5c-0.7,0-1.3,0.7-1.3,1.3c0,0.7,0.7,1.3,1.3,1.3h5.5c0.7,0,1.3-0.7,1.3-1.3
	S28.8,9,28.1,9"/>
<path id="Fill-6" class="st0" d="M23.8,41.8h4.3c0.7,0,1.3-0.7,1.3-1.3s-0.7-1.3-1.3-1.3h-4.3c-0.7,0-1.3,0.7-1.3,1.3
	S23.1,41.8,23.8,41.8"/>
</svg>
