<?xml version="1.0" encoding="utf-8"?>
<!-- Generator: Adobe Illustrator 26.0.3, SVG Export Plug-In . SVG Version: 6.00 Build 0)  -->
<svg version="1.1" id="Calque_1" xmlns="http://www.w3.org/2000/svg" xmlns:xlink="http://www.w3.org/1999/xlink" x="0px" y="0px"
	 viewBox="0 0 29 37" style="enable-background:new 0 0 29 37;" xml:space="preserve">
<style type="text/css">
	.st0{filter:url(#Adobe_OpacityMaskFilter);}
	.st1{fill-rule:evenodd;clip-rule:evenodd;fill:#FFFFFF;}
	.st2{mask:url(#mask-2_00000109725720610983373490000016793918598382124175_);fill-rule:evenodd;clip-rule:evenodd;fill:#00376A;}
</style>
<g id="Maquette">
	<g id="_x30_3_x5F_recherche-artisans-map" transform="translate(-1555.000000, -969.000000)">
		<g id="map" transform="translate(973.000000, 780.000000)">
			<g id="Group-3-Copy-9" transform="translate(582.000000, 189.000000)">
				<g id="Clip-2">
				</g>
				<defs>
					<filter id="Adobe_OpacityMaskFilter" filterUnits="userSpaceOnUse" x="0" y="0" width="28.6" height="37">
						<feColorMatrix  type="matrix" values="1 0 0 0 0  0 1 0 0 0  0 0 1 0 0  0 0 0 1 0"/>
					</filter>
				</defs>
				
					<mask maskUnits="userSpaceOnUse" x="0" y="0" width="28.6" height="37" id="mask-2_00000109725720610983373490000016793918598382124175_">
					<g class="st0">
						<polygon id="path-1_00000111893797570724698360000011142143911793418395_" class="st1" points="0,0 28.6,0 28.6,37 0,37 
													"/>
					</g>
				</mask>
				<path id="Fill-1" class="st2" d="M7.6,14c0-3.6,3-6.7,6.7-6.7c3.6,0,6.7,2.9,6.7,6.7c0,3.6-2.9,6.7-6.7,6.7
					C10.6,20.7,7.6,17.6,7.6,14 M28.6,14.3C28.6,6.4,22.2,0,14.3,0S0,6.4,0,14.3S14.3,37,14.3,37S28.6,22.2,28.6,14.3"/>
			</g>
		</g>
	</g>
</g>
</svg>
