<?xml version="1.0" encoding="utf-8"?>
<!-- Generator: Adobe Illustrator 26.0.1, SVG Export Plug-In . SVG Version: 6.00 Build 0)  -->
<svg version="1.1" id="Calque_1" xmlns="http://www.w3.org/2000/svg" xmlns:xlink="http://www.w3.org/1999/xlink" x="0px" y="0px"
	 viewBox="0 0 31.6 31.6" style="enable-background:new 0 0 31.6 31.6;" xml:space="preserve">
<style type="text/css">
	.st0{fill:#9BAAB9;}
</style>
<g id="LINES">
	<polygon class="st0" points="11.6,31.6 31.6,11.6 31.6,9.4 9.4,31.6 	"/>
	<polygon class="st0" points="19.9,31.6 22.2,31.6 31.6,22.2 31.6,19.9 	"/>
	<polygon class="st0" points="31.6,31.6 31.6,30.4 30.4,31.6 	"/>
	<polygon class="st0" points="11.6,0 11.6,0 9.4,0 0,9.4 0,9.4 0,11.6 	"/>
	<polygon class="st0" points="1.1,0 0,0 0,1.1 0,1.1 	"/>
	<polygon class="st0" points="22.2,0 19.9,0 0,19.9 0,22.2 0,22.2 	"/>
	<polygon class="st0" points="30.4,0 0,30.4 0,30.4 0,31.6 1.1,31.6 31.6,1.1 31.6,1.1 31.6,0 	"/>
</g>
</svg>
