<svg xmlns="http://www.w3.org/2000/svg" viewBox="0 0 50 50" xmlns:v="https://vecta.io/nano"><g transform="translate(0 .069)"><defs><filter id="A" filterUnits="userSpaceOnUse" x="9.7" y="1" width="29.8" height="47.1"><feColorMatrix values="1 0 0 0 0  0 1 0 0 0  0 0 1 0 0  0 0 0 1 0"/></filter></defs><mask maskUnits="userSpaceOnUse" x="9.7" y="1" width="29.8" height="47.1" id="B"><g filter="url(#A)"><path d="M9.7 1h29.7v47H9.7z" fill-rule="evenodd" fill="#fff"/></g></mask><path d="M38 45.4c0 .6-.5 1.2-1.2 1.2H12.3c-.6 0-1.1-.5-1.1-1.2v-6.2H38v6.2zM11.1 3.6c0-.6.5-1.2 1.1-1.2h24.5c.7 0 1.3.6 1.3 1.2v7.1H11.1V3.6zm0 34.2H38V12.2H11.1v25.6zM36.8 1H12.3a2.65 2.65 0 0 0-2.6 2.6v7.9 27 6.9a2.65 2.65 0 0 0 2.6 2.6h24.5a2.65 2.65 0 0 0 2.6-2.6v-6.9-27-7.9c0-1.4-1.1-2.6-2.6-2.6h0z" mask="url(#B)" fill-rule="evenodd" fill="#00376a"/></g><path d="M28.2 5.9h-6.7a.68.68 0 0 0-.7.7.68.68 0 0 0 .7.7h6.7a.68.68 0 0 0 .7-.7c.1-.3-.3-.7-.7-.7M23 43.7h5.2a.7.7 0 1 0 0-1.4H23a.68.68 0 0 0-.7.7c-.1.4.3.7.7.7m-7.4-27.9a.68.68 0 0 0-.7.7v10.3a.68.68 0 0 0 .7.7.68.68 0 0 0 .7-.7V16.6c.1-.4-.2-.8-.7-.8m0 14.1a.68.68 0 0 0-.7.7v2.3a.68.68 0 0 0 .7.7.68.68 0 0 0 .7-.7v-2.3c.1-.4-.2-.7-.7-.7" fill-rule="evenodd" fill="#00376a"/></svg>