<svg width="0" height="0" class="hidden">
  <symbol version="1.1" id="360" xmlns="http://www.w3.org/2000/svg" xmlns:xlink="http://www.w3.org/1999/xlink" x="0px" y="0px" xml:space="preserve" viewBox="0 0 50 50">
    <g id="Maquette_00000123401836926714495030000003734275694194735257_">
      <g id="_x30_1_x5F_home-v5_00000129191708951408646630000011565915974059039155_" transform="translate(-936.000000, -7073.000000)">
        <g id="Salle-d_x27_expo" transform="translate(-4.000000, 6652.000000)">
          <g id="bt-visite-virtuelle" transform="translate(851.000000, 400.000000)">
            <g id="Group-15">
              <g transform="translate(89.000000, 21.000000)">
                <g id="Group-3_00000103226304119866103080000007633681310227166612_" transform="translate(13.000000, 8.000800)">
                  <g id="Clip-2_00000128458976608358756720000010479697407241901696_"></g>
                  <path id="Fill-1_00000176026385652687614650000006894794529326519739_" d="M25.5,7.4c-0.7-0.4-1.6-0.3-2,0.4
								s-0.3,1.6,0.4,2c2.5,1.7,4,4.5,4,7.5c0,5-4.1,9-9,9H8.3l1.2-1.2c0.6-0.6,0.6-1.5,0-2.1c-0.6-0.6-1.5-0.6-2.1,0l-3.6,3.8
								c-0.1,0.1-0.1,0.1-0.2,0.2c0,0,0,0.1-0.1,0.1l-0.1,0.1v0.1v0.1c0,0.2,0,0.4,0,0.6v0.1v0.1c0,0.1,0,0.1,0.1,0.1
								c0,0,0,0.1,0.1,0.1c0.1,0.1,0.1,0.2,0.2,0.2l3.7,3.7c0.3,0.3,0.7,0.4,1,0.4c0.4,0,0.7-0.1,1-0.4c0.6-0.6,0.6-1.5,0-2.1
								L8.3,29h10.5c6.6,0,12-5.4,12-12C30.8,13.3,28.8,9.6,25.5,7.4"></path>
                </g>
                <g id="Group-6" transform="translate(0.000000, 0.000800)">
                  <g id="Clip-5"></g>
                  <path id="Fill-4_00000168815515628584036730000008013664922223225243_" d="M12.7,32c-2.5-1.7-4-4.5-4-7.5
								c0-5,4.1-9,9-9h10.5L27,16.7c-0.6,0.6-0.6,1.5,0,2.1c0.3,0.3,0.7,0.4,1,0.4c0.4,0,0.7-0.1,1-0.4l3.7-3.7
								c0.1-0.1,0.1-0.1,0.2-0.2c0,0,0-0.1,0.1-0.1l0.1-0.1v-0.1v-0.1c0-0.2,0-0.4,0-0.6v-0.1v-0.1c0-0.1,0-0.1-0.1-0.1
								c0,0,0-0.1-0.1-0.1c-0.1-0.1-0.1-0.2-0.2-0.2L29,9.6c-0.6-0.6-1.5-0.6-2.1,0c-0.6,0.6-0.6,1.5,0,2.1l1.2,1.2H17.8
								c-6.6,0-12,5.4-12,12c0,4,2,7.7,5.3,9.9c0.3,0.2,0.5,0.3,0.8,0.3c0.5,0,0.9-0.2,1.2-0.6C13.6,33.3,13.4,32.4,12.7,32"></path>
                </g>
                <path id="Fill-7" d="M20.8,24.5v-1.7c0-0.8-0.4-1.2-1.3-1.2h-1.2c-0.9,0-1.3,0.4-1.3,1.2V24h1.4v-1
							c0-0.1,0-0.2,0.1-0.3c0,0,0.1-0.1,0.3-0.1h0.4c0.1,0,0.2,0,0.3,0.1c0,0,0.1,0.1,0.1,0.3v1.6c0,0.1,0,0.2-0.1,0.3
							c0,0-0.1,0.1-0.3,0.1h-0.9v1h0.9c0.1,0,0.2,0,0.3,0.1c0,0,0.1,0.1,0.1,0.3v1.5c0,0.1,0,0.2-0.1,0.3c0,0-0.1,0.1-0.3,0.1h-0.4
							c-0.1,0-0.2,0-0.3-0.1c0,0-0.1-0.1-0.1-0.3v-1H17v1.2c0,0.8,0.4,1.2,1.3,1.2h1.2c0.9,0,1.3-0.4,1.3-1.2v-1.8
							c0-0.5-0.2-0.8-0.5-0.9C20.6,25.3,20.8,25,20.8,24.5"></path>
                <path id="Fill-9" d="M24.1,25.9c0.1,0,0.2,0,0.3,0.1c0,0,0.1,0.1,0.1,0.3v1.6c0,0.1,0,0.2-0.1,0.3
							s-0.1,0.1-0.3,0.1h-0.6c-0.1,0-0.2,0-0.3-0.1c0,0-0.1-0.1-0.1-0.3v-2H24.1z M25.8,24v-1.2c0-0.8-0.4-1.2-1.3-1.2h-1.3
							c-0.9,0-1.3,0.4-1.3,1.2v5.3c0,0.8,0.4,1.2,1.3,1.2h1.4c0.9,0,1.3-0.4,1.3-1.2V26c0-0.8-0.4-1.2-1.3-1.2h-1.3V23
							c0-0.1,0-0.2,0.1-0.3c0,0,0.1-0.1,0.3-0.1h0.5c0.1,0,0.2,0,0.3,0.1c0,0,0.1,0.1,0.1,0.3v1H25.8z"></path>
                <path id="Fill-11" d="M29.6,27.9c0,0.1,0,0.2-0.1,0.3c0,0-0.1,0.1-0.3,0.1h-0.6c-0.1,0-0.2,0-0.3-0.1
							c0,0-0.1-0.1-0.1-0.3V23c0-0.1,0-0.2,0.1-0.3c0,0,0.1-0.1,0.3-0.1h0.6c0.1,0,0.2,0,0.3,0.1c0,0,0.1,0.1,0.1,0.3V27.9z
							 M28.2,21.6c-0.9,0-1.3,0.4-1.3,1.2v5.3c0,0.8,0.4,1.2,1.3,1.2h1.4c0.9,0,1.3-0.4,1.3-1.2v-5.3c0-0.8-0.4-1.2-1.3-1.2H28.2z"></path>
                <path id="Fill-13" d="M33.4,22.9c0-0.1,0-0.2,0.1-0.3c0,0,0.1-0.1,0.3-0.1h0.5c0.1,0,0.2,0,0.3,0.1
							c0,0,0.1,0.1,0.1,0.3V24c0,0.1,0,0.2-0.1,0.3c0,0-0.1,0.1-0.3,0.1h-0.5c-0.1,0-0.2,0-0.3-0.1c0,0-0.1-0.1-0.1-0.3V22.9z
							 M32.1,22.8v1.3c0,0.8,0.4,1.2,1.3,1.2h1.2c0.9,0,1.3-0.4,1.3-1.2v-1.3c0-0.8-0.4-1.2-1.3-1.2h-1.2
							C32.6,21.6,32.1,22,32.1,22.8L32.1,22.8z"></path>
              </g>
            </g>
          </g>
        </g>
      </g>
    </g>
  </symbol>
  <symbol version="1.1" id="actualites" xmlns="http://www.w3.org/2000/svg" xmlns:xlink="http://www.w3.org/1999/xlink" x="0px" y="0px" xml:space="preserve" viewBox="0 0 50 50">
    <g id="Maquette">
      <g id="_x30_1_x5F_home-v5" transform="translate(-24.000000, -670.000000)">
        <g id="barre-raccourcis" transform="translate(-83.000000, 331.000000)">
          <g id="actualite">
            <g transform="translate(107.000000, 339.000000)">
              <g id="Group-3" transform="translate(0.000000, 0.548840)">
                <g id="Clip-2"></g>
                <path id="Fill-1" d="M38.3,34.6c0,1.7-1.4,3.1-3.2,3.1h-3.4c0.8-0.8,1.2-1.8,1.2-3.1V14.3h2.1
							c1.7,0,3.2,1.3,3.2,3.1v0.9v6.1V34.6z M26.8,37.6H14.4c-1.7,0-3.2-1.3-3.2-3.1V13.8c0-1.7,1.4-3.1,3.2-3.1h14
							c1.7,0,3.2,1.3,3.2,3.1v20.8c0,1.7-1.4,3.1-3.2,3.1h-1.6V37.6z M35.1,12.9h-2.2c-0.4-2-2.2-3.5-4.5-3.5h-14
							c-2.6-0.1-4.6,1.9-4.6,4.4v20.8c0,2.4,2,4.5,4.6,4.5h12.3h1.6h6.7c2.6,0,4.6-2,4.6-4.5V24.5v-6.1v-0.9
							C39.7,14.9,37.7,12.9,35.1,12.9L35.1,12.9z"></path>
              </g>
              <path id="Fill-4" d="M25.5,17.2h-8.1c-0.4,0-0.7,0.3-0.7,0.7c0,0.4,0.3,0.7,0.7,0.7h8.1c0.4,0,0.7-0.3,0.7-0.7
						C26.3,17.5,26,17.2,25.5,17.2"></path>
              <path id="Fill-6" d="M25.5,24h-8.1c-0.4,0-0.7,0.3-0.7,0.7c0,0.4,0.3,0.7,0.7,0.7h8.1c0.4,0,0.7-0.3,0.7-0.7
						C26.3,24.3,26,24,25.5,24"></path>
              <path id="Fill-8" d="M25.5,31h-8.1c-0.4,0-0.7,0.3-0.7,0.7c0,0.4,0.3,0.7,0.7,0.7h8.1c0.4,0,0.7-0.3,0.7-0.7
						C26.3,31.3,26,31,25.5,31"></path>
            </g>
          </g>
        </g>
      </g>
    </g>
  </symbol>
  <symbol version="1.1" id="adresse" xmlns="http://www.w3.org/2000/svg" xmlns:xlink="http://www.w3.org/1999/xlink" x="0px" y="0px" xml:space="preserve" viewBox="0 0 50 50">
    <g id="Maquette_00000158748024057846694220000006491401385112157854_">
      <g id="_x30_1_x5F_home-v5_00000165950293893337133160000011130746586492999061_" transform="translate(-222.000000, -9625.000000)">
        <g id="Contact" transform="translate(222.000000, 9276.000000)">
          <g id="adresse" transform="translate(0.000000, 349.000000)">
            <g id="Group-9">
              <g>
                <g id="Group-3" transform="translate(10.000000, 0.309100)">
                  <g id="Clip-2"></g>
                  <path id="Fill-1_00000134933500337546944890000014339636980405498282_" d="M14.5,6.9c4.7,0,8.5,3.8,8.5,8.5
								c0,4.3-6.4,18.5-8.5,22.8C12.5,33.9,6,19.7,6,15.4C6.1,10.7,9.9,6.9,14.5,6.9 M14.5,40.3c0.3,0,0.5-0.1,0.6-0.4
								c0.4-0.8,9.2-19.2,9.2-24.6s-4.4-9.8-9.8-9.8c-5.4,0-9.7,4.4-9.7,9.8s8.8,23.8,9.2,24.6C14.1,40.2,14.3,40.3,14.5,40.3"></path>
                </g>
                <g id="Group-6" transform="translate(0.000000, 10.309100)">
                  <g id="Clip-5"></g>
                  <path id="Fill-4" d="M43.9,32.8L39.1,5.2c0-0.3-0.3-0.5-0.6-0.5h-2.2V6h1.6L40,18.5h-5.7v-3.4H33v4.1
								c0,0.4,0.3,0.7,0.7,0.7h6.6l1.3,7.9H28.9v1.3h12.9l0.6,3.3H7.1l1.2-7.7h6.8v3.7h1.3V24c0-0.4-0.3-0.7-0.7-0.7H8.6l1.2-8.1
								h5.6v-1.3H10L11.2,6h1.6V4.7h-2.1c-0.3,0-0.6,0.2-0.7,0.6L5.7,32.8c0,0.2,0,0.4,0.2,0.5c0.1,0.1,0.3,0.2,0.5,0.2h36.8
								c0.2,0,0.4-0.1,0.5-0.2C43.8,33.2,43.9,33,43.9,32.8"></path>
                </g>
                <path id="Fill-7" d="M24.5,18.1c-1.5,0-2.8-1.3-2.8-2.8s1.3-2.8,2.8-2.8s2.8,1.3,2.8,2.8S26.1,18.1,24.5,18.1
							 M28.7,15.2c0-2.3-1.9-4.1-4.1-4.1c-2.3,0-4.1,1.9-4.1,4.1c0,2.3,1.9,4.1,4.1,4.1C26.8,19.4,28.7,17.5,28.7,15.2"></path>
              </g>
            </g>
          </g>
        </g>
      </g>
    </g>
  </symbol>
  <symbol version="1.1" id="arrow" xmlns="http://www.w3.org/2000/svg" xmlns:xlink="http://www.w3.org/1999/xlink" x="0px" y="0px" xml:space="preserve" viewBox="0 0 50 50">
    <g id="Maquette">
      <g id="_x30_1_x5F_home-v5" transform="translate(-359.000000, -1826.000000)">
        <g id="Edito" transform="translate(222.000000, 1255.000000)">
          <g id="bt-en-savoir-plus" transform="translate(2.000000, 554.000000)">
            <g id="Group-3_00000178917768665993466920000000975825324148254112_">
              <g transform="translate(135.000000, 17.000000)">
                <g id="Clip-2_00000023272447969067333560000001278651518801819835_"></g>
                <path id="Fill-1" d="M31.9,16.5c-0.4,0.4-0.4,1.3,0,1.8l0,0l5.5,5.5H9.3c-0.7,0-1.1,0.4-1.1,1.1S8.7,26,9.3,26
							h27.9l-5.5,5.5c-0.4,0.4-0.4,1.3,0,1.8c0.4,0.4,1.1,0.4,1.8,0l7.5-7.7c0.4-0.4,0.4-1.1,0-1.5l0,0l-7.3-7.5
							C33,15.8,32.3,15.8,31.9,16.5L31.9,16.5z"></path>
              </g>
            </g>
          </g>
        </g>
      </g>
    </g>
  </symbol>
  <symbol version="1.1" id="artisan-conseil" xmlns="http://www.w3.org/2000/svg" xmlns:xlink="http://www.w3.org/1999/xlink" x="0px" y="0px" xml:space="preserve" viewBox="0 0 50 50">
    <g id="Maquette_00000170271236688801187010000018193527159257979788_">
      <g id="_x30_5_x5F_fiche-artisan" transform="translate(-492.000000, -1043.000000)">
        <g id="Engagements" transform="translate(222.000000, 833.000000)">
          <g id="Artisan-conseil" transform="translate(270.000000, 210.000000)">
            <g id="icon-artisan">
              <g>
                <g id="Group-3" transform="translate(0.000000, 0.200500)">
                  <g id="Clip-2"></g>
                  <path id="Fill-1_00000088851705646368380300000018226834997686466185_" d="M12.5,41.7l-4.9-4.9l2.8-2.8l2.5,2.5
								l1-1L11.4,33l2.7-2.7l1.4,1.4l1-1l-1.4-1.4l3-3l2.5,2.5l1-1l-2.5-2.5l2.7-2.7l1.4,1.4l1-1l-1.5-1.4l2.7-2.7l2.5,2.5l1-1
								l-2.5-2.5l2.9-2.9l1.4,1.4l1-1L30.3,14l2.7-2.7l2.5,2.5l1-1L34,10.3l2.9-2.9l4.9,4.9L12.5,41.7z M43.3,11.9L37.4,6
								c-0.1-0.2-0.3-0.2-0.5-0.2s-0.4,0-0.5,0.2L6.1,36.3c-0.1,0.1-0.2,0.3-0.2,0.5s0.1,0.4,0.2,0.5l5.9,5.9
								c0.1,0.1,0.3,0.2,0.5,0.2s0.4-0.1,0.5-0.2l30.3-30.3C43.6,12.6,43.6,12.2,43.3,11.9L43.3,11.9z"></path>
                </g>
                <path id="Fill-4" d="M14,11.9l-2.2,2.2l-1.1-3.3L14,11.9z M10.9,15.7L10.9,15.7c0,0.1,0.1,0.2,0.2,0.3l6.6,6.6
							l1-1l-6.1-6.1l0.9-0.9l6.2,6.2l1-1l-6.3-6.3l0.9-0.9l6.3,6.3l1-1l-6.8-6.8c-0.1-0.1-0.2-0.1-0.3-0.2l0,0l-5.8-2
							C9.4,8.8,9.2,8.9,9,9.1C8.8,9.3,8.8,9.6,8.9,9.9L10.9,15.7z"></path>
                <path id="Fill-6_00000004541747570293337700000004847119681232107448_" d="M38,40.8L35.2,38l2.8-2.8l2.8,2.8
							L38,40.8z M38.5,33.8l-7.2-7.2l-1,1l6.7,6.7l-0.9,0.9l-6.8-6.8l-1,1l6.8,6.8l-0.9,0.9l-6.7-6.7l-1,1l7.2,7.2l3.8,3.8
							c0.1,0.1,0.3,0.2,0.5,0.2s0.4-0.1,0.5-0.2l3.8-3.8c0.3-0.3,0.3-0.7,0-1L38.5,33.8z"></path>
              </g>
            </g>
          </g>
        </g>
      </g>
    </g>
  </symbol>
  <symbol version="1.1" id="artisan" xmlns="http://www.w3.org/2000/svg" xmlns:xlink="http://www.w3.org/1999/xlink" x="0px" y="0px" xml:space="preserve" viewBox="0 0 50 50">
    <g id="Maquette">
      <g id="_x30_1_x5F_home-v5" transform="translate(-267.000000, -998.000000)">
        <g id="Recherche-artisans" transform="translate(222.000000, 973.000000)">
          <g id="Group-10">
            <g transform="translate(45.000000, 25.000000)">
              <path id="Fill-1" d="M16.7,38.6c-0.4,0-0.7,0.3-0.7,0.7v1.9c0,0.4,0.3,0.7,0.7,0.7s0.7-0.3,0.7-0.7v-1.9
						C17.4,38.9,17.1,38.6,16.7,38.6"></path>
              <g id="Group-5" transform="translate(0.000000, 0.141100)">
                <g id="Clip-4"></g>
                <path id="Fill-3" d="M33.8,36.3h-1.7v-4.7l1.7,0.5V36.3z M15.8,32.1l1.7-0.5v4.7h-1.7V32.1z M24.8,29.7
							c1.5,0,2.9-0.4,4.2-1l0.2,1.3l-4.4,4.1L20.4,30l0.2-1.3C21.9,29.3,23.3,29.7,24.8,29.7L24.8,29.7z M17.2,20.7
							c0-0.1,0-0.2,0-0.3c0.2,0.2,0.4,0.5,0.7,0.6c0.1,0.1,0.3,0.1,0.6,0.1c0.3,0,0.7-0.1,1.1-0.3c-0.2,0.2-0.4,0.5-0.5,0.8
							s0.1,0.7,0.4,0.8c0.1,0,0.1,0,0.2,0c0.3,0,0.5-0.2,0.6-0.4c0.1-0.2,0.3-0.4,0.6-0.4c0.2,0,0.5,0.1,0.6,0.4s0.5,0.5,0.9,0.3
							c0.3-0.1,0.5-0.5,0.3-0.9c-0.3-0.7-1-1.1-1.8-1.1c-0.2,0-0.4,0-0.5,0.1c1.1-0.6,2.7-1.2,4.5-1.2s3.4,0.7,4.5,1.2
							c-0.2-0.1-0.4-0.1-0.5-0.1c-0.8,0-1.5,0.5-1.8,1.1c-0.1,0.3,0,0.7,0.3,0.9c0.3,0.1,0.7,0,0.9-0.3c0.1-0.2,0.3-0.4,0.6-0.4
							c0.3,0,0.5,0.2,0.6,0.4c0.1,0.3,0.4,0.4,0.6,0.4c0.1,0,0.1,0,0.2,0c0.3-0.1,0.5-0.5,0.4-0.8s-0.3-0.5-0.5-0.8
							c0.7,0.4,1.3,0.4,1.6,0.2c0.3-0.1,0.6-0.4,0.7-0.6c0,0.1,0,0.2,0,0.3c0,4.2-3.4,7.7-7.7,7.7S17.2,25,17.2,20.7L17.2,20.7z
							 M16.2,17.6l0.1,0.3c-0.2,0.5-0.3,1-0.4,1.6c-0.1-0.2-0.1-0.5-0.1-0.8C15.8,18.2,16,17.8,16.2,17.6L16.2,17.6z M24.8,6.7
							c4.3,0,7.8,3.3,8,7.5c-2.5,0.5-5.2,0.7-8,0.7c-2.9,0-5.6-0.2-8-0.7C17.1,10,20.6,6.7,24.8,6.7L24.8,6.7z M33.8,18.7
							c0,0.3,0,0.5-0.1,0.8c-0.1-0.5-0.2-1.1-0.4-1.6l0.1-0.3C33.7,17.8,33.8,18.2,33.8,18.7L33.8,18.7z M17,15.6
							c2.4,0.4,5,0.6,7.8,0.6s5.4-0.2,7.8-0.6l-1.1,3.8c0,0.1-0.1,0.4-0.3,0.4c-0.1,0-0.3,0-0.5-0.1c-1.1-0.7-3.4-1.9-5.9-1.9
							c-2.6,0-4.8,1.2-5.9,1.9c-0.2,0.1-0.4,0.2-0.5,0.1c-0.2-0.1-0.3-0.3-0.3-0.4L17,15.6z M19.6,31l4.8,4.5
							c0.1,0.1,0.3,0.2,0.5,0.2s0.3-0.1,0.5-0.2l4.8-4.5l0.7,0.2v5.1h-12v-5.1L19.6,31z M41.9,43.2c0,0-0.3-2.6-0.8-6.4
							c-0.5-4.2-4.3-5.2-4.7-5.3l-6-1.7L30.1,28c1.9-1.5,3.3-3.7,3.5-6.2c0.9-0.5,1.4-1.9,1.4-3c0-1.2-0.6-2.1-1.3-2.4l0.4-1.3l0,0
							V15c0,0,0,0,0-0.1l0,0c0-5.2-4.2-9.4-9.4-9.4s-9.4,4.2-9.4,9.4l0,0c0,0,0,0,0,0.1v0.1l0,0l0.4,1.3c-0.8,0.3-1.3,1.3-1.3,2.4
							s0.5,2.5,1.4,3c0.3,2.5,1.6,4.8,3.5,6.2l-0.1,1.7l-6,1.7c-0.3,0.1-4.2,1.1-4.7,5.3c-0.5,3.8-0.8,6.4-0.8,6.4
							c0,0.4,0.2,0.7,0.6,0.7c0,0,0,0,0.1,0c0.3,0,0.6-0.2,0.7-0.6c0,0,0.3-2.6,0.8-6.4c0.4-3.3,3.6-4.2,3.7-4.2l0,0l1-0.3v3.8h-1
							c-0.4,0-0.7,0.3-0.7,0.7v6.3c0,0.4,0.3,0.7,0.7,0.7s0.7-0.3,0.7-0.7v-5.7h21.1v5.7c0,0.4,0.3,0.7,0.7,0.7
							c0.4,0,0.7-0.3,0.7-0.7v-6.3c0-0.4-0.3-0.7-0.7-0.7h-1v-3.8l1,0.3l0,0c0.1,0,3.3,0.9,3.7,4.2c0.5,3.8,0.8,6.4,0.8,6.4
							c0,0.3,0.3,0.6,0.7,0.6c0,0,0,0,0.1,0C41.7,43.9,41.9,43.6,41.9,43.2L41.9,43.2z"></path>
              </g>
              <path id="Fill-6" d="M32.9,38.6c-0.4,0-0.7,0.3-0.7,0.7v1.9c0,0.4,0.3,0.7,0.7,0.7c0.4,0,0.7-0.3,0.7-0.7v-1.9
						C33.6,38.9,33.3,38.6,32.9,38.6"></path>
              <path id="Fill-8" d="M27.2,25.8c0.3-0.2,0.3-0.6,0.1-0.9c-0.2-0.3-0.6-0.3-0.9-0.1c-0.4,0.3-0.9,0.5-1.6,0.5
						c-0.6,0-1.2-0.2-1.6-0.5c-0.3-0.2-0.7-0.2-0.9,0.1c-0.2,0.3-0.2,0.7,0.1,0.9c0.6,0.5,1.5,0.7,2.4,0.7
						C25.8,26.5,26.6,26.3,27.2,25.8"></path>
            </g>
          </g>
        </g>
      </g>
    </g>
  </symbol>
  <symbol version="1.1" id="budget" xmlns="http://www.w3.org/2000/svg" xmlns:xlink="http://www.w3.org/1999/xlink" x="0px" y="0px" xml:space="preserve" viewBox="0 0 50 50">
    <g>
      <path d="M41.6,25.2c-0.7-0.7-1.6-0.4-2.3,0c0.1-0.6,0.2-1.2,0.2-1.8v-3.5c0-3.4-2-6.4-5-7.7c0.7-0.7,1.2-1.6,1.2-2.6V9.3
		c0-2-1.6-3.6-3.7-3.6c-0.9,0-1.7,0.3-2.3,0.8c-0.6-0.5-1.5-0.8-2.3-0.8c-2,0-3.7,1.6-3.7,3.6v0.3c0,0.9,0.4,1.8,1,2.5
		c-3.2,1.2-5.4,4.3-5.4,7.8v3.5c0,1,0.2,2,0.5,3c-1,0-1.8,0-2,0c-0.3,0-0.7-0.1-6.7,5.3l-0.2-0.3c-0.4-0.4-1.1-0.5-1.6-0.1l-2.8,2.6
		c-0.2,0.2-0.3,0.6,0,0.8c0.2,0.2,0.6,0.3,0.8,0l2.7-2.5l7.7,8.3L15.3,43c-0.2,0.2-0.3,0.6,0,0.8c0.1,0.1,0.3,0.2,0.4,0.2
		c0.1,0,0.3-0.1,0.4-0.2l2.8-2.6c0.2-0.2,0.3-0.5,0.4-0.8c0-0.3-0.1-0.6-0.3-0.8L18.4,39h13.2c1.5,0,3.6-1.6,6.5-4.8
		c2.1-2.4,3.9-5,4.4-5.7C43.3,26.8,42.2,25.7,41.6,25.2z M24.9,9.3c0-1.3,1.1-2.4,2.4-2.4c0.7,0,1.4,0.3,1.9,0.8
		c0.2,0.3,0.7,0.3,0.9,0c0.5-0.5,1.1-0.8,1.9-0.8c1.4,0,2.4,1.1,2.4,2.4v0.3c0,0.9-0.6,1.8-1.4,2.1h-0.1c-0.6-0.1-1.2-0.2-1.8-0.2
		h-3.5c-0.5,0-1,0.1-1.5,0.2c-0.8-0.4-1.3-1.2-1.3-2.1V9.3H24.9z M20.6,23.3v-3.5c0-3.3,2.3-6.2,5.5-6.9l0,0c0.1,0,0.2,0,0.3,0
		c0.5-0.1,1-0.2,1.5-0.2h0.5c-0.9,1.1-2.1,2.7-1.8,4c0.1,0.3,0.3,0.5,0.6,0.5h0.1c0.3-0.1,0.5-0.4,0.5-0.7c-0.1-0.7,0.8-2,1.7-3.1
		c0.6,1.4,2,2.9,4.2,2.9c0.3,0,0.6-0.3,0.6-0.6s-0.3-0.6-0.6-0.6c-1.9,0-2.8-1.4-3.2-2.4h1c0.5,0,1,0.1,1.4,0.1
		c3.1,0.8,5.4,3.7,5.4,6.9v3.5c0,1.2-0.3,2.4-0.9,3.5c-1.3,1.2-3,2.8-3.4,3.2c-0.4,0.4-0.7,0.5-0.8,0.6h-1.4
		c-0.1-1.6-1.4-2.2-2.1-2.3h-0.1h-3c-0.3,0-1.1-0.7-1.4-1c-0.1-0.1-0.2-0.2-0.3-0.3c-0.6-0.6-1.5-0.6-1.6-0.6c-0.6,0-1.3,0-2.1,0
		C20.9,25.4,20.6,24.4,20.6,23.3z M41.3,28c-1.1,1.9-7.3,10-9.8,10H17.4h-0.1l-5.2-5.5c2.5-2.2,5.3-4.6,5.9-5c0.4,0,1.5,0,2.6,0
		c0.2,0.1,0.4,0.1,0.6,0l0,0c0.8,0,1.6,0,2.1,0c0.2,0,0.6,0.1,0.9,0.3c0.1,0.1,0.2,0.2,0.3,0.3c0.6,0.6,1.4,1.3,2.2,1.3h2.9
		c0.2,0.1,1.1,0.3,1.1,1.5c0,1-0.5,1.5-1.8,1.5h-7.1c-0.3,0-0.6,0.3-0.6,0.6s0.3,0.6,0.6,0.6h7.1c1.9,0,2.6-0.8,2.9-1.7h1.6h0.1
		c0.1,0,0.8-0.2,1.5-0.9c0.3-0.4,2-1.9,3.4-3.2c0,0,0,0,0.1-0.1c0.5-0.5,1-0.9,1.3-1.2c0.2-0.2,0.9-0.5,1.1-0.3
		C41.4,26.6,41.8,27.1,41.3,28z"></path>
      <path d="M30.4,21.5l0.1-0.8h-1.9c0,0.2,0,0.5,0,0.8H30.4z"></path>
      <path d="M29,19.9c0.3-0.4,0.7-0.7,1.2-0.7c0.4,0,0.6,0.1,0.8,0.4c0.2,0.2,0.3,0.6,0.4,1h1.3c0-0.5-0.2-0.9-0.4-1.3
		c-0.2-0.4-0.5-0.6-0.9-0.8c-0.4-0.2-0.8-0.3-1.3-0.3c-0.6,0-1.2,0.1-1.6,0.4s-0.8,0.7-1,1.2c-0.1,0.3-0.2,0.5-0.3,0.8h1.4
		C28.8,20.4,28.9,20.1,29,19.9z"></path>
      <path d="M26.6,20.7v0.8h0.7c0-0.3,0-0.6,0.1-0.8H26.6z"></path>
      <path d="M28.6,21.8c0-0.1,0-0.2,0-0.3h-1.3c0,0.1,0,0.2,0,0.2c0,0.1,0,0.2,0,0.3h1.3C28.6,22,28.6,21.9,28.6,21.8z"></path>
      <path d="M27.3,22.1h-0.7v0.8h0.7C27.3,22.6,27.3,22.3,27.3,22.1z"></path>
      <path d="M30.2,22.9l0.1-0.8h-1.7c0,0.3,0,0.6,0.1,0.8H30.2z"></path>
      <path d="M27.6,23.6c0.2,0.5,0.6,1,1,1.3s1,0.4,1.6,0.4c0.5,0,1-0.1,1.3-0.3c0.4-0.2,0.7-0.5,0.9-0.8c0.2-0.4,0.4-0.8,0.4-1.3h-1.3
		c0,0.4-0.2,0.8-0.4,1s-0.5,0.4-0.9,0.4c-0.3,0-0.6-0.1-0.8-0.3c-0.2-0.2-0.4-0.5-0.6-0.9c0-0.1-0.1-0.2-0.1-0.3h-1.3
		C27.4,23.1,27.5,23.4,27.6,23.6z"></path>
    </g>
  </symbol>
  <symbol version="1.1" id="carte-interactive" xmlns="http://www.w3.org/2000/svg" xmlns:xlink="http://www.w3.org/1999/xlink" x="0px" y="0px" xml:space="preserve" viewBox="0 0 50 50">
    <g>
      <path d="M40.1,17.3l-2.2-0.9c-0.4-0.2-0.8,0-1,0.4s0,0.8,0.4,1l1.8,0.8v19.7l-8.3-3.5v-1.1c0-0.4-0.3-0.8-0.8-0.8
		s-0.8,0.3-0.8,0.8v1.2l-9.3,3.3v-19l2.7-1.2c0.4-0.2,0.6-0.6,0.4-1s-0.6-0.6-1-0.4l-2.9,1.3l-9.2-3.8c-0.2-0.1-0.5,0-0.7,0.1
		c-0.2,0.1-0.3,0.4-0.3,0.6v19.6c0,0.3,0.2,0.6,0.4,0.7l9.5,4.9l0,0c0.1,0,0.2,0.1,0.3,0.1s0.2,0,0.2,0l0,0L30,36.3l9.4,3.9
		c0.1,0,0.2,0.1,0.3,0.1s0.3,0,0.4-0.1c0.2-0.1,0.3-0.4,0.3-0.6V18C40.6,17.7,40.4,17.5,40.1,17.3z M18.4,38l-7.9-4.1v-18l7.9,3.2
		V38z"></path>
      <path d="M30,31.3c0.3,0,0.6-0.2,0.7-0.5c1.3-3.2,5.5-13.7,5.5-15.1c0-3.5-2.8-6.3-6.2-6.3s-6.2,2.8-6.2,6.3
		c0,1.4,4.2,11.9,5.5,15.1C29.5,31.1,29.7,31.3,30,31.3z M30,10.9c2.6,0,4.7,2.1,4.7,4.8c0,0.9-2.3,6.9-4.7,12.8
		c-2.4-5.9-4.7-11.9-4.7-12.8C25.3,13.1,27.5,10.9,30,10.9z"></path>
      <path d="M33,15.7c0-1.7-1.3-3-3-3s-3,1.4-3,3s1.3,3,3,3C31.7,18.8,33,17.4,33,15.7z M28.6,15.7c0-0.8,0.7-1.5,1.5-1.5
		s1.5,0.7,1.5,1.5s-0.7,1.5-1.5,1.5C29.2,17.2,28.6,16.6,28.6,15.7z"></path>
    </g>
  </symbol>
  <symbol version="1.1" id="carte" xmlns="http://www.w3.org/2000/svg" xmlns:xlink="http://www.w3.org/1999/xlink" x="0px" y="0px" xml:space="preserve" viewBox="0 0 50 50">
    <g id="Maquette">
      <g id="_x30_3_x5F_recherche-artisans-map" transform="translate(-1606.000000, -684.000000)">
        <g id="bt-carte" transform="translate(1586.000000, 676.000000)">
          <g id="icon-map">
            <g transform="translate(20.000000, 8.000000)">
              <g id="Group-3" transform="translate(0.000000, 0.498000)">
                <g id="Clip-2_00000153670975601343220530000015725726330493971072_"></g>
                <path id="Fill-1_00000141432090338780967930000007388664942119795639_" d="M24.8,37.3
							c-2.5-1.8-10.6-8.4-10.6-15.6c0-5.8,4.8-10.6,10.6-10.6s10.6,4.8,10.6,10.6C35.4,28.9,27.2,35.3,24.8,37.3 M24.8,8.5
							c-7.2,0-13.2,5.9-13.2,13.2c0,9.8,12,17.9,12.4,18.2c0.3,0.1,0.5,0.3,0.8,0.3c0.3,0,0.5-0.1,0.8-0.3
							c0.5-0.4,12.4-8.4,12.4-18.2C37.9,14.4,32,8.5,24.8,8.5"></path>
              </g>
              <path id="Fill-4" d="M24.8,24.9c-1.4,0-2.7-1.2-2.7-2.7c0-1.4,1.2-2.7,2.7-2.7c1.4,0,2.7,1.2,2.7,2.7
						C27.5,23.6,26.2,24.9,24.8,24.9 M24.8,16.9c-2.8,0-5.3,2.3-5.3,5.3c0,2.8,2.3,5.3,5.3,5.3s5.3-2.3,5.3-5.3
						C30.1,19.3,27.6,16.9,24.8,16.9"></path>
            </g>
          </g>
        </g>
      </g>
    </g>
  </symbol>
  <symbol version="1.1" id="catalogues" xmlns="http://www.w3.org/2000/svg" xmlns:xlink="http://www.w3.org/1999/xlink" x="0px" y="0px" xml:space="preserve" viewBox="0 0 50 50">
    <g id="Maquette_00000051359391255237553620000010170969804579872428_">
      <g id="_x30_1_x5F_home-v5" transform="translate(-23.000000, -794.000000)">
        <g id="barre-raccourcis" transform="translate(-83.000000, 331.000000)">
          <g id="catalogues">
            <g transform="translate(106.000000, 463.000000)">
              <g id="Clip-2"></g>
              <path id="Fill-1" d="M32.6,24.3v-7.8h7l-3.4,3.4c-0.1,0.1-0.2,0.3-0.2,0.5c0,0.2,0.1,0.4,0.2,0.5l3.4,3.4H32.6z
						 M35.9,35.4c0,1.7-1.3,3.2-3.1,3.2H12c-1.7,0-3.1-1.4-3.1-3.2v-0.3c0-1.7,1.3-3.2,3.1-3.2h19.9c0.4,0,0.7-0.3,0.7-0.7v-5.6h3.3
						C35.9,25.6,35.9,35.4,35.9,35.4z M12,11h19.2v19.6H12c-1.2,0-2.2,0.5-3.1,1.2V14.2C8.9,12.4,10.3,11,12,11L12,11z M35.9,14.2
						v0.9h-3.3V11h0.2C34.5,11,35.9,12.4,35.9,14.2L35.9,14.2z M37.6,20.4l4.2-4.1c0.2-0.2,0.3-0.5,0.2-0.8
						c-0.1-0.3-0.4-0.4-0.6-0.4h-4v-0.9c0-2.6-2-4.6-4.5-4.6H12c-2.5,0-4.5,2-4.5,4.6v21.3c0,2.6,2,4.6,4.5,4.6h20.9
						c2.5,0,4.5-2,4.5-4.6v-9.7h3.9c0.3,0,0.5-0.2,0.6-0.4c0.1-0.3,0-0.6-0.2-0.8L37.6,20.4z"></path>
            </g>
          </g>
        </g>
      </g>
    </g>
  </symbol>
  <symbol version="1.1" id="contact" xmlns="http://www.w3.org/2000/svg" xmlns:xlink="http://www.w3.org/1999/xlink" x="0px" y="0px" xml:space="preserve" viewBox="0 0 50 50">
    <g id="Maquette">
      <g id="_x30_5_x5F_fiche-artisan_00000047061761474177596480000001654343518854454191_" transform="translate(-222.000000, -973.000000)">
        <g id="Engagements_00000112590833705769157980000012577145031727632304_" transform="translate(222.000000, 833.000000)">
          <g id="Contact" transform="translate(0.000000, 140.000000)">
            <g id="icon-contact">
              <g>
                <path id="Fill-1_00000018951746865012715090000015831294052525424274_" d="M41.8,36.8l-1,1
							c-0.1,0.1-0.5,0.1-0.7-0.2l-7-7c-0.3-0.2-0.3-0.5-0.2-0.7l1-1c0,0,0.1-0.1,0.2-0.1c0.2,0,0.4,0.1,0.5,0.3l7,7
							C41.9,36.3,42,36.7,41.8,36.8L41.8,36.8z M35.6,40.9c-0.9,0.9-1.9,1.4-2.9,1.4h-0.1c-1.7,0-3-1.4-3-1.4L9,20.2
							c-1-1-1.4-2-1.4-3c-0.1-1.8,1.3-3.3,1.4-3.3l2.7-2.7l6.2,6.2l-3,3c-0.1,0.1-0.2,0.3-0.2,0.5s0.1,0.4,0.2,0.5l13.7,13.7
							c0.3,0.3,0.7,0.3,1,0l2.9-2.9l6,6L35.6,40.9z M12.2,9.1l1-1c0,0,0.1-0.1,0.2-0.1c0.2,0,0.4,0.1,0.5,0.3l7,7
							c0.1,0.1,0.2,0.3,0.3,0.5c0,0.1,0,0.2-0.1,0.3l-1,1c-0.1,0.1-0.5,0.1-0.7-0.2l-7-7C12.1,9.6,12.1,9.3,12.2,9.1L12.2,9.1z
							 M42.6,35.1l-7-7c-0.8-0.8-2-0.9-2.7-0.2l-1,1c-0.5,0.5-0.6,1.3-0.3,2.1l-2.5,2.5L16.4,20.8l2.6-2.6c0.3,0.2,0.6,0.2,0.9,0.2
							c0.4,0,0.9-0.2,1.2-0.5l1-1c0.4-0.4,0.5-0.9,0.5-1.4c-0.1-0.5-0.3-1-0.7-1.3l-7-7c-0.8-0.8-2-0.9-2.7-0.2l-1,1
							c-0.5,0.6-0.6,1.3-0.3,2L8,12.9c-0.1,0.1-1.8,1.8-1.9,4.2c0,1.5,0.6,2.8,1.8,4.1l20.6,20.6c0.1,0.1,1.7,1.8,4,1.9h0.1
							c1.4,0,2.7-0.6,3.9-1.8l2.9-2.9c0.3,0.2,0.7,0.3,1.1,0.3c0.4,0,0.9-0.2,1.2-0.5l1-1C43.5,37.1,43.5,35.9,42.6,35.1L42.6,35.1z
							"></path>
                <path id="Fill-3_00000060018824533692110310000008507912872973783721_" d="M27.6,11.2h11.8l-2.6,2.5
							c-0.3,0.3-0.3,0.7,0,1c0.1,0.1,0.3,0.2,0.5,0.2s0.4-0.1,0.5-0.2l3.8-3.8l0,0c0.2,0.1,0.2,0,0.3-0.1c0-0.1,0.1-0.2,0.1-0.3
							s0-0.2-0.1-0.3c0-0.1-0.1-0.2-0.2-0.2l0,0l-3.8-3.8c-0.3-0.3-0.7-0.3-1,0c-0.3,0.3-0.3,0.7,0,1l2.6,2.5H27.6
							c-0.4,0-0.7,0.3-0.7,0.7S27.3,11.2,27.6,11.2"></path>
                <path id="Fill-5_00000078731375319906833460000018192086057557098660_" d="M26.3,18.5c0,0.1,0.1,0.2,0.2,0.2l0,0
							l3.8,3.8c0.1,0.1,0.3,0.2,0.5,0.2s0.4-0.1,0.5-0.2c0.3-0.3,0.3-0.7,0-1L28.7,19h11.8c0.4,0,0.7-0.3,0.7-0.7s-0.3-0.7-0.7-0.7
							H28.7l2.6-2.5c0.3-0.3,0.3-0.7,0-1s-0.7-0.3-1,0l-3.8,3.8l0,0c-0.1,0.1-0.1,0.1-0.2,0.2c0,0.1-0.1,0.2-0.1,0.3
							C26.3,18.3,26.3,18.4,26.3,18.5"></path>
              </g>
            </g>
          </g>
        </g>
      </g>
    </g>
  </symbol>
  <symbol version="1.1" id="devis" xmlns="http://www.w3.org/2000/svg" xmlns:xlink="http://www.w3.org/1999/xlink" x="0px" y="0px" xml:space="preserve" viewBox="0 0 50 50">
    <g id="Maquette_00000008147179626161298660000018281066436555864196_">
      <g id="_x30_5_x5F_fiche-artisan" transform="translate(-230.000000, -1047.000000)">
        <g id="Engagements" transform="translate(222.000000, 833.000000)">
          <g id="Devis-3-semaines" transform="translate(8.000000, 214.000000)">
            <g id="icon-devis">
              <g>
                <path id="Fill-1" d="M10.1,40.4h23.8v-3H10.1V40.4z M28.6,14.4v-4.4l4.4,4.4H28.6z M34.5,34.5
							c-0.4,0-0.6,0.3-0.6,0.6v1H10.1v-27h17.2v5.9c0,0.4,0.3,0.6,0.6,0.6h5.9v5.1c0,0.4,0.3,0.6,0.6,0.6c0.4,0,0.6-0.3,0.6-0.6
							v-5.7l0,0c0-0.1,0-0.1,0-0.2c0,0,0,0,0-0.1c0-0.1-0.1-0.1-0.1-0.2l-6.5-6.5C28.4,8,28.4,8,28.4,8c0,0,0,0-0.1,0
							c-0.1,0-0.1,0-0.2,0l0,0H9.5C9.1,7.9,8.9,8.2,8.9,8.6v28.2v4.3c0,0.4,0.3,0.6,0.6,0.6h25c0.4,0,0.6-0.3,0.6-0.6v-4.3v-1.6
							C35.1,34.8,34.9,34.5,34.5,34.5L34.5,34.5z"></path>
                <path id="Fill-3" d="M34.5,32.9c-2.7,0-4.9-2.2-4.9-4.9s2.2-4.9,4.9-4.9c2.7,0,4.9,2.2,4.9,4.9
							S37.2,32.9,34.5,32.9 M34.5,21.9c-3.4,0-6.2,2.8-6.2,6.2s2.8,6.2,6.2,6.2c3.4,0,6.2-2.8,6.2-6.2S37.9,21.9,34.5,21.9"></path>
                <path id="Fill-4" d="M12.5,12.3H17c0.4,0,0.6-0.3,0.6-0.6c0-0.4-0.3-0.6-0.6-0.6h-4.6c-0.4,0-0.6,0.4-0.6,0.6
							C11.8,12,12.1,12.3,12.5,12.3"></path>
                <path id="Fill-5" d="M12.5,14.6h7.1c0.4,0,0.6-0.3,0.6-0.6s-0.3-0.6-0.6-0.6h-7.1c-0.4,0-0.6,0.3-0.6,0.6
							S12.1,14.6,12.5,14.6"></path>
                <path id="Fill-6" d="M36.8,25.9L34,29l-1.5-1.5c-0.3-0.3-0.6-0.3-0.9,0s-0.3,0.6,0,0.9l2,2
							c0.1,0.1,0.3,0.2,0.4,0.2l0,0c0.2,0,0.4-0.1,0.4-0.2l3.3-3.7c0.3-0.3,0.2-0.6-0.1-0.9C37.5,25.6,37,25.6,36.8,25.9"></path>
                <path id="Fill-7_00000010306522325885250690000002591704046121153154_" d="M27.1,20H15c-0.4,0-0.6,0.3-0.6,0.6
							s0.3,0.6,0.6,0.6h12.1c0.4,0,0.6-0.3,0.6-0.6C27.7,20.3,27.5,20,27.1,20"></path>
                <path id="Fill-8" d="M27.1,24.1H12.5c-0.4,0-0.6,0.3-0.6,0.6c0,0.4,0.3,0.6,0.6,0.6h14.6c0.4,0,0.6-0.3,0.6-0.6
							C27.7,24.4,27.5,24.1,27.1,24.1"></path>
                <path id="Fill-9" d="M27.7,28.7c0-0.4-0.3-0.6-0.6-0.6H12.5c-0.4,0-0.6,0.3-0.6,0.6c0,0.4,0.3,0.6,0.6,0.6h14.6
							C27.5,29.4,27.7,29,27.7,28.7"></path>
                <path id="Fill-10" d="M12.5,32.2c-0.4,0-0.6,0.3-0.6,0.6c0,0.4,0.3,0.6,0.6,0.6H25c0.4,0,0.6-0.3,0.6-0.6
							c0-0.4-0.3-0.6-0.6-0.6H12.5z"></path>
              </g>
            </g>
          </g>
        </g>
      </g>
    </g>
  </symbol>
  <symbol version="1.1" id="facebook" xmlns="http://www.w3.org/2000/svg" xmlns:xlink="http://www.w3.org/1999/xlink" x="0px" y="0px" xml:space="preserve" viewBox="0 0 50 50">
    <g id="Maquette">
      <g id="_x30_1_x5F_home-v5" transform="translate(-1351.000000, -52.000000)">
        <g id="Header" transform="translate(-1.000000, -2.000000)">
          <g id="reseaux-sociaux">
            <g transform="translate(1352.000000, 54.000000)">
              <g id="Group-9">
                <g>
                  <g id="Clip-8"></g>
                  <path id="Fill-7" d="M41,24.9c0-8.9-7.3-16.2-16.2-16.2S8.6,15.9,8.6,24.9c0,8,6,14.8,13.7,16.1V29.6h-4.1v-4.7
								h4.1v-3.6c0-4.1,2.4-6.3,6.1-6.3c1.8,0,3.6,0.3,3.6,0.3v4h-2c-2,0-2.7,1.3-2.7,2.6v3.1h4.5l-0.8,4.7h-3.8V41
								C35.1,39.7,41,32.9,41,24.9"></path>
                </g>
              </g>
            </g>
          </g>
        </g>
      </g>
    </g>
  </symbol>
  <symbol version="1.1" id="fiche-mail" xmlns="http://www.w3.org/2000/svg" xmlns:xlink="http://www.w3.org/1999/xlink" x="0px" y="0px" xml:space="preserve" viewBox="0 0 50 50">
    <g id="Maquette">
      <g id="_x30_3_x5F_recherche-artisans-map" transform="translate(-168.000000, -1185.000000)">
        <g id="fiche-1" transform="translate(111.000000, 783.000000)">
          <g id="bt-mail" transform="translate(41.000000, 383.000000)">
            <g id="Group-3">
              <g transform="translate(16.000000, 19.000000)">
                <g id="Clip-2"></g>
                <path id="Fill-1" d="M21.1,23.1L10.8,33.4v-18L21.1,23.1z M22.9,24.5l1.3,1c0.4,0.3,1,0.3,1.4,0l1.3-1l10.4,10.4
							H12.3L22.9,24.5z M24.8,23.3l-11.8-9h23.6L24.8,23.3z M38.8,15.4v18L28.5,23.1L38.8,15.4z M41,13v-0.1c0-0.1,0-0.1-0.1-0.1
							c0-0.1-0.1-0.3-0.1-0.3l-0.1-0.1l-0.1-0.1c-0.1,0-0.1,0-0.3-0.1c0,0-0.1,0-0.3,0H9.7c0,0-0.1,0-0.3,0c0,0-0.1,0-0.3,0.1
							C9,12.2,9,12.3,9,12.3l0,0c-0.1,0-0.1,0.1-0.1,0.1s-0.1,0.1-0.1,0.3l-0.1,0.1V13v0.1v23c0,0,0,0.1,0,0.3c0,0,0,0.1,0,0.3
							c0,0,0,0,0,0.1s0.1,0.1,0.1,0.3l0.1,0.1L9,37.4c0.1,0,0.3,0.1,0.4,0.1h30.2h0.1c0.1,0,0.3,0,0.3-0.1c0.1,0,0.1-0.1,0.3-0.1
							c0.1-0.1,0.1-0.1,0.3-0.3c0-0.1,0.1-0.1,0.1-0.3s0-0.1,0-0.3V13.1C41,13.1,41,13,41,13L41,13z"></path>
              </g>
            </g>
          </g>
        </g>
      </g>
    </g>
  </symbol>
  <symbol version="1.1" id="fiche-phone" xmlns="http://www.w3.org/2000/svg" xmlns:xlink="http://www.w3.org/1999/xlink" x="0px" y="0px" xml:space="preserve" viewBox="0 0 50 50">
    <g id="Maquette_00000132786883588057196560000009061800289975606926_">
      <g id="_x30_3_x5F_recherche-artisans-map_00000114048321476141134820000008346368964215242649_" transform="translate(-253.000000, -1182.000000)">
        <g id="fiche-1_00000162341633939987034110000012964528558250322364_" transform="translate(111.000000, 783.000000)">
          <g id="bt-phone" transform="translate(121.000000, 383.000000)">
            <g id="Group-8">
              <g transform="translate(21.000000, 16.000000)">
                <g id="Group-3_00000024723584133958358950000011459574164920289413_" transform="translate(0.000000, 0.368200)">
                  <g id="Clip-2_00000058565762757304771240000011007788611745383047_"></g>
                  <path id="Fill-1_00000154405208001158257870000015188376397569476272_" d="M33.3,35.2v3.6c0,0.1,0,0.1-0.1,0.1
								H16.4c-0.1,0-0.1,0-0.1-0.1v-3.6H33.3z M16.2,32.9h17.1V16.7H16.2V32.9z M16.2,14.4v-4.3c0-0.1,0-0.1,0.1-0.1h16.8
								c0.1,0,0.1,0,0.1,0.1v4.3H16.2z M33.2,7.6H16.4c-1.3,0-2.4,1.1-2.4,2.4v28.7c0,1.3,1.1,2.4,2.4,2.4h16.8
								c1.3,0,2.4-1.1,2.4-2.4V10.1C35.6,8.8,34.5,7.6,33.2,7.6L33.2,7.6z"></path>
                </g>
                <path id="Fill-4" d="M27.3,11.3h-4.6c-0.6,0-1.1,0.6-1.1,1.1c0,0.6,0.6,1.1,1.1,1.1h4.6c0.6,0,1.1-0.6,1.1-1.1
							C28.4,11.9,27.9,11.3,27.3,11.3"></path>
                <path id="Fill-6" d="M23.7,38.6h3.6c0.6,0,1.1-0.6,1.1-1.1s-0.6-1.1-1.1-1.1h-3.6c-0.6,0-1.1,0.6-1.1,1.1
							S23.1,38.6,23.7,38.6"></path>
              </g>
            </g>
          </g>
        </g>
      </g>
    </g>
  </symbol>
  <symbol version="1.1" id="fiche-plus" xmlns="http://www.w3.org/2000/svg" xmlns:xlink="http://www.w3.org/1999/xlink" x="0px" y="0px" xml:space="preserve" viewBox="0 0 50 50">
    <g id="Maquette">
      <g id="_x30_3_x5F_recherche-artisans-map" transform="translate(-329.000000, -1183.000000)">
        <g id="fiche-1" transform="translate(111.000000, 783.000000)">
          <g id="bt-plus" transform="translate(200.000000, 383.000000)">
            <g id="Group-3">
              <g transform="translate(18.000000, 17.000000)">
                <g id="Clip-2"></g>
                <path id="Fill-1" d="M39.1,23.3H26.3V10.5c0-0.8-0.6-1.5-1.5-1.5c-0.8,0-1.5,0.6-1.5,1.5v12.8H10.5
							c-0.8,0-1.5,0.6-1.5,1.5c0,0.8,0.6,1.5,1.5,1.5h12.8v12.8c0,0.8,0.6,1.5,1.5,1.5c0.8,0,1.5-0.6,1.5-1.5V26.3h12.8
							c0.8,0,1.5-0.6,1.5-1.5C40.6,23.9,39.8,23.3,39.1,23.3"></path>
              </g>
            </g>
          </g>
        </g>
      </g>
    </g>
  </symbol>
  <symbol version="1.1" id="garantie" xmlns="http://www.w3.org/2000/svg" xmlns:xlink="http://www.w3.org/1999/xlink" x="0px" y="0px" xml:space="preserve" viewBox="0 0 50 50">
    <g id="Maquette_00000093891677581784736290000009154728524498672798_">
      <g id="_x30_5_x5F_fiche-artisan" transform="translate(-494.000000, -973.000000)">
        <g id="Engagements" transform="translate(222.000000, 833.000000)">
          <g id="Garantie-biennale" transform="translate(272.000000, 140.000000)">
            <g id="icon-garantie">
              <g>
                <path id="Fill-1_00000098907115792543318270000013392203668470882213_" d="M37.7,40.1l-0.8-0.9
							c-0.1-0.1-0.3-0.2-0.5-0.2s-0.4,0.1-0.5,0.2l-0.8,0.9v-4.9l0,0c0.4,0.1,0.8,0.2,1.3,0.2c0.2,0,0.5,0,0.7-0.1c0,0,0,0,0.1,0
							c0.2,0,0.4-0.1,0.6-0.1l0,0L37.7,40.1L37.7,40.1z M34.7,29.6c0.5-0.3,1-0.5,1.6-0.5s1.1,0.2,1.6,0.5c0.6,0.5,1,1.2,1,1.9
							s-0.4,1.5-1,1.9c-0.9,0.7-2.3,0.7-3.2,0c-0.6-0.5-1-1.2-1-1.9S34.1,30.1,34.7,29.6L34.7,29.6z M40.3,31.6c0-1.2-0.6-2.3-1.6-3
							c-1.4-1-3.4-1-4.9,0c-1,0.7-1.6,1.8-1.6,3c0,1.1,0.5,2.1,1.3,2.8v7.5c0,0.3,0.2,0.5,0.4,0.6c0.1,0,0.2,0,0.2,0
							c0.2,0,0.4-0.1,0.5-0.2l1.5-1.7l1.5,1.7c0.2,0.2,0.5,0.3,0.8,0.2s0.4-0.4,0.4-0.6v-7.5C39.9,33.7,40.3,32.7,40.3,31.6
							L40.3,31.6z"></path>
                <g id="Clip-4"></g>
                <polygon id="Fill-3_00000150806408697810146920000015359832659425929401_" points="12.8,11.1 17,11.1 17,9.7 
							12.8,9.7 						"></polygon>
                <polygon id="Fill-5_00000125576374664980537930000011078040525901111468_" points="12.8,14.2 19,14.2 19,12.8 
							12.8,12.8 						"></polygon>
                <polygon id="Fill-6" points="12.8,18.3 33.5,18.3 33.5,16.9 12.8,16.9 						"></polygon>
                <polygon id="Fill-7" points="12.8,23.1 33.5,23.1 33.5,21.7 12.8,21.7 						"></polygon>
                <polygon id="Fill-8_00000079444311265151997330000009741121111174250166_" points="12.8,28.1 31.8,28.1 
							31.8,26.7 12.8,26.7 						"></polygon>
                <polygon id="Fill-9" points="12.8,33 30,33 30,31.6 12.8,31.6 						"></polygon>
                <polygon id="Fill-10_00000000197795321907836620000008228295495529313173_" points="12.8,38.3 30,38.3 30,36.9 
							12.8,36.9 						"></polygon>
                <path id="Fill-11" d="M28.5,8.7l2.9,2.1l2.8,2h-5.7V8.7z M10.7,8h16.5v5.5c0,0.4,0.3,0.7,0.7,0.7h7.8v12.1h1.4
							V13.5c0-0.1,0-0.2-0.1-0.3c0,0,0,0,0-0.1s-0.1-0.2-0.2-0.2l-8.5-6.2c-0.1,0-0.1-0.1-0.2-0.1l0,0c-0.1,0-0.1,0-0.2,0l0,0H10
							c-0.4,0-0.7,0.3-0.7,0.7v35c0,0.4,0.3,0.7,0.7,0.7h22.3v-1.4H10.7V8z"></path>
              </g>
            </g>
          </g>
        </g>
      </g>
    </g>
  </symbol>
  <symbol version="1.1" id="innovation" xmlns="http://www.w3.org/2000/svg" xmlns:xlink="http://www.w3.org/1999/xlink" x="0px" y="0px" xml:space="preserve" viewBox="0 0 50 50">
    <g id="Maquette">
      <g id="_x30_1_x5F_home-v5" transform="translate(-967.000000, -6050.000000)">
        <g id="Valeurs" transform="translate(-4.000000, 5649.000000)">
          <g id="Innovation-_x26_-qualité" transform="translate(971.000000, 401.000000)">
            <g id="picto-innovation">
              <g>
                <path id="Fill-1" d="M30.3,18.8l0.6,0.6c1.2-1.1,2.7-1.6,4.3-1.4l0.1-1C33.4,16.9,31.6,17.5,30.3,18.8"></path>
                <path id="Fill-3" d="M38.8,22.7c-0.7,1.7-2.3,2.9-4.3,3.2c-0.2,0-0.3,0.1-0.3,0.3L33,29L28.5,27l1.2-2.8
							c0.1-0.1,0-0.3,0-0.4c-1.1-1.5-1.3-3.5-0.5-5.2c1.2-2.7,4.3-3.9,7-2.8c1.3,0.5,2.3,1.6,2.9,2.9C39.3,19.9,39.3,21.4,38.8,22.7
							L38.8,22.7z M31.9,31.5l-1.4-0.6l0,0l-1.8-0.7l-1.4-0.5l0.7-1.8l0.7,0.3l3.8,1.6L31.9,31.5z M27.7,38.1l-2.5-1.1L25,35.6
							l3.8,1.7L27.7,38.1z M25.7,39.5l-0.2-1.4l0.2,0.1l1.2,0.5L25.7,39.5z M27,30.4l1,0.4L26.1,35l-0.2-0.1l-0.7-0.3L27,30.4z
							 M29.6,36.5l-1-0.4l0.9-2l0.9-2l0.7,0.3l0.2,0.1L29.6,36.5z M27.8,35.8l-0.5-0.3L27,35.4l1.8-4.2l0.9,0.4l-0.2,0.3L27.8,35.8z
							 M36.4,14.8c-3.2-1.4-6.8,0.1-8.2,3.3c-0.9,1.9-0.6,4.2,0.5,6l-1.3,3l0,0l-1.2,2.6l0,0l-2.1,5l0,0v0.1l0,0l0,0l0.3,2.6l0.4,3
							c0,0.2,0.1,0.3,0.3,0.3c0.1,0,0.1,0,0.2,0s0.2,0,0.3-0.1l2.5-1.7l2.1-1.5c0,0,0,0,0.1,0l0,0c0,0,0-0.1,0.1-0.1l0,0l2.1-5l0,0
							l1.1-2.6c0,0,0,0,0-0.1l1.3-3c2-0.3,3.8-1.7,4.7-3.6c0.6-1.5,0.6-3.2,0.1-4.8C39.2,16.5,38,15.5,36.4,14.8L36.4,14.8z"></path>
                <g id="Group-7" transform="translate(0.000000, 27.217700)">
                  <g id="Clip-6"></g>
                  <path id="Fill-5" d="M18.7-4h-2.7l0.9-2.6L18.7-4z M9.5-3.2l2,6.6L6.6-3.2H9.5z M10-4.5L9.1-7h2.7L10-4.5z
								 M15.3-4.5l-1.9-2.6h2.7L15.3-4.5z M15.9-3.2h3l-5.1,6.7L15.9-3.2z M10.6-4l2-2.7l2,2.7H10.6z M14.9-3.2l-2.2,7.3l-2.2-7.3
								H14.9z M8.4-6.6L9.1-4H6.6L8.4-6.6z M13.5,12.1c-0.2-0.2-0.3-0.6-0.3-1.1V5.8L20-3.3c0.1-0.1,0.1-0.3,0-0.5l-2.9-3.9
								C17-7.8,16.9-8,16.8-8H8.6C8.5-8,8.4-7.8,8.3-7.7l-3,3.9c-0.1,0.1-0.1,0.3,0,0.5l6.8,9.1V11c0,0.7,0.2,1.3,0.6,1.7
								c0.7,0.6,1.6,0.6,1.7,0.6l0,0h7.3v-1h-7.3C14.5,12.4,13.8,12.4,13.5,12.1L13.5,12.1z"></path>
                </g>
                <path id="Fill-8" d="M36.9,13.2c0.1,0,0.1,0,0.2,0c0.2,0,0.3-0.1,0.4-0.3l1.4-3.1c0.1-0.2,0-0.5-0.2-0.6
							s-0.5,0-0.6,0.2l-1.4,3.1C36.6,12.8,36.7,13.1,36.9,13.2"></path>
                <g id="Group-12" transform="translate(93.000000, 14.217700)">
                  <g id="Clip-11"></g>
                  <path id="Fill-10" d="M-48.7,0.6c0-0.2-0.3-0.3-0.5-0.3l-3.1,1.2c-0.2,0.1-0.3,0.3-0.3,0.6
								c0.1,0.2,0.2,0.3,0.4,0.3c0.1,0,0.1,0,0.2,0l3.1-1.2C-48.7,1.1-48.6,0.8-48.7,0.6"></path>
                </g>
                <path id="Fill-13" d="M32.1,12.7c0.1,0.2,0.2,0.3,0.4,0.3c0.1,0,0.1,0,0.2,0c0.2-0.1,0.3-0.3,0.3-0.6l-1.2-3.1
							C31.8,9.1,31.6,9,31.2,9c-0.2,0.1-0.3,0.3-0.3,0.6L32.1,12.7z"></path>
              </g>
            </g>
          </g>
        </g>
      </g>
    </g>
  </symbol>
  <symbol version="1.1" id="instagram" xmlns="http://www.w3.org/2000/svg" xmlns:xlink="http://www.w3.org/1999/xlink" x="0px" y="0px" xml:space="preserve" viewBox="0 0 50 50">
    <g id="Maquette_00000180362761949404555510000013391454752561589682_">
      <g id="_x30_1_x5F_home-v5_00000116193979032848258830000002577436778841917102_" transform="translate(-1410.000000, -52.000000)">
        <g id="Header_00000129919693260167478830000016356532277649674431_" transform="translate(-1.000000, -2.000000)">
          <g id="reseaux-sociaux_00000101781924114465230470000008809504702758407328_">
            <g transform="translate(1352.000000, 54.000000)">
              <g id="Group-6_00000038410314758107185810000004799169525182029717_">
                <g transform="translate(59.000000, 0.000000)">
                  <g id="Clip-5_00000009564686810886591740000015036942021954153655_"></g>
                  <path id="Fill-4" d="M31.3,19.7c0,0.6-0.5,1.3-1.3,1.3c-0.6,0-1.3-0.5-1.3-1.3c0-0.6,0.5-1.3,1.3-1.3
								S31.3,18.9,31.3,19.7 M24.6,28.6c-1.9,0-3.5-1.6-3.5-3.5s1.6-3.5,3.5-3.5s3.5,1.6,3.5,3.5C28.1,27.1,26.5,28.6,24.6,28.6
								 M24.6,19.8c-3,0-5.3,2.3-5.3,5.3s2.3,5.3,5.3,5.3c3,0,5.3-2.3,5.3-5.3C29.9,22.3,27.6,19.8,24.6,19.8 M24.6,16.7
								c2.7,0,3.1,0,4.1,0s1.6,0.3,1.9,0.4c0.5,0.1,0.8,0.4,1.2,0.8c0.4,0.4,0.6,0.6,0.8,1.2c0.1,0.4,0.3,0.9,0.4,1.9
								c0,1,0,1.4,0,4.1s0,3.1,0,4.1c0,1-0.3,1.6-0.4,1.9c-0.1,0.5-0.4,0.8-0.8,1.2c-0.4,0.4-0.6,0.6-1.2,0.8
								c-0.4,0.1-0.9,0.3-1.9,0.4c-1,0-1.4,0-4.1,0s-3.1,0-4.1,0s-1.6-0.3-1.9-0.4c-0.5-0.1-0.8-0.4-1.2-0.8
								c-0.4-0.4-0.6-0.6-0.8-1.2c-0.1-0.4-0.3-0.9-0.4-1.9c0-1,0-1.4,0-4.1s0-3.1,0-4.1s0.3-1.6,0.4-1.9c0.1-0.5,0.4-0.8,0.8-1.2
								c0.4-0.4,0.6-0.6,1.2-0.8c0.4-0.1,0.9-0.3,1.9-0.4C21.5,16.7,21.9,16.7,24.6,16.7 M24.6,14.9c-2.9,0-3.1,0-4.3,0
								c-1,0-1.8,0.3-2.5,0.5S16.5,16,16,16.6c-0.5,0.5-0.9,1.2-1.2,1.8s-0.4,1.4-0.5,2.5c0,1,0,1.4,0,4.3s0,3.1,0,4.3
								c0,1,0.3,1.8,0.5,2.5c0.3,0.6,0.6,1.3,1.2,1.8s1.2,0.9,1.8,1.2c0.6,0.3,1.4,0.4,2.5,0.5c1,0,1.4,0,4.3,0s3.1,0,4.3,0
								c1,0,1.8-0.3,2.5-0.5c0.6-0.3,1.3-0.6,1.8-1.2s0.9-1.2,1.2-1.8c0.3-0.6,0.4-1.4,0.5-2.5c0-1,0-1.4,0-4.3s0-3.1,0-4.3
								c0-1-0.3-1.8-0.5-2.5c-0.3-0.6-0.6-1.3-1.2-1.8c-0.5-0.5-1.2-0.9-1.8-1.2c-0.6-0.3-1.4-0.4-2.5-0.5
								C27.8,14.9,27.4,14.9,24.6,14.9 M24.6,8.7C33.6,8.7,41,16,41,25.1s-7.4,16.5-16.5,16.5S8.1,34.2,8.1,25.1
								C8.1,16,15.5,8.7,24.6,8.7"></path>
                </g>
              </g>
            </g>
          </g>
        </g>
      </g>
    </g>
  </symbol>
  <symbol version="1.1" id="k" xmlns="http://www.w3.org/2000/svg" xmlns:xlink="http://www.w3.org/1999/xlink" x="0px" y="0px" xml:space="preserve" viewBox="0 0 50 50">
    <path d="M32.6,32.5l-5-8.2c-0.1-0.2-0.3-0.3-0.5-0.3c-0.3,0-0.4,0.1-0.6,0.2L19.6,31v-2L32,16.5c0.2-0.2,0.3-0.5,0.2-0.7
	c-0.1-0.3-0.3-0.4-0.7-0.4h-4c-0.2,0-0.3,0.1-0.5,0.2l-7.4,7.3v-5.5h-1.4v7.2c0,0.3,0.2,0.6,0.4,0.7c0.2,0.1,0.6,0.1,0.7-0.2
	l8.4-8.4h2.1L18.3,28.3c-0.2,0.2-0.2,0.3-0.2,0.5v4c0,0.3,0.2,0.6,0.4,0.7c0.3,0.1,0.6,0.1,0.7-0.2l7.4-7.4l3.9,6.4H29l-1.3-2.2
	l-1.3,0.7l1.5,2.5c0.2,0.2,0.3,0.3,0.6,0.3h3.3c0.2,0,0.5-0.2,0.6-0.3C32.7,32.9,32.7,32.6,32.6,32.5z"></path>
    <path d="M25,41.1c-9.1,0-16.5-7.4-16.5-16.5S15.9,8,25,8s16.5,7.4,16.5,16.5S34.1,41.1,25,41.1z M25,9.6c-8.3,0-15,6.7-15,15
	s6.7,15,15,15s15-6.7,15-15S33.3,9.6,25,9.6z"></path>
  </symbol>
  <symbol version="1.1" id="liste" xmlns="http://www.w3.org/2000/svg" xmlns:xlink="http://www.w3.org/1999/xlink" x="0px" y="0px" xml:space="preserve" viewBox="0 0 50 50">
    <g id="Maquette">
      <g id="_x30_3_x5F_recherche-artisans-map" transform="translate(-1467.000000, -688.000000)">
        <g id="bt-liste" transform="translate(1447.000000, 676.000000)">
          <g id="icon-liste">
            <g transform="translate(20.000000, 12.000000)">
              <path id="Fill-1" d="M10.9,16.4h28.3c0.8,0,1.3-0.5,1.3-1.3c0-0.8-0.5-1.3-1.3-1.3H10.9c-0.8,0-1.3,0.5-1.3,1.3
						C9.6,15.8,10.1,16.4,10.9,16.4"></path>
              <path id="Fill-3" d="M10.9,26.8h19.6c0.8,0,1.3-0.5,1.3-1.3s-0.5-1.3-1.3-1.3H10.9c-0.8,0-1.3,0.5-1.3,1.3
						S10.1,26.8,10.9,26.8"></path>
              <g id="Group-7" transform="translate(0.000000, 16.673800)">
                <g id="Clip-6"></g>
                <path id="Fill-5" d="M39.2,18.2H10.9c-0.8,0-1.3,0.5-1.3,1.3c0,0.8,0.5,1.3,1.3,1.3h28.3c0.8,0,1.3-0.5,1.3-1.3
							C40.5,18.7,40,18.2,39.2,18.2"></path>
              </g>
            </g>
          </g>
        </g>
      </g>
    </g>
  </symbol>
  <symbol version="1.1" id="mail" xmlns="http://www.w3.org/2000/svg" xmlns:xlink="http://www.w3.org/1999/xlink" x="0px" y="0px" xml:space="preserve" viewBox="0 0 50 50">
    <g id="Maquette_00000064327291262189130090000007928148692808797109_">
      <g id="_x30_1_x5F_home-v5" transform="translate(-222.000000, -9761.000000)">
        <g id="Contact" transform="translate(222.000000, 9276.000000)">
          <g id="mail" transform="translate(0.000000, 485.000000)">
            <g id="Group-8">
              <g>
                <g id="Group-3" transform="translate(0.000000, 0.625800)">
                  <g id="Clip-2"></g>
                  <path id="Fill-1_00000045606423749021720550000015594708011830740630_" d="M42.5,32.1l-4.3-6.4
								c-0.1-0.2-0.3-0.3-0.5-0.3H36H15.3c-0.3,0-0.6-0.3-0.6-0.6v-11V9.1c0-0.3,0.3-0.6,0.6-0.6h26.6c0.3,0,0.6,0.3,0.6,0.6
								C42.5,9.1,42.5,32.1,42.5,32.1z M35.4,30.7c0,0.3-0.3,0.6-0.6,0.6H12.4c-0.2,0-0.4,0.1-0.5,0.3L7.6,38V15
								c0-0.3,0.3-0.6,0.6-0.6h5.3v10.4c0,1,0.8,1.8,1.8,1.8h20.1C35.4,26.6,35.4,30.7,35.4,30.7z M41.9,7.3H15.3
								c-1,0-1.8,0.8-1.8,1.8v4.1H8.2c-1,0-1.8,0.8-1.8,1.8v25c0,0.3,0.2,0.5,0.4,0.6c0.1,0,0.1,0,0.2,0c0.2,0,0.4-0.1,0.5-0.3
								l5.2-7.8h22c1,0,1.8-0.8,1.8-1.8v-4.1h0.8l5.2,7.8c0.1,0.2,0.3,0.3,0.5,0.3c0.1,0,0.1,0,0.2,0c0.3-0.1,0.4-0.3,0.4-0.6v-25
								C43.7,8.1,42.9,7.3,41.9,7.3L41.9,7.3z"></path>
                </g>
                <g id="Clip-5"></g>
                <polygon id="Fill-4" points="17.8,13.9 25.2,13.9 25.2,12.7 17.8,12.7 						"></polygon>
                <polygon id="Fill-6" points="17.8,17.7 32.6,17.7 32.6,16.5 17.8,16.5 						"></polygon>
                <polygon id="Fill-7" points="17.8,21.1 39.9,21.1 39.9,19.9 17.8,19.9 						"></polygon>
              </g>
            </g>
          </g>
        </g>
      </g>
    </g>
  </symbol>
  <symbol version="1.1" id="phone" xmlns="http://www.w3.org/2000/svg" xmlns:xlink="http://www.w3.org/1999/xlink" x="0px" y="0px" xml:space="preserve" viewBox="0 0 50 50">
    <g id="Maquette">
      <g id="_x30_1_x5F_home-v5_00000134233522265137320250000000717556788297183367_" transform="translate(-229.000000, -9691.000000)">
        <g id="Contact_00000047768155164909019020000001966317227197670065_" transform="translate(222.000000, 9276.000000)">
          <g id="tel" transform="translate(7.000000, 415.000000)">
            <g id="Group-12">
              <g>
                <g id="Group-3_00000142158574618295696070000002880656230135601539_" transform="translate(0.000000, 0.069300)">
                  <g id="Clip-2_00000065042888529486283580000006793508440740642461_"></g>
                  <path id="Fill-1" d="M34.6,40.9c0,0.5-0.4,0.9-0.9,0.9H14.4c-0.5,0-0.9-0.4-0.9-0.9v-4.8h21L34.6,40.9L34.6,40.9
								z M13.5,8.1c0-0.5,0.4-0.9,0.9-0.9h19.2c0.5,0,0.9,0.4,0.9,0.9v5.6h-21V8.1z M13.5,34.9h21V14.8h-21V34.9z M33.7,6H14.4
								c-1.1,0-2.1,0.9-2.1,2.1v6.2v21.2v5.4c0,1.1,0.9,2.1,2.1,2.1h19.2c1.1,0,2.1-0.9,2.1-2.1v-5.4V14.3V8.1
								C35.7,6.9,34.8,6,33.7,6L33.7,6z"></path>
                </g>
                <path id="Fill-4_00000074419570391251192910000010331792183438371253_" d="M26.9,9.9h-5.3c-0.3,0-0.6,0.3-0.6,0.6
							s0.3,0.6,0.6,0.6h5.3c0.3,0,0.6-0.3,0.6-0.6C27.5,10.2,27.2,9.9,26.9,9.9"></path>
                <path id="Fill-6_00000000910127743634849210000009001784587992780953_" d="M22.8,39.6h4.1c0.3,0,0.6-0.3,0.6-0.6
							s-0.3-0.6-0.6-0.6h-4.1c-0.3,0-0.6,0.3-0.6,0.6C22.2,39.3,22.5,39.6,22.8,39.6"></path>
                <path id="Fill-8" d="M17.1,17.7c-0.3,0-0.6,0.3-0.6,0.6v8.1c0,0.3,0.3,0.6,0.6,0.6c0.3,0,0.6-0.3,0.6-0.6v-8.1
							C17.6,18,17.4,17.7,17.1,17.7"></path>
                <path id="Fill-10" d="M17.1,28.7c-0.3,0-0.6,0.3-0.6,0.6v1.8c0,0.3,0.3,0.6,0.6,0.6c0.3,0,0.6-0.3,0.6-0.6v-1.8
							C17.6,29,17.4,28.7,17.1,28.7"></path>
              </g>
            </g>
          </g>
        </g>
      </g>
    </g>
  </symbol>
  <symbol version="1.1" id="photo" xmlns="http://www.w3.org/2000/svg" xmlns:xlink="http://www.w3.org/1999/xlink" x="0px" y="0px" xml:space="preserve" viewBox="0 0 50 50">
    <g id="Maquette_00000054240820373979682680000015030970129439439284_">
      <g id="_x30_1_x5F_home-v5" transform="translate(-1635.000000, -8394.000000)">
        <g id="Inspirations" transform="translate(36.000000, 7456.000000)">
          <g id="icon-photo">
            <g transform="translate(1599.000000, 938.000000)">
              <g id="Group-3" transform="translate(0.000000, 0.402400)">
                <g id="Clip-2"></g>
                <path id="Fill-1_00000067919301621514101070000009914798799908117421_" d="M42.6,34.9c0,0.5-0.4,0.8-0.8,0.8h-4.9
							l0.1-0.1l0.1-0.1c0.1-0.1,0.1-0.1,0.2-0.2l0.1-0.1c0.1-0.1,0.1-0.1,0.2-0.2l0.1-0.1c0.1-0.1,0.2-0.2,0.3-0.3c0,0,0,0,0-0.1
							c0.1-0.1,0.1-0.2,0.2-0.3l0.1-0.1c0.1-0.1,0.1-0.1,0.2-0.2l0.1-0.1c0-0.1,0.1-0.1,0.1-0.2l0.1-0.1c0-0.1,0.1-0.1,0.1-0.2
							l0.1-0.1c0.1-0.1,0.1-0.1,0.2-0.2c0,0,0-0.1,0.1-0.1c0.1-0.1,0.1-0.2,0.2-0.3c0,0,0,0,0-0.1c0.1-0.1,0.1-0.2,0.2-0.3
							c0,0,0-0.1,0.1-0.1c0-0.1,0.1-0.2,0.1-0.2s0-0.1,0.1-0.1c0-0.1,0.1-0.1,0.1-0.2c0,0,0-0.1,0.1-0.1c0-0.1,0.1-0.1,0.1-0.2
							c0,0,0-0.1,0.1-0.1c0-0.1,0.1-0.2,0.1-0.2s0-0.1,0.1-0.1c0.1-0.1,0.1-0.2,0.1-0.4c0,0,0,0,0-0.1s0.1-0.2,0.1-0.3V30
							c0-0.1,0.1-0.2,0.1-0.2c0-0.1,0-0.1,0-0.2s0-0.2,0.1-0.2c0-0.1,0-0.1,0-0.2s0-0.2,0.1-0.2c0-0.1,0-0.1,0-0.2s0-0.2,0.1-0.3
							v-0.1c0-0.1,0.1-0.3,0.1-0.4l0,0c0-0.1,0-0.2,0.1-0.4v-0.1c0-0.1,0-0.2,0-0.3c0-0.1,0-0.1,0-0.2s0-0.2,0-0.3
							c0-0.1,0-0.1,0-0.2s0-0.2,0-0.3c0-0.1,0-0.1,0-0.2s0-0.2,0-0.3v-0.1c0-0.1,0-0.3,0-0.4s0-0.3,0-0.4v-0.1c0-0.1,0-0.2,0-0.3
							c0-0.1,0-0.1,0-0.2s0-0.2,0-0.3c0-0.1,0-0.1,0-0.2s0-0.2,0-0.3c0-0.1,0-0.1,0-0.2s0-0.2,0-0.3v-0.1c0-0.1,0-0.3-0.1-0.4l0,0
							c0-0.1-0.1-0.3-0.1-0.4v-0.1c0-0.1,0-0.2-0.1-0.3c0-0.1,0-0.1,0-0.2s0-0.2-0.1-0.2c0-0.1,0-0.1,0-0.2s0-0.2-0.1-0.2
							c0-0.1,0-0.1-0.1-0.2c0-0.1-0.1-0.2-0.1-0.2v-0.1c0-0.1-0.1-0.2-0.1-0.3v-0.1c0-0.1-0.1-0.2-0.1-0.3l-0.1-0.1
							c0-0.1-0.1-0.2-0.1-0.2c0-0.1,0-0.1-0.1-0.2c0-0.1-0.1-0.1-0.1-0.2S40,18.8,40,18.7c0-0.1-0.1-0.1-0.1-0.2s-0.1-0.1-0.1-0.2
							c0-0.1-0.1-0.1-0.1-0.2L39.6,18c-0.1-0.1-0.1-0.2-0.2-0.3l-0.1-0.1c-0.1-0.1-0.1-0.2-0.2-0.3L39,17.2c0-0.1-0.1-0.1-0.1-0.2
							l-0.1-0.1c0-0.1-0.1-0.1-0.1-0.2l-0.1-0.1c0-0.1-0.1-0.1-0.1-0.2l-0.1-0.1c-0.1-0.1-0.1-0.1-0.2-0.2L38.1,16
							c-0.1-0.1-0.2-0.2-0.2-0.3c0,0,0,0-0.1-0.1s-0.2-0.2-0.2-0.3l-0.1-0.1c-0.1-0.1-0.1-0.1-0.2-0.2l-0.1-0.1
							c-0.1-0.1-0.1-0.1-0.2-0.2l-0.1-0.1c0,0-0.1,0-0.1-0.1h5.1c0.5,0,0.8,0.4,0.8,0.8v19.6H42.6z M19.8,35.8
							c-3.5-2.4-5.6-6.4-5.6-10.7c0-4.4,2.2-8.4,5.8-10.8c2.1-1.4,4.6-2.1,7.1-2.1s5,0.7,7.1,2.1c3.7,2.4,5.8,6.5,5.8,10.8
							c0,4.2-2.1,8.2-5.6,10.7c-2.2,1.5-4.7,2.3-7.4,2.3S21.9,37.3,19.8,35.8L19.8,35.8z M8.2,35.7c-0.5,0-0.8-0.4-0.8-0.8V15.3
							c0-0.5,0.4-0.8,0.8-0.8h9.4c0,0-0.1,0-0.1,0.1l-0.1,0.1c-0.1,0.1-0.1,0.1-0.2,0.2L17.1,15c-0.1,0.1-0.1,0.1-0.2,0.2l-0.1,0.1
							c-0.1,0.1-0.2,0.2-0.3,0.3l0,0c-0.1,0.1-0.2,0.2-0.3,0.3L16.1,16c-0.1,0.1-0.1,0.1-0.2,0.2l-0.1,0.1c-0.1,0.1-0.1,0.1-0.2,0.2
							l-0.1,0.1c0,0.1-0.1,0.1-0.1,0.2l-0.1,0.1c-0.1,0.1-0.1,0.1-0.2,0.2L15,17.2c-0.1,0.1-0.1,0.2-0.2,0.3l0,0
							c-0.1,0.1-0.1,0.2-0.2,0.3c0,0,0,0.1-0.1,0.1c0,0.1-0.1,0.2-0.1,0.2l-0.1,0.1c0,0.1-0.1,0.1-0.1,0.2c0,0.1,0,0.1-0.1,0.1
							c0,0.1-0.1,0.2-0.1,0.2s0,0.1-0.1,0.1c0,0.1-0.1,0.2-0.1,0.2s0,0.1-0.1,0.1c-0.1,0.1-0.1,0.2-0.1,0.4l0,0
							c0,0.1-0.1,0.2-0.1,0.4V20c0,0.1-0.1,0.2-0.1,0.3s0,0.1,0,0.2c0,0.1,0,0.2-0.1,0.2c0,0.1,0,0.1,0,0.2s0,0.2-0.1,0.2
							c0,0.1,0,0.1,0,0.2s0,0.2-0.1,0.3v0.1c0,0.5,0,0.7,0,0.8l0,0c0,0.1,0,0.3-0.1,0.4V23c0,0.1,0,0.2,0,0.3c0,0.1,0,0.1,0,0.2
							s0,0.2,0,0.3c0,0.1,0,0.1,0,0.2s0,0.2,0,0.3c0,0.1,0,0.1,0,0.2s0,0.2,0,0.3v0.1c0,0.1,0,0.3,0,0.4s0,0.3,0,0.4v0.1
							c0,0.1,0,0.2,0,0.3c0,0.1,0,0.1,0,0.2s0,0.2,0,0.3c0,0.1,0,0.1,0,0.2s0,0.2,0,0.3c0,0.1,0,0.1,0,0.2s0,0.2,0,0.3v0.1
							c0,0.1,0,0.2,0.1,0.4l0,0c0-0.2,0-0.1,0,0.1v0.1c0,0.1,0,0.2,0.1,0.3c0,0.1,0,0.1,0,0.2s0,0.2,0.1,0.2c0,0.1,0,0.1,0,0.2
							s0,0.2,0.1,0.2c0,0.1,0,0.1,0,0.2s0.1,0.2,0.1,0.2v0.1c0,0.1,0.1,0.2,0.1,0.3c0,0,0,0,0,0.1s0.1,0.2,0.1,0.4
							c0,0,0,0.1,0.1,0.1c0,0.1,0.1,0.2,0.1,0.2s0,0.1,0.1,0.1c0,0.1,0.1,0.1,0.1,0.2s0,0.1,0.1,0.2c0,0.1,0.1,0.1,0.1,0.2l0.1,0.1
							c0,0.1,0.1,0.1,0.1,0.2c0,0,0,0.1,0.1,0.1c0.1,0.1,0.1,0.2,0.2,0.3c0,0,0,0,0,0.1c0.1,0.1,0.1,0.2,0.2,0.3l0.1,0.1
							c0,0.1,0.1,0.1,0.1,0.2l0.1,0.1c0,0.1,0.1,0.1,0.1,0.2l0.1,0.1c0,0.1,0.1,0.1,0.1,0.2l0.1,0.1c0.1,0.1,0.1,0.1,0.2,0.2
							l0.1,0.1c0.1,0.1,0.1,0.2,0.2,0.2c0,0,0,0,0.1,0.1c0.1,0.1,0.2,0.2,0.3,0.3l0.1,0.1c0.1,0.1,0.1,0.1,0.2,0.2l0.1,0.1
							c0.1,0.1,0.1,0.1,0.2,0.2l0.1,0.1l0.1,0.1H8.2V35.7z M11.1,12.2h4.7c0.4,0,0.8,0.3,0.9,0.7h-6.4
							C10.4,12.5,10.7,12.2,11.1,12.2L11.1,12.2z M41.8,13.1h-6.9c-2.3-1.5-5-2.3-7.7-2.3s-5.4,0.8-7.7,2.3h-1.4l0,0
							c0-1.2-1-2.3-2.2-2.3h-4.8c-1.2,0-2.2,1-2.2,2.3l0,0H8.2c-1.2,0-2.2,1-2.2,2.2v19.6c0,1.2,1,2.2,2.2,2.2h10.9
							c2.4,1.6,5.1,2.4,8,2.4s5.6-0.8,8-2.4h6.6c1.2,0,2.2-1,2.2-2.2V15.3C44,14.1,43,13.1,41.8,13.1L41.8,13.1z"></path>
              </g>
              <path id="Fill-4" d="M27.2,34.2c-4.8,0-8.7-3.9-8.7-8.7s3.9-8.7,8.7-8.7s8.7,3.9,8.7,8.7S32,34.2,27.2,34.2
						 M27.2,15.5c-5.5,0-10,4.5-10,10s4.5,10,10,10s10-4.5,10-10S32.7,15.5,27.2,15.5"></path>
              <path id="Fill-6" d="M13.9,17.5c0-0.4-0.3-0.7-0.7-0.7H9.7c-0.4,0-0.7,0.3-0.7,0.7s0.3,0.7,0.7,0.7h3.4
						C13.6,18.1,13.9,17.8,13.9,17.5"></path>
            </g>
          </g>
        </g>
      </g>
    </g>
  </symbol>
  <symbol version="1.1" id="pinterest" xmlns="http://www.w3.org/2000/svg" xmlns:xlink="http://www.w3.org/1999/xlink" x="0px" y="0px" xml:space="preserve" viewBox="0 0 50 50">
    <g id="Maquette">
      <g id="_x30_1_x5F_home-v5" transform="translate(-1470.000000, -52.000000)">
        <g id="Header" transform="translate(-1.000000, -2.000000)">
          <g id="reseaux-sociaux">
            <g transform="translate(1352.000000, 54.000000)">
              <g id="Group-3">
                <g transform="translate(119.000000, 0.000000)">
                  <g id="Clip-2"></g>
                  <path id="Fill-1" d="M24.4,8.3C15.3,8.3,7.9,15.9,7.9,25c0,7,4.4,13.2,10.5,15.5c-0.1-1.3-0.3-3.4,0-4.8
								c0.3-1.3,2-8.3,2-8.3s-0.5-1-0.5-2.5c0-2.3,1.3-4,3-4c1.4,0,2.1,1,2.1,2.3c0,1.4-0.9,3.5-1.4,5.6c-0.4,1.7,0.8,3,2.5,3
								c3,0,5.2-3.1,5.2-7.7c0-4-2.9-6.8-6.9-6.8c-4.7,0-7.4,3.5-7.4,7.3c0,1.4,0.5,3,1.2,3.8c0.1,0.1,0.1,0.3,0.1,0.5
								c-0.1,0.5-0.4,1.7-0.5,2c-0.1,0.3-0.3,0.4-0.5,0.3c-2.1-0.9-3.4-4-3.4-6.5c0-5.2,3.8-10,10.9-10c5.7,0,10.2,4.2,10.2,9.6
								c0,5.7-3.6,10.4-8.6,10.4c-1.7,0-3.3-0.9-3.8-2c0,0-0.8,3.1-1,3.9C21,38,20,39.9,19.4,41c1.6,0.5,3.3,0.8,4.9,0.8
								c9.1,0,16.5-7.4,16.5-16.7S33.5,8.3,24.4,8.3"></path>
                </g>
              </g>
            </g>
          </g>
        </g>
      </g>
    </g>
  </symbol>
  <symbol version="1.1" id="print" xmlns="http://www.w3.org/2000/svg" xmlns:xlink="http://www.w3.org/1999/xlink" x="0px" y="0px" xml:space="preserve" viewBox="0 0 50 50">
    <g id="Maquette">
      <g id="_x30_3_x5F_recherche-artisans-map" transform="translate(-639.000000, -685.000000)">
        <g id="bt-imprimer-ma-recherche" transform="translate(639.000000, 685.000000)">
          <g id="Group-3">
            <g>
              <g id="Clip-2"></g>
              <path id="Fill-1" d="M15.2,28.5c0-0.5,0.2-1,0.6-1.4c0.4-0.4,0.9-0.6,1.5-0.6h15.3c0.6,0,1.1,0.2,1.5,0.6
						c0.4,0.3,0.6,0.8,0.6,1.4v8.9c0,0.5-0.2,1-0.6,1.4c-0.3,0.3-0.8,0.6-1.5,0.6H17.3c-0.7,0-1.2-0.3-1.5-0.6
						c-0.4-0.4-0.6-0.9-0.6-1.4C15.2,37.4,15.2,28.5,15.2,28.5z M35.5,25.4c-0.8-0.8-1.9-1.2-3-1.2H17.3c-1.1,0-2.2,0.4-3.1,1.2
						c-0.8,0.9-1.3,1.9-1.3,3.1V32h-2c-0.6,0-1.3-0.3-1.8-0.7c-0.5-0.5-0.7-1.2-0.7-1.8V18.9c0-0.6,0.3-1.3,0.7-1.8
						c0.5-0.5,1.2-0.7,1.8-0.7h27.9c0.6,0,1.3,0.3,1.8,0.7c0.5,0.5,0.7,1.1,0.7,1.8v10.5c0,0.7-0.3,1.3-0.7,1.8
						c-0.5,0.5-1.1,0.7-1.8,0.7h-2v-3.4C36.8,27.4,36.4,26.3,35.5,25.4L35.5,25.4z M16.7,14.2V11c0-0.3,0.2-0.6,0.4-0.8
						c0.3-0.3,0.8-0.5,1.2-0.5h13c0.4,0,0.9,0.2,1.2,0.5c0.2,0.2,0.4,0.5,0.4,0.8v3.2H16.7z M42.2,15.6c-0.9-0.9-2.1-1.4-3.4-1.4
						h-3.6V11c0-0.9-0.4-1.8-1.2-2.6c-0.7-0.6-1.7-1-2.7-1h-13c-1,0-1.9,0.4-2.7,1C14.8,9,14.4,10,14.4,11v3.2H11
						c-1.3,0-2.5,0.5-3.4,1.4c-0.9,0.9-1.4,2-1.4,3.4v10.5c0,1.3,0.5,2.5,1.4,3.4c0.9,0.9,2.1,1.5,3.4,1.5h2v3.1
						c0,1.1,0.4,2.2,1.3,3c0.8,0.8,1.9,1.2,3.1,1.2h15.3c1.1,0,2.2-0.4,3-1.2s1.3-1.9,1.3-3v-3.1h2c1.2,0,2.4-0.5,3.4-1.4
						c0.9-0.9,1.4-2,1.4-3.4V18.9C43.6,17.6,43.1,16.4,42.2,15.6L42.2,15.6z"></path>
            </g>
          </g>
        </g>
      </g>
    </g>
  </symbol>
  <symbol version="1.1" id="projet" xmlns="http://www.w3.org/2000/svg" xmlns:xlink="http://www.w3.org/1999/xlink" x="0px" y="0px" xml:space="preserve" viewBox="0 0 50 50">
    <g id="Maquette">
      <g id="_x30_1_x5F_home-v5" transform="translate(-21.000000, -557.000000)">
        <g id="barre-raccourcis" transform="translate(-83.000000, 331.000000)">
          <g id="j_x27_ai-un-projet" transform="translate(91.000000, 48.000000)">
            <g id="projet">
              <g transform="translate(13.390805, 178.000000)">
                <g id="Group-3" transform="translate(4.609195, 0.000000)">
                  <g id="Clip-2"></g>
                  <path id="Fill-1" d="M20,42.3c-4.1,0-7.6-3.4-7.6-7.5s3.4-7.5,7.6-7.5c4.1,0,7.6,3.4,7.6,7.5S24.3,42.3,20,42.3
								L20,42.3z M17.6,24.4h4.8v2.3c-0.8-0.2-1.5-0.3-2.4-0.3s-1.6,0.1-2.4,0.3V24.4z M23.5,27v-3.2c0-0.3-0.2-0.5-0.5-0.5h-2.4
								V4.3c0-0.3-0.2-0.5-0.5-0.5c-0.3,0-0.5,0.2-0.5,0.5v18.9h-2.4c-0.3,0-0.5,0.2-0.5,0.5V27c-3,1.3-5.1,4.4-5.1,7.8
								c0,4.8,3.9,8.6,8.6,8.6c4.8,0,8.6-3.8,8.6-8.6C28.7,31.3,26.6,28.3,23.5,27L23.5,27z"></path>
                </g>
                <g id="Group-6" transform="translate(27.609195, 40.000000)">
                  <g id="Clip-5"></g>
                  <path id="Fill-4" d="M8.2-5.7H6.9c-0.2,0-0.4,0.2-0.4,0.5s0.2,0.5,0.4,0.5h1.3c0.2,0.1,0.4-0.1,0.4-0.4
								C8.7-5.4,8.5-5.7,8.2-5.7"></path>
                </g>
                <path id="Fill-7" d="M34.5,41c-0.2-0.2-0.5-0.2-0.8,0c-0.2,0.2-0.2,0.5,0,0.8l1.1,1.1c0.1,0.1,0.2,0.2,0.4,0.2
							c0.1,0,0.3-0.1,0.4-0.2c0.2-0.2,0.2-0.5,0-0.8L34.5,41z"></path>
                <path id="Fill-9" d="M34.1,29.4c0.1,0,0.3-0.1,0.4-0.2l1.1-1.1c0.2-0.2,0.2-0.5,0-0.8c-0.2-0.2-0.5-0.2-0.8,0
							l-1.1,1.1c-0.2,0.2-0.2,0.5,0,0.8C33.8,29.4,34,29.4,34.1,29.4"></path>
                <g id="Group-13" transform="translate(0.609195, 40.000000)">
                  <g id="Clip-12"></g>
                  <path id="Fill-11" d="M14.6-5.1c0-0.3-0.2-0.5-0.4-0.5h-1.3c-0.2,0-0.4,0.2-0.4,0.5c0,0.3,0.2,0.5,0.4,0.5H14
								C14.4-4.5,14.6-4.8,14.6-5.1"></path>
                </g>
                <path id="Fill-14" d="M15.1,41L14,42.1c-0.2,0.2-0.2,0.5,0,0.8c0.1,0.1,0.2,0.2,0.4,0.2c0.1,0,0.3-0.1,0.4-0.2
							l1.1-1.1c0.2-0.2,0.2-0.5,0-0.8C15.7,40.8,15.3,40.8,15.1,41"></path>
                <path id="Fill-16" d="M14.7,27.3c-0.2-0.2-0.5-0.2-0.8,0c-0.2,0.2-0.2,0.5,0,0.8l1.1,1.1c0.1,0.1,0.2,0.2,0.4,0.2
							c0.1,0,0.3-0.1,0.4-0.2c0.2-0.2,0.2-0.5,0-0.8L14.7,27.3z"></path>
                <path id="Fill-18" d="M24.6,39.8c-2.5,0-4.6-2.1-4.6-4.6c0-0.3-0.2-0.5-0.5-0.5c-0.3,0-0.5,0.2-0.5,0.5
							c0,3,2.5,5.6,5.6,5.6c0.3,0,0.5-0.2,0.5-0.5C25.2,40,25,39.8,24.6,39.8"></path>
              </g>
            </g>
          </g>
        </g>
      </g>
    </g>
  </symbol>
  <symbol version="1.1" id="search" xmlns="http://www.w3.org/2000/svg" xmlns:xlink="http://www.w3.org/1999/xlink" x="0px" y="0px" xml:space="preserve" viewBox="0 0 50 50">
    <g id="Maquette">
      <g id="_x30_1_x5F_home-v5" transform="translate(-1595.000000, -1032.000000)">
        <g id="Recherche-artisans" transform="translate(222.000000, 973.000000)">
          <g id="search">
            <g transform="translate(1389.000000, 75.000000) scale(-1, 1) translate(-1389.000000, -75.000000) translate(1373.000000, 59.000000)">
              <g id="Clip-2"></g>
              <path id="Fill-1" d="M5.4,33.4C-0.9,33.4-6,28.3-6,22s5.1-11.4,11.4-11.4S16.8,15.7,16.8,22
						C16.8,28.3,11.7,33.4,5.4,33.4 M23.4,38.3L16,30.9h-0.1c4.9-5.8,4.2-14.4-1.6-19.3S-0.2,7.4-5,13.1c-4.9,5.8-4.2,14.4,1.6,19.3
						c5.1,4.3,12.6,4.3,17.7,0v0.1l7.4,7.4c0.4,0.4,1.2,0.5,1.6,0l0,0C23.8,39.5,23.8,38.8,23.4,38.3L23.4,38.3"></path>
            </g>
          </g>
        </g>
      </g>
    </g>
  </symbol>
  <symbol version="1.1" id="savoir-faire" xmlns="http://www.w3.org/2000/svg" xmlns:xlink="http://www.w3.org/1999/xlink" x="0px" y="0px" xml:space="preserve" viewBox="0 0 50 50">
    <g id="Maquette_00000076563817246230994410000003401489834019935128_">
      <g id="_x30_1_x5F_home-v5_00000011025066587502727520000014456266973496250252_" transform="translate(-977.000000, -5927.000000)">
        <g id="Valeurs" transform="translate(-4.000000, 5649.000000)">
          <g id="Savoir-faire-_x26_-garantie" transform="translate(981.000000, 278.000000)">
            <g id="picto-savoir-faire">
              <g>
                <path id="Fill-1_00000077282288870200127730000014608069018820154809_" d="M20.8,40.2v-7.3c0-0.4,0.2-0.7,0.4-0.7
							h6.5c0.1,0,0.4,0.3,0.4,0.7v7.3H20.8z M37.1,40.2h-7.8v-7.3c0-1.1-0.7-1.9-1.6-1.9h-6.5c-0.9,0-1.6,0.8-1.6,1.9v7.3H12v-8.4
							h-1.2v9c0,0.4,0.2,0.6,0.6,0.6h8.9h8.5h9c0.3,0,0.6-0.3,0.6-0.6v-8.7h-1.2L37.1,40.2L37.1,40.2z"></path>
                <g id="Group-5" transform="translate(8.000000, 0.000500)">
                  <g id="Clip-4"></g>
                  <path id="Fill-3" d="M4,19.5L16.5,7.1l4.2,4.1c0.2,0.2,0.4,0.2,0.6,0.2c0.2-0.1,0.4-0.3,0.4-0.6V9h4.6v7.6
								c0,0.2,0.1,0.3,0.2,0.4l2.5,2.5v2h1.2v-2.3c0-0.2-0.1-0.3-0.2-0.4l-2.5-2.5V8.4c0-0.3-0.3-0.6-0.6-0.6H21
								c-0.3,0-0.6,0.3-0.6,0.6v1l-3.6-3.5c-0.2-0.2-0.6-0.2-0.8,0L3,18.8c-0.2,0.1-0.2,0.3-0.2,0.4v2.5H4C4,21.7,4,19.5,4,19.5z"></path>
                </g>
                <path id="Fill-6" d="M24.1,9.5l-10.3,10l0.8,0.9l9.9-9.6l9.7,9.6l0.8-0.9l-10.1-10C24.7,9.3,24.3,9.3,24.1,9.5"></path>
                <g id="Clip-9"></g>
                <polygon id="Fill-8" points="25.2,36.9 26.6,36.9 26.6,35.6 25.2,35.6 						"></polygon>
                <path id="Fill-10" d="M42,28.9h-3.2v-2.5h-1.2v2.5h-3.3v-1.5h-1.2v1.5H30v-2.5h-1.2v2.5h-3.2v-1.5h-1.2v1.5h-2.9
							v-2.5h-1.2v2.5h-3.4v-1.5h-1.2v1.5h-3v-2.5h-1.2v2.5H8V24h33.9L42,28.9L42,28.9z M42.6,22.8H7.4c-0.3,0-0.6,0.2-0.6,0.6v6.1
							c0,0.3,0.3,0.6,0.6,0.6h35.1c0.3,0,0.6-0.3,0.6-0.6v-6.1C43.2,23,42.9,22.8,42.6,22.8L42.6,22.8z"></path>
              </g>
            </g>
          </g>
        </g>
      </g>
    </g>
  </symbol>
  <symbol version="1.1" id="share" xmlns="http://www.w3.org/2000/svg" xmlns:xlink="http://www.w3.org/1999/xlink" x="0px" y="0px" xml:space="preserve" viewBox="0 0 50 50">
    <g id="Maquette_00000015317409038283231380000005497573118951230615_">
      <g id="_x30_3_x5F_recherche-artisans-map" transform="translate(-381.000000, -687.000000)">
        <g id="bt-partager-ma-recherche" transform="translate(381.000000, 687.000000)">
          <g id="Group-3">
            <g>
              <g id="Clip-2_00000140712314927080413630000001310307088491273369_"></g>
              <path id="Fill-1_00000155140637414832450250000006926026870432991373_" d="M35.2,38.2c-1.8,0-3.4-1.5-3.4-3.4
						c0-0.6,0.1-1.1,0.4-1.6l0,0l0,0c0.9-1.6,3-2.2,4.7-1.4c1.6,0.9,2.2,3,1.4,4.7C37.6,37.6,36.5,38.2,35.2,38.2 M14.7,27.9
						c-1.8,0-3.4-1.5-3.4-3.4c0-1.8,1.5-3.4,3.4-3.4c1.8,0,3.4,1.5,3.4,3.4C18,26.4,16.5,27.9,14.7,27.9 M35.2,10.8
						c1.8,0,3.4,1.5,3.4,3.4c0,1.8-1.5,3.4-3.4,3.4c-1.2,0-2.3-0.6-3-1.7l0,0l0,0c-0.9-1.7-0.2-3.7,1.5-4.7
						C34.1,10.9,34.6,10.8,35.2,10.8 M35.2,29.1c-1.7,0-3.3,0.7-4.4,2.1l-10.7-5.2c0.2-1,0.2-2,0-3L30.8,18c2,2.5,5.7,2.8,8.1,0.9
						c2.5-2,2.8-5.7,0.9-8.1c-2-2.5-5.7-2.8-8.1-0.9c-1.8,1.5-2.6,3.8-1.8,6L19.2,21c-2-2.5-5.5-3-8-1s-3,5.5-1,8s5.5,3,8,1
						c0.4-0.2,0.6-0.6,1-1l10.6,5.2c-0.9,3.1,0.9,6.1,3.9,7.1c3.1,0.9,6.1-0.9,7.1-3.9c0.9-3.1-0.9-6.1-3.9-7.1
						C36.3,29.1,35.7,29.1,35.2,29.1"></path>
            </g>
          </g>
        </g>
      </g>
    </g>
  </symbol>
  <symbol version="1.1" id="valeurs" xmlns="http://www.w3.org/2000/svg" xmlns:xlink="http://www.w3.org/1999/xlink" x="0px" y="0px" xml:space="preserve" viewBox="0 0 50 50">
    <g>
      <path d="M35.6,12.7h-1.2v-1.1c0-0.3-0.3-0.6-0.6-0.6h-5.1v-0.2c0-1.6-0.9-2.9-2.2-2.9h-8.3c-1.2,0-2.2,1.3-2.2,2.9v0.3
		h-5.1c-0.3-0.1-0.6,0.2-0.6,0.5v1.1H9c-0.3,0-0.6,0.3-0.6,0.6v30.3c0,0.3,0.3,0.6,0.6,0.6h26.5c0.3,0,0.6-0.3,0.6-0.6V13.3
		C36.2,12.9,36,12.7,35.6,12.7z M17.2,10.8c0-1,0.5-1.7,0.9-1.7h8.3c0.4,0,0.9,0.7,0.9,1.7v0.3H17.2C17.2,11.1,17.2,10.8,17.2,10.8z
		 M11.5,12.2h21.6v1.1l0,0V14H11.5V12.2z M34.9,42.9H9.6v-29h0.6v0.7c0,0.3,0.3,0.6,0.6,0.6l0,0l0,0h22.8l0,0l0,0
		c0.3,0,0.6-0.3,0.6-0.6v-0.7h0.6V42.9z"></path>
      <path d="M12.7,18.9h4.6c0.3,0,0.6-0.3,0.6-0.6c0-0.3-0.3-0.6-0.6-0.6h-4.6c-0.3,0-0.6,0.3-0.6,0.6
		C12.1,18.5,12.3,18.9,12.7,18.9z"></path>
      <path d="M12.7,22h12.7c0.3,0,0.6-0.3,0.6-0.6s-0.3-0.6-0.6-0.6H12.7c-0.3,0-0.6,0.3-0.6,0.6C12.1,21.8,12.3,22,12.7,22
		z"></path>
      <path d="M26.5,25.3h-7.5c-0.3,0-0.6,0.3-0.6,0.6c0,0.3,0.3,0.6,0.6,0.6h7.5c0.3,0,0.6-0.3,0.6-0.6S26.8,25.3,26.5,25.3
		z"></path>
      <path d="M26.5,31.7h-7.5c-0.3,0-0.6,0.3-0.6,0.6s0.3,0.6,0.6,0.6h7.5c0.3,0,0.6-0.3,0.6-0.6S26.8,31.7,26.5,31.7z"></path>
      <path d="M26.5,38.3h-7.5c-0.3,0-0.6,0.3-0.6,0.6c0,0.3,0.3,0.6,0.6,0.6h7.5c0.3,0,0.6-0.3,0.6-0.6
		C27.2,38.6,26.8,38.3,26.5,38.3z"></path>
      <path d="M15.4,23.8H12c-0.3,0-0.6,0.3-0.6,0.6v3.1c0,0.3,0.3,0.6,0.6,0.6h3.4c0.3,0,0.6-0.3,0.6-0.6v-3.1
		C16,24.1,15.7,23.8,15.4,23.8z M14.8,26.8h-2.2v-1.9h2.2V26.8z"></path>
      <path d="M15.4,30.1H12c-0.3,0-0.6,0.3-0.6,0.6v3.1c0,0.3,0.3,0.6,0.6,0.6h3.4c0.3,0,0.6-0.3,0.6-0.6v-3.1
		C16,30.4,15.7,30.1,15.4,30.1z M14.8,33.2h-2.2v-1.9h2.2V33.2z"></path>
      <path d="M15.4,36.8H12c-0.3,0-0.6,0.3-0.6,0.6v3.1c0,0.3,0.3,0.6,0.6,0.6h3.4c0.3,0,0.6-0.3,0.6-0.6v-3.1
		C16,37,15.7,36.8,15.4,36.8z M14.8,39.9h-2.2v-1.9h2.2V39.9z"></path>
      <path d="M42.8,21c0-0.1,0-0.1,0-0.2l0,0l0,0l-1.6-3.3c-0.1-0.2-0.3-0.3-0.5-0.3c-0.2,0-0.4,0.1-0.5,0.3l-1.7,3.3l0,0
		l0,0c0,0.1,0,0.1,0,0.2l0,0v19.1v3.2c0,0.3,0.3,0.6,0.6,0.6h3.2c0.3,0,0.6-0.3,0.6-0.6v-3.2L42.8,21L42.8,21z M39.7,21.6h1.9v17.8
		h-1.9V21.6z M40.6,19.1l0.6,1.3H40L40.6,19.1z M41.6,42.6h-1.9v-1.9h1.9V42.6z"></path>
    </g>
  </symbol>
  <symbol version="1.1" id="youtube" xmlns="http://www.w3.org/2000/svg" xmlns:xlink="http://www.w3.org/1999/xlink" x="0px" y="0px" xml:space="preserve" viewBox="0 0 50 50">
    <g id="Maquette_00000138543155329837800710000008055568666640000923_">
      <g id="_x30_1_x5F_home-v5_00000094620218005937115740000013841636818935418044_" transform="translate(-1529.000000, -52.000000)">
        <g id="Header_00000104685526273417347170000016559545943078576525_" transform="translate(-1.000000, -2.000000)">
          <g transform="translate(1352.000000, 54.000000)">
            <g id="Group-7">
              <g transform="translate(178.000000, 0.000000)">
                <g id="Group-14">
                  <g id="Clip-13"></g>
                  <path id="Fill-12" d="M34.9,28.1c-0.1,0.8-0.7,2.2-1.2,2.9c-0.7,0.7-1.7,0.5-2.5,0.5c-2,0.1-4.1,0-6.1,0
								c-0.8,0-1.7,0-2.5,0s-1.7,0-2.5,0c-0.5,0-1.1,0-1.5-0.1c-0.4,0-0.9-0.1-1.1-0.3c-0.1-0.1-0.3-0.5-0.5-0.6l-0.1-0.3
								c-0.8-1.7-0.8-3-0.8-4.9c0-0.7,0-1.6,0-2.6c0-0.4,0-1.1,0.2-1.5c0-0.4,0.2-0.8,0.5-1.1c0.4-0.8,0.7-1.1,1.5-1.5
								c0.4-0.1,1.2-0.3,1.6-0.3c0.5,0,1.1,0,1.5,0c1.1,0,2,0,3,0c0.9,0,1.8,0,2.6,0c0.9,0,1.7,0,2.6,0c0.8,0,1.5,0,2.2,0.1
								c0.5,0,1.2,0.1,1.7,0.4c0.3,0.1,0.7,0.4,0.8,0.7c0.4,0.9,0.7,1.7,0.8,2.6c0,0.9,0.1,2,0.1,2.9c0,0.1,0,0.4,0,0.5
								C35.2,26.6,35.1,27.2,34.9,28.1 M25.3,8.3c-9.2,0-16.8,7.5-16.8,16.8s7.5,16.8,16.8,16.8s16.8-7.5,16.8-16.8
								S34.6,8.3,25.3,8.3"></path>
                </g>
              </g>
              <polygon points="201.5,21.9 201.5,28.4 207,25 					"></polygon>
            </g>
          </g>
        </g>
      </g>
    </g>
  </symbol>
</svg>