<svg version="1.1" id="Calque_1" xmlns="http://www.w3.org/2000/svg" x="0" y="0" viewBox="0 0 50 50" xml:space="preserve"><style>.st0{fill-rule:evenodd;clip-rule:evenodd}</style><g id="Group-3_00000024723584133958358950000011459574164920289413_" transform="translate(0 .368)"><path id="Fill-1_00000154405208001158257870000015188376397569476272_" class="st0" d="M35.3 37.8v4.3c0 .1 0 .1-.1.1H15c-.1 0-.1 0-.1-.1v-4.3h20.4zm-20.5-2.7h20.6V15.6H14.8v19.5zm0-22.3V7.6c0-.1 0-.1.1-.1h20.2c.1 0 .1 0 .1.1v5.2H14.8zm20.4-8.2H15c-1.6 0-2.9 1.3-2.9 2.9V42c0 1.6 1.3 2.9 2.9 2.9h20.2c1.6 0 2.9-1.3 2.9-2.9V7.6c0-1.5-1.3-3-2.9-3z"/></g><path id="Fill-4" class="st0" d="M28.1 9h-5.5c-.7 0-1.3.7-1.3 1.3 0 .7.7 1.3 1.3 1.3h5.5c.7 0 1.3-.7 1.3-1.3S28.8 9 28.1 9"/><path id="Fill-6" class="st0" d="M23.8 41.8h4.3c.7 0 1.3-.7 1.3-1.3s-.7-1.3-1.3-1.3h-4.3c-.7 0-1.3.7-1.3 1.3s.6 1.3 1.3 1.3"/></svg>