<svg version="1.1" id="Calque_1" xmlns="http://www.w3.org/2000/svg" x="0" y="0" viewBox="0 0 29 37" xml:space="preserve" enable-background="new 0 0 29 37"><g id="Maquette"><g id="_x30_3_x5F_recherche-artisans-map" transform="translate(-1555 -969)"><g id="map" transform="translate(973 780)"><g id="Group-3-Copy-9" transform="translate(582 189)"><defs><filter id="Adobe_OpacityMaskFilter" filterUnits="userSpaceOnUse" x="0" y="0" width="28.6" height="37"><feColorMatrix values="1 0 0 0 0 0 1 0 0 0 0 0 1 0 0 0 0 0 1 0"/></filter></defs><mask maskUnits="userSpaceOnUse" x="0" y="0" width="28.6" height="37" id="mask-2_00000109725720610983373490000016793918598382124175_"><g filter="url(#Adobe_OpacityMaskFilter)"><path id="path-1_00000111893797570724698360000011142143911793418395_" fill-rule="evenodd" clip-rule="evenodd" fill="#fff" d="M0 0h28.6v37H0z"/></g></mask><path id="Fill-1" d="M7.6 14c0-3.6 3-6.7 6.7-6.7 3.6 0 6.7 2.9 6.7 6.7 0 3.6-2.9 6.7-6.7 6.7-3.7 0-6.7-3.1-6.7-6.7m21 .3C28.6 6.4 22.2 0 14.3 0S0 6.4 0 14.3 14.3 37 14.3 37s14.3-14.8 14.3-22.7" mask="url(#mask-2_00000109725720610983373490000016793918598382124175_)" fill-rule="evenodd" clip-rule="evenodd" fill="#00376a"/></g></g></g></g></svg>