<svg width="0" height="0" class="hidden"><symbol id="360" xmlns="http://www.w3.org/2000/svg" xmlns:xlink="http://www.w3.org/1999/xlink" xml:space="preserve" viewBox="0 0 50 50"><g id="Maquette_00000123401836926714495030000003734275694194735257_"><g id="_x30_1_x5F_home-v5_00000129191708951408646630000011565915974059039155_" transform="translate(-936 -7073)"><g id="Salle-d_x27_expo" transform="translate(-4 6652)"><g id="bt-visite-virtuelle" transform="translate(851 400)"><g transform="translate(89 21)" id="Group-15"><g id="Group-3_00000103226304119866103080000007633681310227166612_" transform="translate(13 8)"><path id="Fill-1_00000176026385652687614650000006894794529326519739_" d="M25.5 7.4c-.7-.4-1.6-.3-2 .4s-.3 1.6.4 2c2.5 1.7 4 4.5 4 7.5 0 5-4.1 9-9 9H8.3l1.2-1.2c.6-.6.6-1.5 0-2.1-.6-.6-1.5-.6-2.1 0l-3.6 3.8-.2.2s0 .1-.1.1l-.1.1v1c0 .1 0 .1.1.1 0 0 0 .1.1.1.1.1.1.2.2.2l3.7 3.7c.3.3.7.4 1 .4.4 0 .7-.1 1-.4.6-.6.6-1.5 0-2.1L8.3 29h10.5c6.6 0 12-5.4 12-12 0-3.7-2-7.4-5.3-9.6"/></g><g id="Group-6"><path id="Fill-4_00000168815515628584036730000008013664922223225243_" d="M12.7 32c-2.5-1.7-4-4.5-4-7.5 0-5 4.1-9 9-9h10.5L27 16.7c-.6.6-.6 1.5 0 2.1.3.3.7.4 1 .4.4 0 .7-.1 1-.4l3.7-3.7.2-.2s0-.1.1-.1l.1-.1v-1c0-.1 0-.1-.1-.1 0 0 0-.1-.1-.1-.1-.1-.1-.2-.2-.2L29 9.6c-.6-.6-1.5-.6-2.1 0-.6.6-.6 1.5 0 2.1l1.2 1.2H17.8c-6.6 0-12 5.4-12 12 0 4 2 7.7 5.3 9.9.3.2.5.3.8.3.5 0 .9-.2 1.2-.6.5-1.2.3-2.1-.4-2.5"/></g><path id="Fill-7" d="M20.8 24.5v-1.7c0-.8-.4-1.2-1.3-1.2h-1.2c-.9 0-1.3.4-1.3 1.2V24h1.4v-1c0-.1 0-.2.1-.3 0 0 .1-.1.3-.1h.4c.1 0 .2 0 .3.1 0 0 .1.1.1.3v1.6c0 .1 0 .2-.1.3 0 0-.1.1-.3.1h-.9v1h.9c.1 0 .2 0 .3.1 0 0 .1.1.1.3v1.5c0 .1 0 .2-.1.3 0 0-.1.1-.3.1h-.4c-.1 0-.2 0-.3-.1 0 0-.1-.1-.1-.3v-1H17v1.2c0 .8.4 1.2 1.3 1.2h1.2c.9 0 1.3-.4 1.3-1.2v-1.8c0-.5-.2-.8-.5-.9.3-.1.5-.4.5-.9"/><path id="Fill-9" d="M24.1 25.9c.1 0 .2 0 .3.1 0 0 .1.1.1.3v1.6c0 .1 0 .2-.1.3s-.1.1-.3.1h-.6c-.1 0-.2 0-.3-.1 0 0-.1-.1-.1-.3v-2h1zm1.7-1.9v-1.2c0-.8-.4-1.2-1.3-1.2h-1.3c-.9 0-1.3.4-1.3 1.2v5.3c0 .8.4 1.2 1.3 1.2h1.4c.9 0 1.3-.4 1.3-1.2V26c0-.8-.4-1.2-1.3-1.2h-1.3V23c0-.1 0-.2.1-.3 0 0 .1-.1.3-.1h.5c.1 0 .2 0 .3.1 0 0 .1.1.1.3v1h1.2z"/><path id="Fill-11" d="M29.6 27.9c0 .1 0 .2-.1.3 0 0-.1.1-.3.1h-.6c-.1 0-.2 0-.3-.1 0 0-.1-.1-.1-.3V23c0-.1 0-.2.1-.3 0 0 .1-.1.3-.1h.6c.1 0 .2 0 .3.1 0 0 .1.1.1.3v4.9zm-1.4-6.3c-.9 0-1.3.4-1.3 1.2v5.3c0 .8.4 1.2 1.3 1.2h1.4c.9 0 1.3-.4 1.3-1.2v-5.3c0-.8-.4-1.2-1.3-1.2h-1.4z"/><path id="Fill-13" d="M33.4 22.9c0-.1 0-.2.1-.3 0 0 .1-.1.3-.1h.5c.1 0 .2 0 .3.1 0 0 .1.1.1.3V24c0 .1 0 .2-.1.3 0 0-.1.1-.3.1h-.5c-.1 0-.2 0-.3-.1 0 0-.1-.1-.1-.3v-1.1zm-1.3-.1v1.3c0 .8.4 1.2 1.3 1.2h1.2c.9 0 1.3-.4 1.3-1.2v-1.3c0-.8-.4-1.2-1.3-1.2h-1.2c-.8 0-1.3.4-1.3 1.2z"/></g></g></g></g></g></symbol><symbol id="actualites" xmlns="http://www.w3.org/2000/svg" xmlns:xlink="http://www.w3.org/1999/xlink" xml:space="preserve" viewBox="0 0 50 50"><g id="Maquette"><g id="_x30_1_x5F_home-v5" transform="translate(-24 -670)"><g id="barre-raccourcis" transform="translate(-83 331)"><g transform="translate(107 339)" id="actualite"><g id="Group-3" transform="translate(0 .549)"><path id="Fill-1" d="M38.3 34.6c0 1.7-1.4 3.1-3.2 3.1h-3.4c.8-.8 1.2-1.8 1.2-3.1V14.3H35c1.7 0 3.2 1.3 3.2 3.1v17.2zm-11.5 3H14.4c-1.7 0-3.2-1.3-3.2-3.1V13.8c0-1.7 1.4-3.1 3.2-3.1h14c1.7 0 3.2 1.3 3.2 3.1v20.8c0 1.7-1.4 3.1-3.2 3.1h-1.6v-.1zm8.3-24.7h-2.2c-.4-2-2.2-3.5-4.5-3.5h-14c-2.6-.1-4.6 1.9-4.6 4.4v20.8c0 2.4 2 4.5 4.6 4.5H35c2.6 0 4.6-2 4.6-4.5V17.5c.1-2.6-1.9-4.6-4.5-4.6z"/></g><path id="Fill-4" d="M25.5 17.2h-8.1c-.4 0-.7.3-.7.7 0 .4.3.7.7.7h8.1c.4 0 .7-.3.7-.7.1-.4-.2-.7-.7-.7"/><path id="Fill-6" d="M25.5 24h-8.1c-.4 0-.7.3-.7.7 0 .4.3.7.7.7h8.1c.4 0 .7-.3.7-.7.1-.4-.2-.7-.7-.7"/><path id="Fill-8" d="M25.5 31h-8.1c-.4 0-.7.3-.7.7 0 .4.3.7.7.7h8.1c.4 0 .7-.3.7-.7.1-.4-.2-.7-.7-.7"/></g></g></g></g></symbol><symbol id="adresse" xmlns="http://www.w3.org/2000/svg" xmlns:xlink="http://www.w3.org/1999/xlink" xml:space="preserve" viewBox="0 0 50 50"><g id="Maquette_00000158748024057846694220000006491401385112157854_"><g id="_x30_1_x5F_home-v5_00000165950293893337133160000011130746586492999061_" transform="translate(-222 -9625)"><g id="Contact" transform="translate(222 9276)"><g id="adresse" transform="translate(0 349)"><g id="Group-9"><g id="Group-3" transform="translate(10 .31)"><path id="Fill-1_00000134933500337546944890000014339636980405498282_" d="M14.5 6.9c4.7 0 8.5 3.8 8.5 8.5 0 4.3-6.4 18.5-8.5 22.8-2-4.3-8.5-18.5-8.5-22.8.1-4.7 3.9-8.5 8.5-8.5m0 33.4c.3 0 .5-.1.6-.4.4-.8 9.2-19.2 9.2-24.6s-4.4-9.8-9.8-9.8-9.7 4.4-9.7 9.8 8.8 23.8 9.2 24.6c.1.3.3.4.5.4"/></g><g id="Group-6" transform="translate(0 10.31)"><path id="Fill-4" d="M43.9 32.8L39.1 5.2c0-.3-.3-.5-.6-.5h-2.2V6h1.6L40 18.5h-5.7v-3.4H33v4.1c0 .4.3.7.7.7h6.6l1.3 7.9H28.9v1.3h12.9l.6 3.3H7.1l1.2-7.7h6.8v3.7h1.3V24c0-.4-.3-.7-.7-.7H8.6l1.2-8.1h5.6v-1.3H10L11.2 6h1.6V4.7h-2.1c-.3 0-.6.2-.7.6L5.7 32.8c0 .2 0 .4.2.5.1.1.3.2.5.2h36.8c.2 0 .4-.1.5-.2.1-.1.2-.3.2-.5"/></g><path id="Fill-7" d="M24.5 18.1c-1.5 0-2.8-1.3-2.8-2.8s1.3-2.8 2.8-2.8 2.8 1.3 2.8 2.8-1.2 2.8-2.8 2.8m4.2-2.9c0-2.3-1.9-4.1-4.1-4.1-2.3 0-4.1 1.9-4.1 4.1 0 2.3 1.9 4.1 4.1 4.1 2.2.1 4.1-1.8 4.1-4.1"/></g></g></g></g></g></symbol><symbol id="arrow" xmlns="http://www.w3.org/2000/svg" xmlns:xlink="http://www.w3.org/1999/xlink" xml:space="preserve" viewBox="0 0 50 50"><g id="Maquette"><g id="_x30_1_x5F_home-v5" transform="translate(-359 -1826)"><g id="Edito" transform="translate(222 1255)"><g id="bt-en-savoir-plus" transform="translate(2 554)"><g transform="translate(135 17)" id="Group-3_00000178917768665993466920000000975825324148254112_"><path id="Fill-1" d="M31.9 16.5c-.4.4-.4 1.3 0 1.8l5.5 5.5H9.3c-.7 0-1.1.4-1.1 1.1S8.7 26 9.3 26h27.9l-5.5 5.5c-.4.4-.4 1.3 0 1.8.4.4 1.1.4 1.8 0l7.5-7.7c.4-.4.4-1.1 0-1.5l-7.3-7.5c-.7-.8-1.4-.8-1.8-.1z"/></g></g></g></g></g></symbol><symbol id="artisan-conseil" xmlns="http://www.w3.org/2000/svg" xmlns:xlink="http://www.w3.org/1999/xlink" xml:space="preserve" viewBox="0 0 50 50"><g id="Maquette_00000170271236688801187010000018193527159257979788_"><g id="_x30_5_x5F_fiche-artisan" transform="translate(-492 -1043)"><g id="Engagements" transform="translate(222 833)"><g id="Artisan-conseil" transform="translate(270 210)"><g id="icon-artisan"><g id="Group-3" transform="translate(0 .2)"><path id="Fill-1_00000088851705646368380300000018226834997686466185_" d="M12.5 41.7l-4.9-4.9 2.8-2.8 2.5 2.5 1-1-2.5-2.5 2.7-2.7 1.4 1.4 1-1-1.4-1.4 3-3 2.5 2.5 1-1-2.5-2.5 2.7-2.7 1.4 1.4 1-1-1.5-1.4 2.7-2.7 2.5 2.5 1-1-2.5-2.5 2.9-2.9 1.4 1.4 1-1-1.4-1.4 2.7-2.7 2.5 2.5 1-1-2.5-2.5 2.9-2.9 4.9 4.9-29.3 29.4zm30.8-29.8L37.4 6c-.1-.2-.3-.2-.5-.2s-.4 0-.5.2L6.1 36.3c-.1.1-.2.3-.2.5s.1.4.2.5l5.9 5.9c.1.1.3.2.5.2s.4-.1.5-.2l30.3-30.3c.3-.3.3-.7 0-1z"/></g><path id="Fill-4" d="M14 11.9l-2.2 2.2-1.1-3.3 3.3 1.1zm-3.1 3.8c0 .1.1.2.2.3l6.6 6.6 1-1-6.1-6.1.9-.9 6.2 6.2 1-1-6.3-6.3.9-.9 6.3 6.3 1-1-6.8-6.8c-.1-.1-.2-.1-.3-.2l-5.8-2c-.3-.1-.5 0-.7.2-.2.2-.2.5-.1.8l2 5.8z"/><path id="Fill-6_00000004541747570293337700000004847119681232107448_" d="M38 40.8L35.2 38l2.8-2.8 2.8 2.8-2.8 2.8zm.5-7l-7.2-7.2-1 1 6.7 6.7-.9.9-6.8-6.8-1 1 6.8 6.8-.9.9-6.7-6.7-1 1 7.2 7.2 3.8 3.8c.1.1.3.2.5.2s.4-.1.5-.2l3.8-3.8c.3-.3.3-.7 0-1l-3.8-3.8z"/></g></g></g></g></g></symbol><symbol id="artisan" xmlns="http://www.w3.org/2000/svg" xmlns:xlink="http://www.w3.org/1999/xlink" xml:space="preserve" viewBox="0 0 50 50"><g id="Maquette"><g id="_x30_1_x5F_home-v5" transform="translate(-267 -998)"><g id="Recherche-artisans" transform="translate(222 973)"><g transform="translate(45 25)" id="Group-10"><path id="Fill-1" d="M16.7 38.6c-.4 0-.7.3-.7.7v1.9c0 .4.3.7.7.7s.7-.3.7-.7v-1.9c0-.4-.3-.7-.7-.7"/><g id="Group-5" transform="translate(0 .141)"><path id="Fill-3" d="M33.8 36.3h-1.7v-4.7l1.7.5v4.2zm-18-4.2l1.7-.5v4.7h-1.7v-4.2zm9-2.4c1.5 0 2.9-.4 4.2-1l.2 1.3-4.4 4.1-4.4-4.1.2-1.3c1.3.6 2.7 1 4.2 1zm-7.6-9v-.3c.2.2.4.5.7.6.1.1.3.1.6.1s.7-.1 1.1-.3c-.2.2-.4.5-.5.8s.1.7.4.8h.2c.3 0 .5-.2.6-.4.1-.2.3-.4.6-.4.2 0 .5.1.6.4s.5.5.9.3c.3-.1.5-.5.3-.9-.3-.7-1-1.1-1.8-1.1-.2 0-.4 0-.5.1 1.1-.6 2.7-1.2 4.5-1.2s3.4.7 4.5 1.2c-.2-.1-.4-.1-.5-.1-.8 0-1.5.5-1.8 1.1-.1.3 0 .7.3.9.3.1.7 0 .9-.3.1-.2.3-.4.6-.4s.5.2.6.4c.1.3.4.4.6.4h.2c.3-.1.5-.5.4-.8s-.3-.5-.5-.8c.7.4 1.3.4 1.6.2.3-.1.6-.4.7-.6v.3c0 4.2-3.4 7.7-7.7 7.7s-7.6-3.4-7.6-7.7zm-1-3.1l.1.3c-.2.5-.3 1-.4 1.6-.1-.2-.1-.5-.1-.8 0-.5.2-.9.4-1.1zm8.6-10.9c4.3 0 7.8 3.3 8 7.5-2.5.5-5.2.7-8 .7-2.9 0-5.6-.2-8-.7.3-4.2 3.8-7.5 8-7.5zm9 12c0 .3 0 .5-.1.8-.1-.5-.2-1.1-.4-1.6l.1-.3c.3.2.4.6.4 1.1zM17 15.6c2.4.4 5 .6 7.8.6s5.4-.2 7.8-.6l-1.1 3.8c0 .1-.1.4-.3.4-.1 0-.3 0-.5-.1-1.1-.7-3.4-1.9-5.9-1.9-2.6 0-4.8 1.2-5.9 1.9-.2.1-.4.2-.5.1-.2-.1-.3-.3-.3-.4L17 15.6zM19.6 31l4.8 4.5c.1.1.3.2.5.2s.3-.1.5-.2l4.8-4.5.7.2v5.1h-12v-5.1l.7-.2zm22.3 12.2s-.3-2.6-.8-6.4c-.5-4.2-4.3-5.2-4.7-5.3l-6-1.7-.3-1.8c1.9-1.5 3.3-3.7 3.5-6.2.9-.5 1.4-1.9 1.4-3 0-1.2-.6-2.1-1.3-2.4l.4-1.3v-.2c0-5.2-4.2-9.4-9.4-9.4s-9.4 4.2-9.4 9.4v.2l.4 1.3c-.8.3-1.3 1.3-1.3 2.4s.5 2.5 1.4 3c.3 2.5 1.6 4.8 3.5 6.2l-.1 1.7-6 1.7c-.3.1-4.2 1.1-4.7 5.3-.5 3.8-.8 6.4-.8 6.4 0 .4.2.7.6.7h.1c.3 0 .6-.2.7-.6 0 0 .3-2.6.8-6.4.4-3.3 3.6-4.2 3.7-4.2l1-.3v3.8h-1c-.4 0-.7.3-.7.7v6.3c0 .4.3.7.7.7s.7-.3.7-.7v-5.7h21.1v5.7c0 .4.3.7.7.7.4 0 .7-.3.7-.7v-6.3c0-.4-.3-.7-.7-.7h-1v-3.8l1 .3c.1 0 3.3.9 3.7 4.2.5 3.8.8 6.4.8 6.4 0 .3.3.6.7.6h.1c.3.1.5-.2.5-.6z"/></g><path id="Fill-6" d="M32.9 38.6c-.4 0-.7.3-.7.7v1.9c0 .4.3.7.7.7.4 0 .7-.3.7-.7v-1.9c0-.4-.3-.7-.7-.7"/><path id="Fill-8" d="M27.2 25.8c.3-.2.3-.6.1-.9-.2-.3-.6-.3-.9-.1-.4.3-.9.5-1.6.5-.6 0-1.2-.2-1.6-.5-.3-.2-.7-.2-.9.1-.2.3-.2.7.1.9.6.5 1.5.7 2.4.7 1 0 1.8-.2 2.4-.7"/></g></g></g></g></symbol><symbol id="budget" xmlns="http://www.w3.org/2000/svg" xmlns:xlink="http://www.w3.org/1999/xlink" xml:space="preserve" viewBox="0 0 50 50"><path d="M41.6 25.2c-.7-.7-1.6-.4-2.3 0 .1-.6.2-1.2.2-1.8v-3.5c0-3.4-2-6.4-5-7.7.7-.7 1.2-1.6 1.2-2.6v-.3c0-2-1.6-3.6-3.7-3.6-.9 0-1.7.3-2.3.8-.6-.5-1.5-.8-2.3-.8-2 0-3.7 1.6-3.7 3.6v.3c0 .9.4 1.8 1 2.5-3.2 1.2-5.4 4.3-5.4 7.8v3.5c0 1 .2 2 .5 3h-2c-.3 0-.7-.1-6.7 5.3l-.2-.3c-.4-.4-1.1-.5-1.6-.1l-2.8 2.6c-.2.2-.3.6 0 .8.2.2.6.3.8 0l2.7-2.5 7.7 8.3-2.4 2.5c-.2.2-.3.6 0 .8.1.1.3.2.4.2.1 0 .3-.1.4-.2l2.8-2.6c.2-.2.3-.5.4-.8 0-.3-.1-.6-.3-.8l-.6-.6h13.2c1.5 0 3.6-1.6 6.5-4.8 2.1-2.4 3.9-5 4.4-5.7.8-1.7-.3-2.8-.9-3.3zM24.9 9.3c0-1.3 1.1-2.4 2.4-2.4.7 0 1.4.3 1.9.8.2.3.7.3.9 0 .5-.5 1.1-.8 1.9-.8 1.4 0 2.4 1.1 2.4 2.4v.3c0 .9-.6 1.8-1.4 2.1h-.1c-.6-.1-1.2-.2-1.8-.2h-3.5c-.5 0-1 .1-1.5.2-.8-.4-1.3-1.2-1.3-2.1v-.3h.1zm-4.3 14v-3.5c0-3.3 2.3-6.2 5.5-6.9h.3c.5-.1 1-.2 1.5-.2h.5c-.9 1.1-2.1 2.7-1.8 4 .1.3.3.5.6.5h.1c.3-.1.5-.4.5-.7-.1-.7.8-2 1.7-3.1.6 1.4 2 2.9 4.2 2.9.3 0 .6-.3.6-.6s-.3-.6-.6-.6c-1.9 0-2.8-1.4-3.2-2.4h1c.5 0 1 .1 1.4.1 3.1.8 5.4 3.7 5.4 6.9v3.5c0 1.2-.3 2.4-.9 3.5-1.3 1.2-3 2.8-3.4 3.2-.4.4-.7.5-.8.6h-1.4c-.1-1.6-1.4-2.2-2.1-2.3h-3.1c-.3 0-1.1-.7-1.4-1l-.3-.3c-.6-.6-1.5-.6-1.6-.6h-2.1c-.3-.9-.6-1.9-.6-3zM41.3 28c-1.1 1.9-7.3 10-9.8 10H17.3l-5.2-5.5c2.5-2.2 5.3-4.6 5.9-5h2.6c.2.1.4.1.6 0h2.1c.2 0 .6.1.9.3l.3.3c.6.6 1.4 1.3 2.2 1.3h2.9c.2.1 1.1.3 1.1 1.5 0 1-.5 1.5-1.8 1.5h-7.1c-.3 0-.6.3-.6.6s.3.6.6.6h7.1c1.9 0 2.6-.8 2.9-1.7h1.7c.1 0 .8-.2 1.5-.9.3-.4 2-1.9 3.4-3.2l.1-.1c.5-.5 1-.9 1.3-1.2.2-.2.9-.5 1.1-.3.5.4.9.9.4 1.8z"/><path d="M30.4 21.5l.1-.8h-1.9v.8h1.8zM29 19.9c.3-.4.7-.7 1.2-.7.4 0 .6.1.8.4.2.2.3.6.4 1h1.3c0-.5-.2-.9-.4-1.3s-.5-.6-.9-.8c-.4-.2-.8-.3-1.3-.3-.6 0-1.2.1-1.6.4s-.8.7-1 1.2c-.1.3-.2.5-.3.8h1.4c.2-.2.3-.5.4-.7zm-2.4.8v.8h.7c0-.3 0-.6.1-.8h-.8zm2 1.1v-.3h-1.3v.5h1.3v-.2zm-1.3.3h-.7v.8h.7v-.8zm2.9.8l.1-.8h-1.7c0 .3 0 .6.1.8h1.5z"/><path d="M27.6 23.6c.2.5.6 1 1 1.3s1 .4 1.6.4c.5 0 1-.1 1.3-.3.4-.2.7-.5.9-.8.2-.4.4-.8.4-1.3h-1.3c0 .4-.2.8-.4 1s-.5.4-.9.4c-.3 0-.6-.1-.8-.3-.2-.2-.4-.5-.6-.9 0-.1-.1-.2-.1-.3h-1.3c0 .3.1.6.2.8z"/></symbol><symbol id="carte-interactive" xmlns="http://www.w3.org/2000/svg" xmlns:xlink="http://www.w3.org/1999/xlink" xml:space="preserve" viewBox="0 0 50 50"><path d="M40.1 17.3l-2.2-.9c-.4-.2-.8 0-1 .4s0 .8.4 1l1.8.8v19.7l-8.3-3.5v-1.1c0-.4-.3-.8-.8-.8s-.8.3-.8.8v1.2l-9.3 3.3v-19l2.7-1.2c.4-.2.6-.6.4-1s-.6-.6-1-.4l-2.9 1.3-9.2-3.8c-.2-.1-.5 0-.7.1-.2.1-.3.4-.3.6v19.6c0 .3.2.6.4.7l9.5 4.9c.1 0 .2.1.3.1h.2L30 36.3l9.4 3.9c.1 0 .2.1.3.1s.3 0 .4-.1c.2-.1.3-.4.3-.6V18c.2-.3 0-.5-.3-.7zM18.4 38l-7.9-4.1v-18l7.9 3.2V38z"/><path d="M30 31.3c.3 0 .6-.2.7-.5 1.3-3.2 5.5-13.7 5.5-15.1 0-3.5-2.8-6.3-6.2-6.3s-6.2 2.8-6.2 6.3c0 1.4 4.2 11.9 5.5 15.1.2.3.4.5.7.5zm0-20.4c2.6 0 4.7 2.1 4.7 4.8 0 .9-2.3 6.9-4.7 12.8-2.4-5.9-4.7-11.9-4.7-12.8 0-2.6 2.2-4.8 4.7-4.8z"/><path d="M33 15.7c0-1.7-1.3-3-3-3s-3 1.4-3 3 1.3 3 3 3c1.7.1 3-1.3 3-3zm-4.4 0c0-.8.7-1.5 1.5-1.5s1.5.7 1.5 1.5-.7 1.5-1.5 1.5c-.9 0-1.5-.6-1.5-1.5z"/></symbol><symbol id="carte" xmlns="http://www.w3.org/2000/svg" xmlns:xlink="http://www.w3.org/1999/xlink" xml:space="preserve" viewBox="0 0 50 50"><g id="Maquette"><g id="_x30_3_x5F_recherche-artisans-map" transform="translate(-1606 -684)"><g id="bt-carte" transform="translate(1586 676)"><g transform="translate(20 8)" id="icon-map"><g id="Group-3" transform="translate(0 .498)"><path id="Fill-1_00000141432090338780967930000007388664942119795639_" d="M24.8 37.3c-2.5-1.8-10.6-8.4-10.6-15.6 0-5.8 4.8-10.6 10.6-10.6s10.6 4.8 10.6 10.6c0 7.2-8.2 13.6-10.6 15.6m0-28.8c-7.2 0-13.2 5.9-13.2 13.2 0 9.8 12 17.9 12.4 18.2.3.1.5.3.8.3.3 0 .5-.1.8-.3.5-.4 12.4-8.4 12.4-18.2-.1-7.3-6-13.2-13.2-13.2"/></g><path id="Fill-4" d="M24.8 24.9c-1.4 0-2.7-1.2-2.7-2.7 0-1.4 1.2-2.7 2.7-2.7 1.4 0 2.7 1.2 2.7 2.7 0 1.4-1.3 2.7-2.7 2.7m0-8c-2.8 0-5.3 2.3-5.3 5.3 0 2.8 2.3 5.3 5.3 5.3s5.3-2.3 5.3-5.3c0-2.9-2.5-5.3-5.3-5.3"/></g></g></g></g></symbol><symbol id="catalogues" xmlns="http://www.w3.org/2000/svg" xmlns:xlink="http://www.w3.org/1999/xlink" xml:space="preserve" viewBox="0 0 50 50"><g id="Maquette_00000051359391255237553620000010170969804579872428_"><g id="_x30_1_x5F_home-v5" transform="translate(-23 -794)"><g id="barre-raccourcis" transform="translate(-83 331)"><g transform="translate(106 463)" id="catalogues"><path id="Fill-1" d="M32.6 24.3v-7.8h7l-3.4 3.4c-.1.1-.2.3-.2.5s.1.4.2.5l3.4 3.4h-7zm3.3 11.1c0 1.7-1.3 3.2-3.1 3.2H12c-1.7 0-3.1-1.4-3.1-3.2v-.3c0-1.7 1.3-3.2 3.1-3.2h19.9c.4 0 .7-.3.7-.7v-5.6h3.3v9.8zM12 11h19.2v19.6H12c-1.2 0-2.2.5-3.1 1.2V14.2c0-1.8 1.4-3.2 3.1-3.2zm23.9 3.2v.9h-3.3V11h.2c1.7 0 3.1 1.4 3.1 3.2zm1.7 6.2l4.2-4.1c.2-.2.3-.5.2-.8-.1-.3-.4-.4-.6-.4h-4v-.9c0-2.6-2-4.6-4.5-4.6H12c-2.5 0-4.5 2-4.5 4.6v21.3c0 2.6 2 4.6 4.5 4.6h20.9c2.5 0 4.5-2 4.5-4.6v-9.7h3.9c.3 0 .5-.2.6-.4.1-.3 0-.6-.2-.8l-4.1-4.2z"/></g></g></g></g></symbol><symbol id="contact" xmlns="http://www.w3.org/2000/svg" xmlns:xlink="http://www.w3.org/1999/xlink" xml:space="preserve" viewBox="0 0 50 50"><g id="Maquette"><g id="_x30_5_x5F_fiche-artisan_00000047061761474177596480000001654343518854454191_" transform="translate(-222 -973)"><g id="Engagements_00000112590833705769157980000012577145031727632304_" transform="translate(222 833)"><g id="Contact" transform="translate(0 140)"><g id="icon-contact"><path id="Fill-1_00000018951746865012715090000015831294052525424274_" d="M41.8 36.8l-1 1c-.1.1-.5.1-.7-.2l-7-7c-.3-.2-.3-.5-.2-.7l1-1s.1-.1.2-.1c.2 0 .4.1.5.3l7 7c.3.2.4.6.2.7zm-6.2 4.1c-.9.9-1.9 1.4-2.9 1.4h-.1c-1.7 0-3-1.4-3-1.4L9 20.2c-1-1-1.4-2-1.4-3-.1-1.8 1.3-3.3 1.4-3.3l2.7-2.7 6.2 6.2-3 3c-.1.1-.2.3-.2.5s.1.4.2.5l13.7 13.7c.3.3.7.3 1 0l2.9-2.9 6 6-2.9 2.7zM12.2 9.1l1-1s.1-.1.2-.1c.2 0 .4.1.5.3l7 7c.1.1.2.3.3.5 0 .1 0 .2-.1.3l-1 1c-.1.1-.5.1-.7-.2l-7-7c-.3-.3-.3-.6-.2-.8zm30.4 26l-7-7c-.8-.8-2-.9-2.7-.2l-1 1c-.5.5-.6 1.3-.3 2.1l-2.5 2.5-12.7-12.7 2.6-2.6c.3.2.6.2.9.2.4 0 .9-.2 1.2-.5l1-1c.4-.4.5-.9.5-1.4-.1-.5-.3-1-.7-1.3l-7-7c-.8-.8-2-.9-2.7-.2l-1 1c-.5.6-.6 1.3-.3 2L8 12.9c-.1.1-1.8 1.8-1.9 4.2 0 1.5.6 2.8 1.8 4.1l20.6 20.6c.1.1 1.7 1.8 4 1.9h.1c1.4 0 2.7-.6 3.9-1.8l2.9-2.9c.3.2.7.3 1.1.3.4 0 .9-.2 1.2-.5l1-1c.8-.7.8-1.9-.1-2.7z"/><path id="Fill-3_00000060018824533692110310000008507912872973783721_" d="M27.6 11.2h11.8l-2.6 2.5c-.3.3-.3.7 0 1 .1.1.3.2.5.2s.4-.1.5-.2l3.8-3.8c.2.1.2 0 .3-.1 0-.1.1-.2.1-.3s0-.2-.1-.3c0-.1-.1-.2-.2-.2l-3.8-3.8c-.3-.3-.7-.3-1 0-.3.3-.3.7 0 1l2.6 2.5H27.6c-.4 0-.7.3-.7.7s.4.8.7.8"/><path id="Fill-5_00000078731375319906833460000018192086057557098660_" d="M26.3 18.5c0 .1.1.2.2.2l3.8 3.8c.1.1.3.2.5.2s.4-.1.5-.2c.3-.3.3-.7 0-1L28.7 19h11.8c.4 0 .7-.3.7-.7s-.3-.7-.7-.7H28.7l2.6-2.5c.3-.3.3-.7 0-1s-.7-.3-1 0l-3.8 3.8-.2.2c0 .1-.1.2-.1.3.1-.1.1 0 .1.1"/></g></g></g></g></g></symbol><symbol id="devis" xmlns="http://www.w3.org/2000/svg" xmlns:xlink="http://www.w3.org/1999/xlink" xml:space="preserve" viewBox="0 0 50 50"><g id="Maquette_00000008147179626161298660000018281066436555864196_"><g id="_x30_5_x5F_fiche-artisan" transform="translate(-230 -1047)"><g id="Engagements" transform="translate(222 833)"><g id="Devis-3-semaines" transform="translate(8 214)"><g id="icon-devis"><path id="Fill-1" d="M10.1 40.4h23.8v-3H10.1v3zm18.5-26V10l4.4 4.4h-4.4zm5.9 20.1c-.4 0-.6.3-.6.6v1H10.1v-27h17.2V15c0 .4.3.6.6.6h5.9v5.1c0 .4.3.6.6.6.4 0 .6-.3.6-.6v-6c0-.1-.1-.1-.1-.2L28.4 8H9.5c-.4-.1-.6.2-.6.6v32.5c0 .4.3.6.6.6h25c.4 0 .6-.3.6-.6v-5.9c0-.4-.2-.7-.6-.7z"/><path id="Fill-3" d="M34.5 32.9c-2.7 0-4.9-2.2-4.9-4.9s2.2-4.9 4.9-4.9 4.9 2.2 4.9 4.9-2.2 4.9-4.9 4.9m0-11c-3.4 0-6.2 2.8-6.2 6.2s2.8 6.2 6.2 6.2c3.4 0 6.2-2.8 6.2-6.2s-2.8-6.2-6.2-6.2"/><path id="Fill-4" d="M12.5 12.3H17c.4 0 .6-.3.6-.6 0-.4-.3-.6-.6-.6h-4.6c-.4 0-.6.4-.6.6 0 .3.3.6.7.6"/><path id="Fill-5" d="M12.5 14.6h7.1c.4 0 .6-.3.6-.6s-.3-.6-.6-.6h-7.1c-.4 0-.6.3-.6.6s.2.6.6.6"/><path id="Fill-6" d="M36.8 25.9L34 29l-1.5-1.5c-.3-.3-.6-.3-.9 0s-.3.6 0 .9l2 2c.1.1.3.2.4.2.2 0 .4-.1.4-.2l3.3-3.7c.3-.3.2-.6-.1-.9-.1-.2-.6-.2-.8.1"/><path id="Fill-7_00000010306522325885250690000002591704046121153154_" d="M27.1 20H15c-.4 0-.6.3-.6.6s.3.6.6.6h12.1c.4 0 .6-.3.6-.6s-.2-.6-.6-.6"/><path id="Fill-8" d="M27.1 24.1H12.5c-.4 0-.6.3-.6.6 0 .4.3.6.6.6h14.6c.4 0 .6-.3.6-.6s-.2-.6-.6-.6"/><path id="Fill-9" d="M27.7 28.7c0-.4-.3-.6-.6-.6H12.5c-.4 0-.6.3-.6.6 0 .4.3.6.6.6h14.6c.4.1.6-.3.6-.6"/><path id="Fill-10" d="M12.5 32.2c-.4 0-.6.3-.6.6 0 .4.3.6.6.6H25c.4 0 .6-.3.6-.6 0-.4-.3-.6-.6-.6H12.5z"/></g></g></g></g></g></symbol><symbol id="facebook" xmlns="http://www.w3.org/2000/svg" xmlns:xlink="http://www.w3.org/1999/xlink" xml:space="preserve" viewBox="0 0 50 50"><g id="Maquette"><g id="_x30_1_x5F_home-v5" transform="translate(-1351 -52)"><g id="Header" transform="translate(-1 -2)"><g transform="translate(1352 54)" id="reseaux-sociaux"><g id="Group-9"><path id="Fill-7" d="M41 24.9C41 16 33.7 8.7 24.8 8.7S8.6 15.9 8.6 24.9c0 8 6 14.8 13.7 16.1V29.6h-4.1v-4.7h4.1v-3.6c0-4.1 2.4-6.3 6.1-6.3 1.8 0 3.6.3 3.6.3v4h-2c-2 0-2.7 1.3-2.7 2.6V25h4.5l-.8 4.7h-3.8V41C35.1 39.7 41 32.9 41 24.9"/></g></g></g></g></g></symbol><symbol id="fiche-mail" xmlns="http://www.w3.org/2000/svg" xmlns:xlink="http://www.w3.org/1999/xlink" xml:space="preserve" viewBox="0 0 50 50"><g id="Maquette"><g id="_x30_3_x5F_recherche-artisans-map" transform="translate(-168 -1185)"><g id="fiche-1" transform="translate(111 783)"><g id="bt-mail" transform="translate(41 383)"><g transform="translate(16 19)" id="Group-3"><path id="Fill-1" d="M21.1 23.1L10.8 33.4v-18l10.3 7.7zm1.8 1.4l1.3 1c.4.3 1 .3 1.4 0l1.3-1 10.4 10.4h-25l10.6-10.4zm1.9-1.2l-11.8-9h23.6l-11.8 9zm14-7.9v18L28.5 23.1l10.3-7.7zM41 13v-.1c0-.1 0-.1-.1-.1 0-.1-.1-.3-.1-.3l-.1-.1-.1-.1c-.1 0-.1 0-.3-.1H9.4s-.1 0-.3.1c-.1-.1-.1 0-.1 0-.1 0-.1.1-.1.1s-.1.1-.1.3l-.1.1v24c0 .1.1.1.1.3l.1.1.1.2c.1 0 .3.1.4.1h30.3c.1 0 .3 0 .3-.1.1 0 .1-.1.3-.1l.3-.3c0-.1.1-.1.1-.3V13.1c.3 0 .3-.1.3-.1z"/></g></g></g></g></g></symbol><symbol id="fiche-phone" xmlns="http://www.w3.org/2000/svg" xmlns:xlink="http://www.w3.org/1999/xlink" xml:space="preserve" viewBox="0 0 50 50"><g id="Maquette_00000132786883588057196560000009061800289975606926_"><g id="_x30_3_x5F_recherche-artisans-map_00000114048321476141134820000008346368964215242649_" transform="translate(-253 -1182)"><g id="fiche-1_00000162341633939987034110000012964528558250322364_" transform="translate(111 783)"><g id="bt-phone" transform="translate(121 383)"><g transform="translate(21 16)" id="Group-8"><g id="Group-3_00000024723584133958358950000011459574164920289413_" transform="translate(0 .368)"><path id="Fill-1_00000154405208001158257870000015188376397569476272_" d="M33.3 35.2v3.6c0 .1 0 .1-.1.1H16.4c-.1 0-.1 0-.1-.1v-3.6h17zm-17.1-2.3h17.1V16.7H16.2v16.2zm0-18.5v-4.3c0-.1 0-.1.1-.1h16.8c.1 0 .1 0 .1.1v4.3h-17zm17-6.8H16.4C15.1 7.6 14 8.7 14 10v28.7c0 1.3 1.1 2.4 2.4 2.4h16.8c1.3 0 2.4-1.1 2.4-2.4V10.1c0-1.3-1.1-2.5-2.4-2.5z"/></g><path id="Fill-4" d="M27.3 11.3h-4.6c-.6 0-1.1.6-1.1 1.1 0 .6.6 1.1 1.1 1.1h4.6c.6 0 1.1-.6 1.1-1.1 0-.5-.5-1.1-1.1-1.1"/><path id="Fill-6" d="M23.7 38.6h3.6c.6 0 1.1-.6 1.1-1.1s-.6-1.1-1.1-1.1h-3.6c-.6 0-1.1.6-1.1 1.1s.5 1.1 1.1 1.1"/></g></g></g></g></g></symbol><symbol id="fiche-plus" xmlns="http://www.w3.org/2000/svg" xmlns:xlink="http://www.w3.org/1999/xlink" xml:space="preserve" viewBox="0 0 50 50"><g id="Maquette"><g id="_x30_3_x5F_recherche-artisans-map" transform="translate(-329 -1183)"><g id="fiche-1" transform="translate(111 783)"><g id="bt-plus" transform="translate(200 383)"><g transform="translate(18 17)" id="Group-3"><path id="Fill-1" d="M39.1 23.3H26.3V10.5c0-.8-.6-1.5-1.5-1.5-.8 0-1.5.6-1.5 1.5v12.8H10.5c-.8 0-1.5.6-1.5 1.5 0 .8.6 1.5 1.5 1.5h12.8v12.8c0 .8.6 1.5 1.5 1.5.8 0 1.5-.6 1.5-1.5V26.3h12.8c.8 0 1.5-.6 1.5-1.5s-.8-1.5-1.5-1.5"/></g></g></g></g></g></symbol><symbol id="garantie" xmlns="http://www.w3.org/2000/svg" xmlns:xlink="http://www.w3.org/1999/xlink" xml:space="preserve" viewBox="0 0 50 50"><g id="Maquette_00000093891677581784736290000009154728524498672798_"><g id="_x30_5_x5F_fiche-artisan" transform="translate(-494 -973)"><g id="Engagements" transform="translate(222 833)"><g id="Garantie-biennale" transform="translate(272 140)"><g id="icon-garantie"><path id="Fill-1_00000098907115792543318270000013392203668470882213_" d="M37.7 40.1l-.8-.9c-.1-.1-.3-.2-.5-.2s-.4.1-.5.2l-.8.9v-4.9c.4.1.8.2 1.3.2.2 0 .5 0 .7-.1h.1c.2 0 .4-.1.6-.1l-.1 4.9zm-3-10.5c.5-.3 1-.5 1.6-.5s1.1.2 1.6.5c.6.5 1 1.2 1 1.9s-.4 1.5-1 1.9c-.9.7-2.3.7-3.2 0-.6-.5-1-1.2-1-1.9s.4-1.4 1-1.9zm5.6 2c0-1.2-.6-2.3-1.6-3-1.4-1-3.4-1-4.9 0-1 .7-1.6 1.8-1.6 3 0 1.1.5 2.1 1.3 2.8v7.5c0 .3.2.5.4.6h.2c.2 0 .4-.1.5-.2l1.5-1.7 1.5 1.7c.2.2.5.3.8.2s.4-.4.4-.6v-7.5c1.1-.7 1.5-1.7 1.5-2.8z"/><path id="Fill-3_00000150806408697810146920000015359832659425929401_" d="M12.8 11.1H17V9.7h-4.2z"/><path id="Fill-5_00000125576374664980537930000011078040525901111468_" d="M12.8 14.2H19v-1.4h-6.2z"/><path id="Fill-6" d="M12.8 18.3h20.7v-1.4H12.8z"/><path id="Fill-7" d="M12.8 23.1h20.7v-1.4H12.8z"/><path id="Fill-8_00000079444311265151997330000009741121111174250166_" d="M12.8 28.1h19v-1.4h-19z"/><path id="Fill-9" d="M12.8 33H30v-1.4H12.8z"/><path id="Fill-10_00000000197795321907836620000008228295495529313173_" d="M12.8 38.3H30v-1.4H12.8z"/><path id="Fill-11" d="M28.5 8.7l2.9 2.1 2.8 2h-5.7V8.7zM10.7 8h16.5v5.5c0 .4.3.7.7.7h7.8v12.1h1.4V13.5c0-.1 0-.2-.1-.3v-.1c0-.1-.1-.2-.2-.2l-8.5-6.2c-.1 0-.1-.1-.2-.1H10c-.4 0-.7.3-.7.7v35c0 .4.3.7.7.7h22.3v-1.4H10.7V8z"/></g></g></g></g></g></symbol><symbol id="innovation" xmlns="http://www.w3.org/2000/svg" xmlns:xlink="http://www.w3.org/1999/xlink" xml:space="preserve" viewBox="0 0 50 50"><g id="Maquette"><g id="_x30_1_x5F_home-v5" transform="translate(-967 -6050)"><g id="Valeurs" transform="translate(-4 5649)"><g id="Innovation-_x26_-qualité" transform="translate(971 401)"><g id="picto-innovation"><path id="Fill-1" d="M30.3 18.8l.6.6c1.2-1.1 2.7-1.6 4.3-1.4l.1-1c-1.9-.1-3.7.5-5 1.8"/><path id="Fill-3" d="M38.8 22.7c-.7 1.7-2.3 2.9-4.3 3.2-.2 0-.3.1-.3.3L33 29l-4.5-2 1.2-2.8c.1-.1 0-.3 0-.4a5.12 5.12 0 01-.5-5.2c1.2-2.7 4.3-3.9 7-2.8 1.3.5 2.3 1.6 2.9 2.9.2 1.2.2 2.7-.3 4zm-6.9 8.8l-1.4-.6-1.8-.7-1.4-.5.7-1.8.7.3 3.8 1.6-.6 1.7zm-4.2 6.6L25.2 37l-.2-1.4 3.8 1.7-1.1.8zm-2 1.4l-.2-1.4.2.1 1.2.5-1.2.8zm1.3-9.1l1 .4-1.9 4.2-.2-.1-.7-.3 1.8-4.2zm2.6 6.1l-1-.4.9-2 .9-2 .7.3.2.1-1.7 4zm-1.8-.7l-.5-.3-.3-.1 1.8-4.2.9.4-.2.3-1.7 3.9zm8.6-21c-3.2-1.4-6.8.1-8.2 3.3-.9 1.9-.6 4.2.5 6l-1.3 3-1.2 2.6-2.1 5v.1l.3 2.6.4 3c0 .2.1.3.3.3h.2c.1 0 .2 0 .3-.1l2.5-1.7 2.1-1.5h.1s0-.1.1-.1l2.1-5 1.1-2.6v-.1l1.3-3c2-.3 3.8-1.7 4.7-3.6.6-1.5.6-3.2.1-4.8-.5-1.7-1.7-2.7-3.3-3.4z"/><g id="Group-7" transform="translate(0 27.218)"><path id="Fill-5" d="M18.7-4H16l.9-2.6L18.7-4zm-9.2.8l2 6.6-4.9-6.6h2.9zm.5-1.3L9.1-7h2.7L10-4.5zm5.3 0l-1.9-2.6h2.7l-.8 2.6zm.6 1.3h3l-5.1 6.7 2.1-6.7zM10.6-4l2-2.7 2 2.7h-4zm4.3.8l-2.2 7.3-2.2-7.3h4.4zM8.4-6.6L9.1-4H6.6l1.8-2.6zm5.1 18.7c-.2-.2-.3-.6-.3-1.1V5.8L20-3.3c.1-.1.1-.3 0-.5l-2.9-3.9c-.1-.1-.2-.3-.3-.3H8.6c-.1 0-.2.2-.3.3l-3 3.9c-.1.1-.1.3 0 .5l6.8 9.1V11c0 .7.2 1.3.6 1.7.7.6 1.6.6 1.7.6h7.3v-1h-7.3c.1.1-.6.1-.9-.2z"/></g><path id="Fill-8" d="M36.9 13.2h.2c.2 0 .3-.1.4-.3l1.4-3.1c.1-.2 0-.5-.2-.6s-.5 0-.6.2l-1.4 3.1c-.1.3 0 .6.2.7"/><g id="Group-12" transform="translate(93 14.218)"><path id="Fill-10" d="M-48.7.6c0-.2-.3-.3-.5-.3l-3.1 1.2c-.2.1-.3.3-.3.6.1.2.2.3.4.3h.2l3.1-1.2c.2-.1.3-.4.2-.6"/></g><path id="Fill-13" d="M32.1 12.7c.1.2.2.3.4.3h.2c.2-.1.3-.3.3-.6l-1.2-3.1c0-.2-.2-.3-.6-.3-.2.1-.3.3-.3.6l1.2 3.1z"/></g></g></g></g></g></symbol><symbol id="instagram" xmlns="http://www.w3.org/2000/svg" xmlns:xlink="http://www.w3.org/1999/xlink" xml:space="preserve" viewBox="0 0 50 50"><g id="Maquette_00000180362761949404555510000013391454752561589682_"><g id="_x30_1_x5F_home-v5_00000116193979032848258830000002577436778841917102_" transform="translate(-1410 -52)"><g id="Header_00000129919693260167478830000016356532277649674431_" transform="translate(-1 -2)"><g transform="translate(1352 54)" id="reseaux-sociaux_00000101781924114465230470000008809504702758407328_"><g transform="translate(59)" id="Group-6_00000038410314758107185810000004799169525182029717_"><path id="Fill-4" d="M31.3 19.7c0 .6-.5 1.3-1.3 1.3-.6 0-1.3-.5-1.3-1.3 0-.6.5-1.3 1.3-1.3s1.3.5 1.3 1.3m-6.7 8.9c-1.9 0-3.5-1.6-3.5-3.5s1.6-3.5 3.5-3.5 3.5 1.6 3.5 3.5c0 2-1.6 3.5-3.5 3.5m0-8.8c-3 0-5.3 2.3-5.3 5.3s2.3 5.3 5.3 5.3 5.3-2.3 5.3-5.3c0-2.8-2.3-5.3-5.3-5.3m0-3.1h4.1c1 0 1.6.3 1.9.4.5.1.8.4 1.2.8.4.4.6.6.8 1.2.1.4.3.9.4 1.9v8.2c0 1-.3 1.6-.4 1.9-.1.5-.4.8-.8 1.2-.4.4-.6.6-1.2.8-.4.1-.9.3-1.9.4h-8.2c-1 0-1.6-.3-1.9-.4-.5-.1-.8-.4-1.2-.8-.4-.4-.6-.6-.8-1.2-.1-.4-.3-.9-.4-1.9V21c0-1 .3-1.6.4-1.9.1-.5.4-.8.8-1.2.4-.4.6-.6 1.2-.8.4-.1.9-.3 1.9-.4h4.1m0-1.8h-4.3c-1 0-1.8.3-2.5.5s-1.3.6-1.8 1.2c-.5.5-.9 1.2-1.2 1.8s-.4 1.4-.5 2.5v8.6c0 1 .3 1.8.5 2.5.3.6.6 1.3 1.2 1.8s1.2.9 1.8 1.2c.6.3 1.4.4 2.5.5h8.6c1 0 1.8-.3 2.5-.5.6-.3 1.3-.6 1.8-1.2s.9-1.2 1.2-1.8c.3-.6.4-1.4.5-2.5v-8.6c0-1-.3-1.8-.5-2.5-.3-.6-.6-1.3-1.2-1.8-.5-.5-1.2-.9-1.8-1.2-.6-.3-1.4-.4-2.5-.5h-4.3m0-6.2c9 0 16.4 7.3 16.4 16.4s-7.4 16.5-16.5 16.5S8.1 34.2 8.1 25.1 15.5 8.7 24.6 8.7"/></g></g></g></g></g></symbol><symbol id="k" xmlns="http://www.w3.org/2000/svg" xmlns:xlink="http://www.w3.org/1999/xlink" xml:space="preserve" viewBox="0 0 50 50"><path d="M32.6 32.5l-5-8.2c-.1-.2-.3-.3-.5-.3-.3 0-.4.1-.6.2L19.6 31v-2L32 16.5c.2-.2.3-.5.2-.7-.1-.3-.3-.4-.7-.4h-4c-.2 0-.3.1-.5.2l-7.4 7.3v-5.5h-1.4v7.2c0 .3.2.6.4.7.2.1.6.1.7-.2l8.4-8.4h2.1L18.3 28.3c-.2.2-.2.3-.2.5v4c0 .3.2.6.4.7.3.1.6.1.7-.2l7.4-7.4 3.9 6.4H29l-1.3-2.2-1.3.7 1.5 2.5c.2.2.3.3.6.3h3.3c.2 0 .5-.2.6-.3.3-.4.3-.7.2-.8z"/><path d="M25 41.1c-9.1 0-16.5-7.4-16.5-16.5S15.9 8 25 8s16.5 7.4 16.5 16.5S34.1 41.1 25 41.1zm0-31.5c-8.3 0-15 6.7-15 15s6.7 15 15 15 15-6.7 15-15-6.7-15-15-15z"/></symbol><symbol id="liste" xmlns="http://www.w3.org/2000/svg" xmlns:xlink="http://www.w3.org/1999/xlink" xml:space="preserve" viewBox="0 0 50 50"><g id="Maquette"><g id="_x30_3_x5F_recherche-artisans-map" transform="translate(-1467 -688)"><g id="bt-liste" transform="translate(1447 676)"><g transform="translate(20 12)" id="icon-liste"><path id="Fill-1" d="M10.9 16.4h28.3c.8 0 1.3-.5 1.3-1.3s-.5-1.3-1.3-1.3H10.9c-.8 0-1.3.5-1.3 1.3 0 .7.5 1.3 1.3 1.3"/><path id="Fill-3" d="M10.9 26.8h19.6c.8 0 1.3-.5 1.3-1.3s-.5-1.3-1.3-1.3H10.9c-.8 0-1.3.5-1.3 1.3s.5 1.3 1.3 1.3"/><g id="Group-7" transform="translate(0 16.674)"><path id="Fill-5" d="M39.2 18.2H10.9c-.8 0-1.3.5-1.3 1.3s.5 1.3 1.3 1.3h28.3c.8 0 1.3-.5 1.3-1.3s-.5-1.3-1.3-1.3"/></g></g></g></g></g></symbol><symbol id="mail" xmlns="http://www.w3.org/2000/svg" xmlns:xlink="http://www.w3.org/1999/xlink" xml:space="preserve" viewBox="0 0 50 50"><g id="Maquette_00000064327291262189130090000007928148692808797109_"><g id="_x30_1_x5F_home-v5" transform="translate(-222 -9761)"><g id="Contact" transform="translate(222 9276)"><g id="mail" transform="translate(0 485)"><g id="Group-8"><g id="Group-3" transform="translate(0 .626)"><path id="Fill-1_00000045606423749021720550000015594708011830740630_" d="M42.5 32.1l-4.3-6.4c-.1-.2-.3-.3-.5-.3H15.3c-.3 0-.6-.3-.6-.6V9.1c0-.3.3-.6.6-.6h26.6c.3 0 .6.3.6.6v23zm-7.1-1.4c0 .3-.3.6-.6.6H12.4c-.2 0-.4.1-.5.3L7.6 38V15c0-.3.3-.6.6-.6h5.3v10.4c0 1 .8 1.8 1.8 1.8h20.1v4.1zm6.5-23.4H15.3c-1 0-1.8.8-1.8 1.8v4.1H8.2c-1 0-1.8.8-1.8 1.8v25c0 .3.2.5.4.6H7c.2 0 .4-.1.5-.3l5.2-7.8h22c1 0 1.8-.8 1.8-1.8v-4.1h.8l5.2 7.8c.1.2.3.3.5.3h.2c.3-.1.4-.3.4-.6v-25c.1-1-.7-1.8-1.7-1.8z"/></g><path id="Fill-4" d="M17.8 13.9h7.4v-1.2h-7.4z"/><path id="Fill-6" d="M17.8 17.7h14.8v-1.2H17.8z"/><path id="Fill-7" d="M17.8 21.1h22.1v-1.2H17.8z"/></g></g></g></g></g></symbol><symbol id="phone" xmlns="http://www.w3.org/2000/svg" xmlns:xlink="http://www.w3.org/1999/xlink" xml:space="preserve" viewBox="0 0 50 50"><g id="Maquette"><g id="_x30_1_x5F_home-v5_00000134233522265137320250000000717556788297183367_" transform="translate(-229 -9691)"><g id="Contact_00000047768155164909019020000001966317227197670065_" transform="translate(222 9276)"><g id="tel" transform="translate(7 415)"><g id="Group-12"><g id="Group-3_00000142158574618295696070000002880656230135601539_" transform="translate(0 .07)"><path id="Fill-1" d="M34.6 40.9c0 .5-.4.9-.9.9H14.4c-.5 0-.9-.4-.9-.9v-4.8h21l.1 4.8zM13.5 8.1c0-.5.4-.9.9-.9h19.2c.5 0 .9.4.9.9v5.6h-21V8.1zm0 26.8h21V14.8h-21v20.1zM33.7 6H14.4c-1.1 0-2.1.9-2.1 2.1v32.8c0 1.1.9 2.1 2.1 2.1h19.2c1.1 0 2.1-.9 2.1-2.1V8.1c0-1.2-.9-2.1-2-2.1z"/></g><path id="Fill-4_00000074419570391251192910000010331792183438371253_" d="M26.9 9.9h-5.3c-.3 0-.6.3-.6.6s.3.6.6.6h5.3c.3 0 .6-.3.6-.6s-.3-.6-.6-.6"/><path id="Fill-6_00000000910127743634849210000009001784587992780953_" d="M22.8 39.6h4.1c.3 0 .6-.3.6-.6s-.3-.6-.6-.6h-4.1c-.3 0-.6.3-.6.6s.3.6.6.6"/><path id="Fill-8" d="M17.1 17.7c-.3 0-.6.3-.6.6v8.1c0 .3.3.6.6.6s.6-.3.6-.6v-8.1c-.1-.3-.3-.6-.6-.6"/><path id="Fill-10" d="M17.1 28.7c-.3 0-.6.3-.6.6v1.8c0 .3.3.6.6.6s.6-.3.6-.6v-1.8c-.1-.3-.3-.6-.6-.6"/></g></g></g></g></g></symbol><symbol id="photo" xmlns="http://www.w3.org/2000/svg" xmlns:xlink="http://www.w3.org/1999/xlink" xml:space="preserve" viewBox="0 0 50 50"><g id="Maquette_00000054240820373979682680000015030970129439439284_"><g id="_x30_1_x5F_home-v5" transform="translate(-1635 -8394)"><g id="Inspirations" transform="translate(36 7456)"><g transform="translate(1599 938)" id="icon-photo"><g id="Group-3" transform="translate(0 .402)"><path id="Fill-1_00000067919301621514101070000009914798799908117421_" d="M42.6 34.9c0 .5-.4.8-.8.8h-4.9l.1-.1.1-.1.2-.2.1-.1.2-.2.1-.1.3-.3v-.1c.1-.1.1-.2.2-.3l.1-.1.2-.2.1-.1c0-.1.1-.1.1-.2l.1-.1c0-.1.1-.1.1-.2l.1-.1.2-.2s0-.1.1-.1c.1-.1.1-.2.2-.3v-.1c.1-.1.1-.2.2-.3 0 0 0-.1.1-.1 0-.1.1-.2.1-.2s0-.1.1-.1c0-.1.1-.1.1-.2 0 0 0-.1.1-.1 0-.1.1-.1.1-.2 0 0 0-.1.1-.1 0-.1.1-.2.1-.2s0-.1.1-.1c.1-.1.1-.2.1-.4v-.1c0-.1.1-.2.1-.3V30c0-.1.1-.2.1-.2v-.2c0-.1 0-.2.1-.2v-.2c0-.1 0-.2.1-.2v-.2c0-.1 0-.2.1-.3v-.1c0-.1.1-.3.1-.4 0-.1 0-.2.1-.4v-4.8c0-.1 0-.3-.1-.4 0-.1-.1-.3-.1-.4v-.1c0-.1 0-.2-.1-.3v-.2c0-.1 0-.2-.1-.2V21c0-.1 0-.2-.1-.2 0-.1 0-.1-.1-.2 0-.1-.1-.2-.1-.2v-.1c0-.1-.1-.2-.1-.3v-.1c0-.1-.1-.2-.1-.3l-.1-.1c0-.1-.1-.2-.1-.2 0-.1 0-.1-.1-.2 0-.1-.1-.1-.1-.2s-.1-.1-.1-.2-.1-.1-.1-.2-.1-.1-.1-.2-.1-.1-.1-.2l-.1-.1c-.1-.1-.1-.2-.2-.3l-.1-.1c-.1-.1-.1-.2-.2-.3l-.1-.1c0-.1-.1-.1-.1-.2l-.1-.1c0-.1-.1-.1-.1-.2l-.1-.1c0-.1-.1-.1-.1-.2l-.1-.1-.2-.2-.1-.1c-.1-.1-.2-.2-.2-.3l-.1-.1c-.1-.1-.2-.2-.2-.3l-.1-.1-.2-.2-.1-.1-.2-.2-.1-.1s-.1 0-.1-.1h5.1c.5 0 .8.4.8.8v19.6h-.1zm-22.8.9c-3.5-2.4-5.6-6.4-5.6-10.7 0-4.4 2.2-8.4 5.8-10.8 2.1-1.4 4.6-2.1 7.1-2.1s5 .7 7.1 2.1c3.7 2.4 5.8 6.5 5.8 10.8 0 4.2-2.1 8.2-5.6 10.7-2.2 1.5-4.7 2.3-7.4 2.3s-5.1-.8-7.2-2.3zm-11.6-.1c-.5 0-.8-.4-.8-.8V15.3c0-.5.4-.8.8-.8h9.4s-.1 0-.1.1l-.1.1-.2.2-.1.1-.2.2-.1.1-.3.3-.3.3-.1.1-.2.2-.1.1-.2.2-.1.1c0 .1-.1.1-.1.2l-.1.1-.2.2-.1.1c-.1.1-.1.2-.2.3-.1.1-.1.2-.2.3 0 0 0 .1-.1.1 0 .1-.1.2-.1.2l-.1.1c0 .1-.1.1-.1.2s0 .1-.1.1c0 .1-.1.2-.1.2s0 .1-.1.1c0 .1-.1.2-.1.2s0 .1-.1.1c-.1.1-.1.2-.1.4 0 .1-.1.2-.1.4v.1c0 .1-.1.2-.1.3v.2c0 .1 0 .2-.1.2v.2c0 .1 0 .2-.1.2v.2c0 .1 0 .2-.1.3v.9c0 .1 0 .3-.1.4v4.8c0 .1 0 .2.1.4v.2c0 .1 0 .2.1.3v.2c0 .1 0 .2.1.2v.2c0 .1 0 .2.1.2v.2c0 .1.1.2.1.2v.1c0 .1.1.2.1.3v.1c0 .1.1.2.1.4 0 0 0 .1.1.1 0 .1.1.2.1.2s0 .1.1.1c0 .1.1.1.1.2s0 .1.1.2c0 .1.1.1.1.2l.1.1c0 .1.1.1.1.2 0 0 0 .1.1.1.1.1.1.2.2.3v.1c.1.1.1.2.2.3l.1.1c0 .1.1.1.1.2l.1.1c0 .1.1.1.1.2l.1.1c0 .1.1.1.1.2l.1.1.2.2.1.1c.1.1.1.2.2.2l.1.1.3.3.1.1.2.2.1.1.2.2.1.1.1.1H8.2v.2zm2.9-23.5h4.7c.4 0 .8.3.9.7h-6.4c.1-.4.4-.7.8-.7zm30.7.9h-6.9c-2.3-1.5-5-2.3-7.7-2.3s-5.4.8-7.7 2.3h-1.4c0-1.2-1-2.3-2.2-2.3h-4.8c-1.2 0-2.2 1-2.2 2.3h-.7c-1.2 0-2.2 1-2.2 2.2v19.6c0 1.2 1 2.2 2.2 2.2h10.9c2.4 1.6 5.1 2.4 8 2.4s5.6-.8 8-2.4h6.6c1.2 0 2.2-1 2.2-2.2V15.3c.1-1.2-.9-2.2-2.1-2.2z"/></g><path id="Fill-4" d="M27.2 34.2c-4.8 0-8.7-3.9-8.7-8.7s3.9-8.7 8.7-8.7 8.7 3.9 8.7 8.7-3.9 8.7-8.7 8.7m0-18.7c-5.5 0-10 4.5-10 10s4.5 10 10 10 10-4.5 10-10-4.5-10-10-10"/><path id="Fill-6" d="M13.9 17.5c0-.4-.3-.7-.7-.7H9.7c-.4 0-.7.3-.7.7s.3.7.7.7h3.4c.5-.1.8-.4.8-.7"/></g></g></g></g></symbol><symbol id="pinterest" xmlns="http://www.w3.org/2000/svg" xmlns:xlink="http://www.w3.org/1999/xlink" xml:space="preserve" viewBox="0 0 50 50"><g id="Maquette"><g id="_x30_1_x5F_home-v5" transform="translate(-1470 -52)"><g id="Header" transform="translate(-1 -2)"><g transform="translate(1352 54)" id="reseaux-sociaux"><g transform="translate(119)" id="Group-3"><path id="Fill-1" d="M24.4 8.3C15.3 8.3 7.9 15.9 7.9 25c0 7 4.4 13.2 10.5 15.5-.1-1.3-.3-3.4 0-4.8.3-1.3 2-8.3 2-8.3s-.5-1-.5-2.5c0-2.3 1.3-4 3-4 1.4 0 2.1 1 2.1 2.3 0 1.4-.9 3.5-1.4 5.6-.4 1.7.8 3 2.5 3 3 0 5.2-3.1 5.2-7.7 0-4-2.9-6.8-6.9-6.8-4.7 0-7.4 3.5-7.4 7.3 0 1.4.5 3 1.2 3.8.1.1.1.3.1.5-.1.5-.4 1.7-.5 2-.1.3-.3.4-.5.3-2.1-.9-3.4-4-3.4-6.5 0-5.2 3.8-10 10.9-10 5.7 0 10.2 4.2 10.2 9.6 0 5.7-3.6 10.4-8.6 10.4-1.7 0-3.3-.9-3.8-2 0 0-.8 3.1-1 3.9C21 38 20 39.9 19.4 41c1.6.5 3.3.8 4.9.8 9.1 0 16.5-7.4 16.5-16.7S33.5 8.3 24.4 8.3"/></g></g></g></g></g></symbol><symbol id="print" xmlns="http://www.w3.org/2000/svg" xmlns:xlink="http://www.w3.org/1999/xlink" xml:space="preserve" viewBox="0 0 50 50"><g id="Maquette"><g id="_x30_3_x5F_recherche-artisans-map" transform="translate(-639 -685)"><g id="bt-imprimer-ma-recherche" transform="translate(639 685)"><g id="Group-3"><path id="Fill-1" d="M15.2 28.5c0-.5.2-1 .6-1.4.4-.4.9-.6 1.5-.6h15.3c.6 0 1.1.2 1.5.6.4.3.6.8.6 1.4v8.9c0 .5-.2 1-.6 1.4-.3.3-.8.6-1.5.6H17.3c-.7 0-1.2-.3-1.5-.6-.4-.4-.6-.9-.6-1.4v-8.9zm20.3-3.1c-.8-.8-1.9-1.2-3-1.2H17.3c-1.1 0-2.2.4-3.1 1.2-.8.9-1.3 1.9-1.3 3.1V32h-2c-.6 0-1.3-.3-1.8-.7-.5-.5-.7-1.2-.7-1.8V18.9c0-.6.3-1.3.7-1.8.5-.5 1.2-.7 1.8-.7h27.9c.6 0 1.3.3 1.8.7.5.5.7 1.1.7 1.8v10.5c0 .7-.3 1.3-.7 1.8-.5.5-1.1.7-1.8.7h-2v-3.4c0-1.1-.4-2.2-1.3-3.1zM16.7 14.2V11c0-.3.2-.6.4-.8.3-.3.8-.5 1.2-.5h13c.4 0 .9.2 1.2.5.2.2.4.5.4.8v3.2H16.7zm25.5 1.4c-.9-.9-2.1-1.4-3.4-1.4h-3.6V11c0-.9-.4-1.8-1.2-2.6-.7-.6-1.7-1-2.7-1h-13c-1 0-1.9.4-2.7 1-.8.6-1.2 1.6-1.2 2.6v3.2H11c-1.3 0-2.5.5-3.4 1.4-.9.9-1.4 2-1.4 3.4v10.5c0 1.3.5 2.5 1.4 3.4.9.9 2.1 1.5 3.4 1.5h2v3.1c0 1.1.4 2.2 1.3 3 .8.8 1.9 1.2 3.1 1.2h15.3c1.1 0 2.2-.4 3-1.2s1.3-1.9 1.3-3v-3.1h2c1.2 0 2.4-.5 3.4-1.4.9-.9 1.4-2 1.4-3.4V18.9c-.2-1.3-.7-2.5-1.6-3.3z"/></g></g></g></g></symbol><symbol id="projet" xmlns="http://www.w3.org/2000/svg" xmlns:xlink="http://www.w3.org/1999/xlink" xml:space="preserve" viewBox="0 0 50 50"><g id="Maquette"><g id="_x30_1_x5F_home-v5" transform="translate(-21 -557)"><g id="barre-raccourcis" transform="translate(-83 331)"><g id="j_x27_ai-un-projet" transform="translate(91 48)"><g transform="translate(13.39 178)" id="projet"><g id="Group-3" transform="translate(4.61)"><path id="Fill-1" d="M20 42.3c-4.1 0-7.6-3.4-7.6-7.5s3.4-7.5 7.6-7.5c4.1 0 7.6 3.4 7.6 7.5s-3.3 7.5-7.6 7.5zm-2.4-17.9h4.8v2.3c-.8-.2-1.5-.3-2.4-.3s-1.6.1-2.4.3v-2.3zm5.9 2.6v-3.2c0-.3-.2-.5-.5-.5h-2.4v-19c0-.3-.2-.5-.5-.5s-.5.2-.5.5v18.9h-2.4c-.3 0-.5.2-.5.5V27c-3 1.3-5.1 4.4-5.1 7.8 0 4.8 3.9 8.6 8.6 8.6 4.8 0 8.6-3.8 8.6-8.6-.1-3.5-2.2-6.5-5.3-7.8z"/></g><g id="Group-6" transform="translate(27.61 40)"><path id="Fill-4" d="M8.2-5.7H6.9c-.2 0-.4.2-.4.5s.2.5.4.5h1.3c.2.1.4-.1.4-.4.1-.3-.1-.6-.4-.6"/></g><path id="Fill-7" d="M34.5 41c-.2-.2-.5-.2-.8 0-.2.2-.2.5 0 .8l1.1 1.1c.1.1.2.2.4.2.1 0 .3-.1.4-.2.2-.2.2-.5 0-.8L34.5 41z"/><path id="Fill-9" d="M34.1 29.4c.1 0 .3-.1.4-.2l1.1-1.1c.2-.2.2-.5 0-.8-.2-.2-.5-.2-.8 0l-1.1 1.1c-.2.2-.2.5 0 .8.1.2.3.2.4.2"/><g id="Group-13" transform="translate(.61 40)"><path id="Fill-11" d="M14.6-5.1c0-.3-.2-.5-.4-.5h-1.3c-.2 0-.4.2-.4.5s.2.5.4.5H14c.4.1.6-.2.6-.5"/></g><path id="Fill-14" d="M15.1 41L14 42.1c-.2.2-.2.5 0 .8.1.1.2.2.4.2.1 0 .3-.1.4-.2l1.1-1.1c.2-.2.2-.5 0-.8-.2-.2-.6-.2-.8 0"/><path id="Fill-16" d="M14.7 27.3c-.2-.2-.5-.2-.8 0-.2.2-.2.5 0 .8l1.1 1.1c.1.1.2.2.4.2.1 0 .3-.1.4-.2.2-.2.2-.5 0-.8l-1.1-1.1z"/><path id="Fill-18" d="M24.6 39.8c-2.5 0-4.6-2.1-4.6-4.6 0-.3-.2-.5-.5-.5s-.5.2-.5.5c0 3 2.5 5.6 5.6 5.6.3 0 .5-.2.5-.5.1-.3-.1-.5-.5-.5"/></g></g></g></g></g></symbol><symbol id="search" xmlns="http://www.w3.org/2000/svg" xmlns:xlink="http://www.w3.org/1999/xlink" xml:space="preserve" viewBox="0 0 50 50"><g id="Maquette"><g id="_x30_1_x5F_home-v5" transform="translate(-1595 -1032)"><g id="Recherche-artisans" transform="translate(222 973)"><g transform="matrix(-1 0 0 1 1405 59)" id="search"><path id="Fill-1" d="M5.4 33.4C-.9 33.4-6 28.3-6 22S-.9 10.6 5.4 10.6 16.8 15.7 16.8 22c0 6.3-5.1 11.4-11.4 11.4m18 4.9L16 30.9h-.1c4.9-5.8 4.2-14.4-1.6-19.3S-.2 7.4-5 13.1c-4.9 5.8-4.2 14.4 1.6 19.3 5.1 4.3 12.6 4.3 17.7 0v.1l7.4 7.4c.4.4 1.2.5 1.6 0 .5-.4.5-1.1.1-1.6"/></g></g></g></g></symbol><symbol id="savoir-faire" xmlns="http://www.w3.org/2000/svg" xmlns:xlink="http://www.w3.org/1999/xlink" xml:space="preserve" viewBox="0 0 50 50"><g id="Maquette_00000076563817246230994410000003401489834019935128_"><g id="_x30_1_x5F_home-v5_00000011025066587502727520000014456266973496250252_" transform="translate(-977 -5927)"><g id="Valeurs" transform="translate(-4 5649)"><g id="Savoir-faire-_x26_-garantie" transform="translate(981 278)"><g id="picto-savoir-faire"><path id="Fill-1_00000077282288870200127730000014608069018820154809_" d="M20.8 40.2v-7.3c0-.4.2-.7.4-.7h6.5c.1 0 .4.3.4.7v7.3h-7.3zm16.3 0h-7.8v-7.3c0-1.1-.7-1.9-1.6-1.9h-6.5c-.9 0-1.6.8-1.6 1.9v7.3H12v-8.4h-1.2v9c0 .4.2.6.6.6h26.4c.3 0 .6-.3.6-.6v-8.7h-1.2l-.1 8.1z"/><g id="Group-5" transform="translate(8)"><path id="Fill-3" d="M4 19.5L16.5 7.1l4.2 4.1c.2.2.4.2.6.2.2-.1.4-.3.4-.6V9h4.6v7.6c0 .2.1.3.2.4l2.5 2.5v2h1.2v-2.3c0-.2-.1-.3-.2-.4l-2.5-2.5V8.4c0-.3-.3-.6-.6-.6H21c-.3 0-.6.3-.6.6v1l-3.6-3.5c-.2-.2-.6-.2-.8 0L3 18.8c-.2.1-.2.3-.2.4v2.5H4v-2.2z"/></g><path id="Fill-6" d="M24.1 9.5l-10.3 10 .8.9 9.9-9.6 9.7 9.6.8-.9-10.1-10c-.2-.2-.6-.2-.8 0"/><path id="Fill-8" d="M25.2 36.9h1.4v-1.3h-1.4z"/><path id="Fill-10" d="M42 28.9h-3.2v-2.5h-1.2v2.5h-3.3v-1.5h-1.2v1.5H30v-2.5h-1.2v2.5h-3.2v-1.5h-1.2v1.5h-2.9v-2.5h-1.2v2.5h-3.4v-1.5h-1.2v1.5h-3v-2.5h-1.2v2.5H8V24h33.9l.1 4.9zm.6-6.1H7.4c-.3 0-.6.2-.6.6v6.1c0 .3.3.6.6.6h35.1c.3 0 .6-.3.6-.6v-6.1c.1-.4-.2-.6-.5-.6z"/></g></g></g></g></g></symbol><symbol id="share" xmlns="http://www.w3.org/2000/svg" xmlns:xlink="http://www.w3.org/1999/xlink" xml:space="preserve" viewBox="0 0 50 50"><g id="Maquette_00000015317409038283231380000005497573118951230615_"><g id="_x30_3_x5F_recherche-artisans-map" transform="translate(-381 -687)"><g id="bt-partager-ma-recherche" transform="translate(381 687)"><g id="Group-3"><path id="Fill-1_00000155140637414832450250000006926026870432991373_" d="M35.2 38.2c-1.8 0-3.4-1.5-3.4-3.4 0-.6.1-1.1.4-1.6.9-1.6 3-2.2 4.7-1.4 1.6.9 2.2 3 1.4 4.7-.7 1.1-1.8 1.7-3.1 1.7M14.7 27.9c-1.8 0-3.4-1.5-3.4-3.4 0-1.8 1.5-3.4 3.4-3.4 1.8 0 3.4 1.5 3.4 3.4-.1 1.9-1.6 3.4-3.4 3.4m20.5-17.1c1.8 0 3.4 1.5 3.4 3.4 0 1.8-1.5 3.4-3.4 3.4-1.2 0-2.3-.6-3-1.7-.9-1.7-.2-3.7 1.5-4.7.4-.3.9-.4 1.5-.4m0 18.3c-1.7 0-3.3.7-4.4 2.1L20.1 26c.2-1 .2-2 0-3l10.7-5c2 2.5 5.7 2.8 8.1.9 2.5-2 2.8-5.7.9-8.1-2-2.5-5.7-2.8-8.1-.9-1.8 1.5-2.6 3.8-1.8 6L19.2 21c-2-2.5-5.5-3-8-1s-3 5.5-1 8 5.5 3 8 1c.4-.2.6-.6 1-1l10.6 5.2c-.9 3.1.9 6.1 3.9 7.1 3.1.9 6.1-.9 7.1-3.9.9-3.1-.9-6.1-3.9-7.1-.6-.2-1.2-.2-1.7-.2"/></g></g></g></g></symbol><symbol id="valeurs" xmlns="http://www.w3.org/2000/svg" xmlns:xlink="http://www.w3.org/1999/xlink" xml:space="preserve" viewBox="0 0 50 50"><path d="M35.6 12.7h-1.2v-1.1c0-.3-.3-.6-.6-.6h-5.1v-.2c0-1.6-.9-2.9-2.2-2.9h-8.3C17 7.9 16 9.2 16 10.8v.3h-5.1c-.3-.1-.6.2-.6.5v1.1H9c-.3 0-.6.3-.6.6v30.3c0 .3.3.6.6.6h26.5c.3 0 .6-.3.6-.6V13.3c.1-.4-.1-.6-.5-.6zm-18.4-1.9c0-1 .5-1.7.9-1.7h8.3c.4 0 .9.7.9 1.7v.3H17.2v-.3zm-5.7 1.4h21.6V14H11.5v-1.8zm23.4 30.7H9.6v-29h.6v.7c0 .3.3.6.6.6h22.8c.3 0 .6-.3.6-.6v-.7h.6v29z"/><path d="M12.7 18.9h4.6c.3 0 .6-.3.6-.6s-.3-.6-.6-.6h-4.6c-.3 0-.6.3-.6.6 0 .2.2.6.6.6zm0 3.1h12.7c.3 0 .6-.3.6-.6s-.3-.6-.6-.6H12.7c-.3 0-.6.3-.6.6 0 .4.2.6.6.6zm13.8 3.3H19c-.3 0-.6.3-.6.6s.3.6.6.6h7.5c.3 0 .6-.3.6-.6s-.3-.6-.6-.6zm0 6.4H19c-.3 0-.6.3-.6.6s.3.6.6.6h7.5c.3 0 .6-.3.6-.6s-.3-.6-.6-.6zm0 6.6H19c-.3 0-.6.3-.6.6s.3.6.6.6h7.5c.3 0 .6-.3.6-.6.1-.3-.3-.6-.6-.6zM15.4 23.8H12c-.3 0-.6.3-.6.6v3.1c0 .3.3.6.6.6h3.4c.3 0 .6-.3.6-.6v-3.1c0-.3-.3-.6-.6-.6zm-.6 3h-2.2v-1.9h2.2v1.9zm.6 3.3H12c-.3 0-.6.3-.6.6v3.1c0 .3.3.6.6.6h3.4c.3 0 .6-.3.6-.6v-3.1c0-.3-.3-.6-.6-.6zm-.6 3.1h-2.2v-1.9h2.2v1.9zm.6 3.6H12c-.3 0-.6.3-.6.6v3.1c0 .3.3.6.6.6h3.4c.3 0 .6-.3.6-.6v-3.1c0-.4-.3-.6-.6-.6zm-.6 3.1h-2.2V38h2.2v1.9zm28-18.9v-.2l-1.6-3.3c-.1-.2-.3-.3-.5-.3s-.4.1-.5.3l-1.7 3.3v22.5c0 .3.3.6.6.6h3.2c.3 0 .6-.3.6-.6v-3.2L42.8 21zm-3.1.6h1.9v17.8h-1.9V21.6zm.9-2.5l.6 1.3H40l.6-1.3zm1 23.5h-1.9v-1.9h1.9v1.9z"/></symbol><symbol id="youtube" xmlns="http://www.w3.org/2000/svg" xmlns:xlink="http://www.w3.org/1999/xlink" xml:space="preserve" viewBox="0 0 50 50"><g id="Maquette_00000138543155329837800710000008055568666640000923_"><g id="_x30_1_x5F_home-v5_00000094620218005937115740000013841636818935418044_" transform="translate(-1529 -52)"><g transform="translate(1351 52)" id="Header_00000104685526273417347170000016559545943078576525_"><g id="Group-7"><g transform="translate(178)"><g id="Group-14"><path id="Fill-12" d="M34.9 28.1c-.1.8-.7 2.2-1.2 2.9-.7.7-1.7.5-2.5.5-2 .1-4.1 0-6.1 0h-5c-.5 0-1.1 0-1.5-.1-.4 0-.9-.1-1.1-.3-.1-.1-.3-.5-.5-.6l-.1-.3c-.8-1.7-.8-3-.8-4.9v-2.6c0-.4 0-1.1.2-1.5 0-.4.2-.8.5-1.1.4-.8.7-1.1 1.5-1.5.4-.1 1.2-.3 1.6-.3h9.7c.8 0 1.5 0 2.2.1.5 0 1.2.1 1.7.4.3.1.7.4.8.7.4.9.7 1.7.8 2.6 0 .9.1 2 .1 2.9v.5c0 1.1-.1 1.7-.3 2.6M25.3 8.3c-9.2 0-16.8 7.5-16.8 16.8S16 41.9 25.3 41.9s16.8-7.5 16.8-16.8S34.6 8.3 25.3 8.3"/></g></g><path d="M201.5 21.9v6.5L207 25z"/></g></g></g></g></symbol></svg>